#N canvas 75 43 836 300 10;
#X obj 35 46 inlet;
#X obj 85 46 inlet;
#X obj 131 189 spigot;
#X obj 83 189 spigot;
#X obj 179 189 spigot;
#X obj 227 189 spigot;
#X obj 275 189 spigot;
#X obj 323 189 spigot;
#X obj 35 189 spigot;
#X obj 371 189 spigot;
#X obj 419 189 spigot;
#X obj 83 216 outlet;
#X obj 131 216 outlet;
#X obj 179 216 outlet;
#X obj 227 216 outlet;
#X obj 275 216 outlet;
#X obj 323 216 outlet;
#X obj 371 216 outlet;
#X obj 419 216 outlet;
#X obj 35 216 outlet;
#X obj 85 81 == 0;
#X obj 119 81 == 1;
#X obj 153 81 == 2;
#X obj 187 81 == 3;
#X obj 221 81 == 4;
#X obj 255 81 == 5;
#X obj 289 81 == 6;
#X obj 323 81 == 7;
#X obj 357 81 == 8;
#X obj 391 81 == 9;
#X obj 467 189 spigot;
#X obj 467 216 outlet;
#X connect 0 0 8 0;
#X connect 0 0 3 0;
#X connect 0 0 2 0;
#X connect 0 0 4 0;
#X connect 0 0 5 0;
#X connect 0 0 6 0;
#X connect 0 0 7 0;
#X connect 0 0 9 0;
#X connect 0 0 10 0;
#X connect 0 0 30 0;
#X connect 1 0 20 0;
#X connect 1 0 21 0;
#X connect 1 0 22 0;
#X connect 1 0 23 0;
#X connect 1 0 24 0;
#X connect 1 0 25 0;
#X connect 1 0 26 0;
#X connect 1 0 27 0;
#X connect 1 0 28 0;
#X connect 1 0 29 0;
#X connect 2 0 12 0;
#X connect 3 0 11 0;
#X connect 4 0 13 0;
#X connect 5 0 14 0;
#X connect 6 0 15 0;
#X connect 7 0 16 0;
#X connect 8 0 19 0;
#X connect 9 0 17 0;
#X connect 10 0 18 0;
#X connect 20 0 8 1;
#X connect 21 0 3 1;
#X connect 22 0 2 1;
#X connect 23 0 4 1;
#X connect 24 0 5 1;
#X connect 25 0 6 1;
#X connect 26 0 7 1;
#X connect 27 0 9 1;
#X connect 28 0 10 1;
#X connect 29 0 30 1;
#X connect 30 0 31 0;
