#N canvas 0 23 1280 751 10;
#X obj 101 51 metro 100;
#X floatatom 152 23 5 0 0 0 - - -;
#X obj 101 82 float;
#X obj 151 81 + 1;
#X floatatom 101 111 5 0 0 0 - - -;
#X obj 212 411 mod;
#X obj 419 411 mod;
#X obj 624 411 mod;
#X floatatom 227 355 5 0 0 0 - - -;
#X floatatom 212 437 5 0 0 0 - - -;
#X floatatom 419 437 5 0 0 0 - - -;
#X floatatom 624 437 5 0 0 0 - - -;
#X obj 434 187 openpanel;
#X obj 434 168 bng 15 250 50 0 empty empty empty 17 7 0 10 -262144
-1 -1;
#N canvas 0 22 450 300 (subpatch) 0;
#X array perc1 22177 float 0;
#X coords 0 1 22176 -1 200 140 1;
#X restore 228 23 graph;
#N canvas 0 22 450 300 (subpatch) 0;
#X array perc2 34688 float 0;
#X coords 0 1 34687 -1 200 140 1;
#X restore 434 23 graph;
#X obj 434 229 soundfiler;
#X obj 228 187 openpanel;
#X obj 228 168 bng 15 250 50 0 empty empty empty 17 7 0 10 -262144
-1 -1;
#X obj 228 229 soundfiler;
#X obj 640 187 openpanel;
#X obj 640 168 bng 15 250 50 0 empty empty empty 17 7 0 10 -262144
-1 -1;
#X obj 640 229 soundfiler;
#N canvas 659 386 450 265 step-list 0;
#X obj 20 46 hradio 15 1 0 8 empty empty empty 0 -8 0 10 -262144 -1
-1 0;
#X obj 20 97 select 0 1 2 3 4 5 6 7;
#X obj 20 131 sel 1;
#X obj 35 63 tgl 15 0 empty empty empty 17 7 0 10 -262144 -1 -1 0 1
;
#X obj 50 63 tgl 15 0 empty empty empty 17 7 0 10 -262144 -1 -1 0 1
;
#X obj 65 63 tgl 15 0 empty empty empty 17 7 0 10 -262144 -1 -1 0 1
;
#X obj 80 63 tgl 15 0 empty empty empty 17 7 0 10 -262144 -1 -1 0 1
;
#X obj 95 63 tgl 15 0 empty empty empty 17 7 0 10 -262144 -1 -1 0 1
;
#X obj 110 63 tgl 15 0 empty empty empty 17 7 0 10 -262144 -1 -1 0
1;
#X obj 125 63 tgl 15 0 empty empty empty 17 7 0 10 -262144 -1 -1 0
1;
#X obj 20 63 tgl 15 0 empty empty empty 17 7 0 10 -262144 -1 -1 0 1
;
#X obj 20 114 f;
#X obj 45 114 f;
#X obj 70 114 f;
#X obj 95 114 f;
#X obj 120 114 f;
#X obj 145 114 f;
#X obj 170 114 f;
#X obj 195 114 f;
#X obj 20 16 inlet;
#X obj 20 162 outlet;
#X connect 0 0 1 0;
#X connect 1 0 11 0;
#X connect 1 1 12 0;
#X connect 1 2 13 0;
#X connect 1 3 14 0;
#X connect 1 4 15 0;
#X connect 1 5 16 0;
#X connect 1 6 17 0;
#X connect 1 7 18 0;
#X connect 2 0 20 0;
#X connect 3 0 12 1;
#X connect 4 0 13 1;
#X connect 5 0 14 1;
#X connect 6 0 15 1;
#X connect 7 0 16 1;
#X connect 8 0 17 1;
#X connect 9 0 18 1;
#X connect 10 0 11 1;
#X connect 11 0 2 0;
#X connect 12 0 2 0;
#X connect 13 0 2 0;
#X connect 14 0 2 0;
#X connect 15 0 2 0;
#X connect 16 0 2 0;
#X connect 17 0 2 0;
#X connect 18 0 2 0;
#X connect 19 0 0 0;
#X restore 212 462 pd step-list;
#N canvas 659 386 450 265 step-list 1;
#X obj 20 46 hradio 15 1 0 8 empty empty empty 0 -8 0 10 -262144 -1
-1 0;
#X obj 20 97 select 0 1 2 3 4 5 6 7;
#X obj 20 131 sel 1;
#X obj 35 63 tgl 15 0 empty empty empty 17 7 0 10 -262144 -1 -1 0 1
;
#X obj 50 63 tgl 15 0 empty empty empty 17 7 0 10 -262144 -1 -1 0 1
;
#X obj 65 63 tgl 15 0 empty empty empty 17 7 0 10 -262144 -1 -1 0 1
;
#X obj 80 63 tgl 15 0 empty empty empty 17 7 0 10 -262144 -1 -1 0 1
;
#X obj 95 63 tgl 15 0 empty empty empty 17 7 0 10 -262144 -1 -1 0 1
;
#X obj 110 63 tgl 15 0 empty empty empty 17 7 0 10 -262144 -1 -1 0
1;
#X obj 125 63 tgl 15 0 empty empty empty 17 7 0 10 -262144 -1 -1 0
1;
#X obj 20 63 tgl 15 0 empty empty empty 17 7 0 10 -262144 -1 -1 0 1
;
#X obj 20 114 f;
#X obj 45 114 f;
#X obj 70 114 f;
#X obj 95 114 f;
#X obj 120 114 f;
#X obj 145 114 f;
#X obj 170 114 f;
#X obj 195 114 f;
#X obj 20 16 inlet;
#X obj 20 162 outlet;
#X connect 0 0 1 0;
#X connect 1 0 11 0;
#X connect 1 1 12 0;
#X connect 1 2 13 0;
#X connect 1 3 14 0;
#X connect 1 4 15 0;
#X connect 1 5 16 0;
#X connect 1 6 17 0;
#X connect 1 7 18 0;
#X connect 2 0 20 0;
#X connect 3 0 12 1;
#X connect 4 0 13 1;
#X connect 5 0 14 1;
#X connect 6 0 15 1;
#X connect 7 0 16 1;
#X connect 8 0 17 1;
#X connect 9 0 18 1;
#X connect 10 0 11 1;
#X connect 11 0 2 0;
#X connect 12 0 2 0;
#X connect 13 0 2 0;
#X connect 14 0 2 0;
#X connect 15 0 2 0;
#X connect 16 0 2 0;
#X connect 17 0 2 0;
#X connect 18 0 2 0;
#X connect 19 0 0 0;
#X restore 419 462 pd step-list;
#N canvas 659 386 450 265 step-list 1;
#X obj 20 46 hradio 15 1 0 8 empty empty empty 0 -8 0 10 -262144 -1
-1 0;
#X obj 20 97 select 0 1 2 3 4 5 6 7;
#X obj 20 131 sel 1;
#X obj 35 63 tgl 15 0 empty empty empty 17 7 0 10 -262144 -1 -1 0 1
;
#X obj 50 63 tgl 15 0 empty empty empty 17 7 0 10 -262144 -1 -1 0 1
;
#X obj 65 63 tgl 15 0 empty empty empty 17 7 0 10 -262144 -1 -1 0 1
;
#X obj 80 63 tgl 15 0 empty empty empty 17 7 0 10 -262144 -1 -1 0 1
;
#X obj 95 63 tgl 15 0 empty empty empty 17 7 0 10 -262144 -1 -1 0 1
;
#X obj 110 63 tgl 15 0 empty empty empty 17 7 0 10 -262144 -1 -1 0
1;
#X obj 125 63 tgl 15 0 empty empty empty 17 7 0 10 -262144 -1 -1 0
1;
#X obj 20 63 tgl 15 1 empty empty empty 17 7 0 10 -262144 -1 -1 1 1
;
#X obj 20 114 f;
#X obj 45 114 f;
#X obj 70 114 f;
#X obj 95 114 f;
#X obj 120 114 f;
#X obj 145 114 f;
#X obj 170 114 f;
#X obj 195 114 f;
#X obj 20 16 inlet;
#X obj 20 162 outlet;
#X connect 0 0 1 0;
#X connect 1 0 11 0;
#X connect 1 1 12 0;
#X connect 1 2 13 0;
#X connect 1 3 14 0;
#X connect 1 4 15 0;
#X connect 1 5 16 0;
#X connect 1 6 17 0;
#X connect 1 7 18 0;
#X connect 2 0 20 0;
#X connect 3 0 12 1;
#X connect 4 0 13 1;
#X connect 5 0 14 1;
#X connect 6 0 15 1;
#X connect 7 0 16 1;
#X connect 8 0 17 1;
#X connect 9 0 18 1;
#X connect 10 0 11 1;
#X connect 11 0 2 0;
#X connect 12 0 2 0;
#X connect 13 0 2 0;
#X connect 14 0 2 0;
#X connect 15 0 2 0;
#X connect 16 0 2 0;
#X connect 17 0 2 0;
#X connect 18 0 2 0;
#X connect 19 0 0 0;
#X restore 624 462 pd step-list;
#X obj 212 488 tabplay~ perc1;
#X obj 419 488 tabplay~ perc2;
#X obj 624 488 tabplay~ perc3;
#X msg 228 208 read -resize \$1 perc1;
#X msg 434 208 read -resize \$1 perc2;
#X msg 640 208 read -resize \$1 perc3;
#X obj 265 383 line;
#X msg 357 355 stop;
#X obj 230 252 hsl 128 15 8 1 0 0 empty empty empty -2 -8 0 10 -262144
-1 -1 0 1;
#X obj 265 274 sel 1;
#X floatatom 434 355 5 0 0 0 - - -;
#X obj 472 383 line;
#X obj 437 252 hsl 128 15 8 1 0 0 empty empty empty -2 -8 0 10 -262144
-1 -1 0 1;
#X obj 472 274 sel 1;
#X floatatom 639 355 5 0 0 0 - - -;
#X obj 677 383 line;
#X obj 642 251 hsl 128 15 8 1 0 0 empty empty empty -2 -8 0 10 -262144
-1 -1 0 1;
#X obj 677 273 sel 1;
#X obj 212 383 r count;
#X obj 101 140 s count;
#X obj 419 383 r count;
#X obj 624 383 r count;
#X obj 305 274 r start;
#X obj 48 166 sel 1;
#X obj 100 166 sel 0;
#X obj 48 191 s start;
#X obj 100 191 s stop;
#X obj 357 274 r stop;
#X text 47 6 run/stop;
#X msg 565 355 stop;
#X obj 513 274 r start;
#X obj 565 274 r stop;
#X msg 769 355 stop;
#X obj 717 273 r start;
#X obj 769 273 r stop;
#X obj 212 515 s~ p1;
#X obj 419 515 s~ p2;
#X obj 624 516 s~ p3;
#X obj 848 22 r~ p1;
#X obj 886 22 r~ p2;
#X obj 925 22 r~ p3;
#N canvas 515 197 555 463 audio-switch 0;
#X obj 79 20 r count;
#X obj 79 68 sel 1;
#X obj 79 92 float;
#X obj 129 91 + 1;
#X floatatom 79 116 5 0 0 0 - - -;
#X obj 79 205 select 0 1 2 3;
#X obj 79 141 mod 4;
#X obj 35 45 r stop;
#X msg 35 69 0;
#X obj 40 266 spigot~;
#X msg 79 222 1;
#X msg 108 222 0;
#X obj 98 266 spigot~;
#X msg 137 222 1;
#X msg 165 222 0;
#X obj 154 266 spigot~;
#X msg 193 222 1;
#X msg 221 222 0;
#X obj 210 266 spigot~;
#X msg 249 222 1;
#X msg 277 222 0;
#X obj 25 222 inlet~;
#X obj 40 295 outlet~;
#X obj 98 295 outlet~;
#X obj 154 295 outlet~;
#X obj 210 295 outlet~;
#X floatatom 79 167 5 0 0 0 - - -;
#X obj 79 44 mod 4;
#X connect 0 0 27 0;
#X connect 1 0 2 0;
#X connect 2 0 3 0;
#X connect 2 0 4 0;
#X connect 3 0 2 1;
#X connect 4 0 6 0;
#X connect 5 0 10 0;
#X connect 5 0 11 0;
#X connect 5 1 13 0;
#X connect 5 1 14 0;
#X connect 5 2 16 0;
#X connect 5 2 17 0;
#X connect 5 3 19 0;
#X connect 5 3 20 0;
#X connect 6 0 26 0;
#X connect 7 0 8 0;
#X connect 8 0 2 0;
#X connect 9 1 22 0;
#X connect 10 0 9 1;
#X connect 11 0 12 1;
#X connect 11 0 15 1;
#X connect 11 0 18 1;
#X connect 12 1 23 0;
#X connect 13 0 12 1;
#X connect 14 0 9 1;
#X connect 14 0 15 1;
#X connect 14 0 18 1;
#X connect 15 1 24 0;
#X connect 16 0 15 1;
#X connect 17 0 9 1;
#X connect 17 0 12 1;
#X connect 17 0 18 1;
#X connect 18 1 25 0;
#X connect 19 0 18 1;
#X connect 20 0 9 1;
#X connect 20 0 12 1;
#X connect 20 0 15 1;
#X connect 21 0 9 0;
#X connect 21 0 12 0;
#X connect 21 0 15 0;
#X connect 21 0 18 0;
#X connect 26 0 5 0;
#X connect 27 0 1 0;
#X restore 848 52 pd audio-switch;
#N canvas 485 230 684 453 flanger 0;
#X obj 67 201 metro 10;
#X floatatom 23 109 5 0 0 0 - - -;
#X obj 229 173 +~ 1;
#X obj -28 357 +~;
#X obj 68 223 snapshot~;
#X obj 229 237 +~ 1;
#X obj 229 202 *~ 1;
#X obj 66 179 loadbang;
#X obj 229 145 osc~ 0.1;
#X text 273 158 delay magnitude(ms);
#X text 270 195 delay offset(ms);
#X text 363 321 feedback amount;
#X obj 79 73 vsl 12 50 0.001 1 0 0 empty empty speed -5 -7 1 10 -262144
-1 -1 0 1;
#X obj -34 13 inlet~;
#X obj 316 321 *~ 0.5;
#X obj 112 73 vsl 12 50 0 10 0 0 empty empty offset -5 -7 1 10 -262144
-1 -1 0 1;
#X obj 145 73 vsl 12 50 0 20 0 0 empty empty delay -5 -7 1 10 -262144
-1 -1 0 1;
#X obj 177 73 vsl 12 50 0 0.99 0 0 empty empty feedback -5 -7 1 10
-262144 -1 -1 0 1;
#X obj 25 12 inlet;
#X obj 82 12 inlet;
#X obj 25 36 s \$0-osc;
#X obj 229 112 r \$0-osc;
#X obj 82 36 s \$0-off;
#X obj 276 214 r \$0-off;
#X obj 139 12 inlet;
#X obj 139 36 s \$0-del;
#X obj 275 174 r \$0-del;
#X obj 197 11 inlet;
#X obj 197 36 s \$0-feed;
#X obj 349 231 r \$0-feed;
#X obj 74 342 delwrite~ \$0-line 1000;
#X obj 229 266 vd~ \$0-line;
#X text 20 62 flanger;
#X obj -28 386 outlet~;
#X text 20 92 delay(ms);
#X text 32 377 In addition to the sliders \, the inlets allow the user
to fully control the internals of the patch with no range-limits;
#X obj 349 287 expr if($f1 > 1 \, 0.99 \, $f1);
#X obj 349 264 expr if($f1 < -1 \, -0.99 \, $f1);
#X connect 0 0 4 0;
#X connect 2 0 6 0;
#X connect 3 0 33 0;
#X connect 4 0 1 0;
#X connect 5 0 4 0;
#X connect 5 0 31 0;
#X connect 6 0 5 0;
#X connect 7 0 0 0;
#X connect 8 0 2 0;
#X connect 12 0 8 0;
#X connect 13 0 3 0;
#X connect 13 0 30 0;
#X connect 14 0 30 0;
#X connect 15 0 5 1;
#X connect 16 0 6 1;
#X connect 17 0 14 1;
#X connect 18 0 20 0;
#X connect 19 0 22 0;
#X connect 21 0 8 0;
#X connect 23 0 5 1;
#X connect 24 0 25 0;
#X connect 26 0 6 1;
#X connect 27 0 28 0;
#X connect 29 0 37 0;
#X connect 31 0 3 1;
#X connect 31 0 14 0;
#X connect 36 0 14 1;
#X connect 37 0 36 0;
#X restore 911 169 pd flanger;
#N canvas 682 180 552 495 ringmod 0;
#X obj 95 192 osc~;
#X obj 214 193 osc~;
#X obj 152 94 vsl 12 35 0 5000 0 0 empty empty left -1 -9 1 10 -262144
-1 -1 0 1;
#X obj 178 94 vsl 12 35 0 5000 0 0 empty empty right -5 -9 1 10 -262144
-1 -1 0 1;
#X obj 270 238 samphold~;
#X obj 56 26 inlet~;
#X obj 263 94 vsl 12 35 0 10000 0 0 empty empty samp_rate -15 -9 1
10 -262144 -1 -1 0 1;
#X obj 153 135 tgl 10 0 empty empty empty 17 7 0 10 -262144 -1 -1 1
1;
#X obj 179 135 tgl 10 0 empty empty empty 17 7 0 10 -262144 -1 -1 1
1;
#X obj 264 135 tgl 10 0 empty empty empty 17 7 0 10 -262144 -1 -1 0
1;
#X text 96 117 ring mod;
#X obj 80 311 outlet~;
#X obj 199 313 outlet~;
#X obj 80 238 *~;
#X obj 80 274 *~ 0;
#X obj 199 239 *~;
#X obj 56 55 s~ \$0-in;
#X obj 30 192 r~ \$0-in;
#X obj 150 193 r~ \$0-in;
#X obj 199 274 *~ 0;
#X text 97 130 on/off;
#X obj 115 26 inlet;
#X obj 180 26 inlet;
#X obj 251 26 inlet;
#X obj 115 55 s \$0-left;
#X obj 180 55 s \$0-right;
#X obj 251 55 s \$0-rate;
#X obj 339 194 r \$0-rate;
#X obj 214 149 r \$0-right;
#X obj 95 149 r \$0-left;
#X text 206 118 sample;
#X text 206 129 and hold;
#X obj 202 77 cnv 1 1 68 empty empty empty 20 12 0 14 -228856 -66577
0;
#X obj 270 194 r~ \$0-in;
#X obj 270 274 *~ 0;
#X obj 339 217 phasor~ 5000;
#X obj 39 76 loadbang;
#X msg 39 102 1;
#X connect 0 0 13 1;
#X connect 1 0 15 1;
#X connect 2 0 0 0;
#X connect 3 0 1 0;
#X connect 4 0 34 0;
#X connect 5 0 16 0;
#X connect 6 0 35 0;
#X connect 7 0 14 1;
#X connect 8 0 19 1;
#X connect 9 0 34 1;
#X connect 13 0 14 0;
#X connect 14 0 11 0;
#X connect 15 0 19 0;
#X connect 17 0 13 0;
#X connect 18 0 15 0;
#X connect 19 0 12 0;
#X connect 21 0 24 0;
#X connect 22 0 25 0;
#X connect 23 0 26 0;
#X connect 27 0 35 0;
#X connect 28 0 1 0;
#X connect 29 0 0 0;
#X connect 33 0 4 0;
#X connect 34 0 12 0;
#X connect 34 0 11 0;
#X connect 35 0 4 1;
#X connect 36 0 37 0;
#X connect 37 0 7 0;
#X connect 37 0 8 0;
#X restore 981 169 pd ringmod;
#N canvas 0 22 450 300 (subpatch) 0;
#X array perc3 6602 float 0;
#X coords 0 1 6601 -1 200 140 1;
#X restore 640 23 graph;
#X obj 848 228 mixer~ 8 --------------------;
#X obj 848 260 dac~;
#X obj 848 200 *~ 0.2;
#X obj 892 200 *~ 0.2;
#X obj 936 200 *~ 0.2;
#X obj 981 200 *~ 0.2;
#X obj 1025 200 *~ 0.2;
#X obj 716 516 / 100;
#X obj 716 488 random 100;
#X obj 716 544 s r1;
#X obj 968 22 r r1;
#X obj 512 514 s r2;
#X obj 1000 22 r r2;
#X obj 848 312 r count;
#X obj 848 335 mod 32;
#X text 848 291 variance over time;
#X obj 848 380 sel 1;
#X floatatom 848 358 5 0 0 0 - - -;
#X obj 48 220 ctlin 0;
#X obj 48 23 tgl 15 0 empty empty empty 17 7 0 10 -262144 -1 -1 0 1
;
#X obj 298 295 r t1;
#X obj 48 241 * 60;
#X floatatom 298 315 5 0 0 0 - - -;
#X msg 265 355 set 8 \, 1 \$1;
#X obj 265 334 f 2000;
#X obj 48 262 + 100;
#X obj 98 241 * 60;
#X obj 98 262 + 100;
#X obj 148 241 * 60;
#X obj 148 262 + 100;
#X obj 98 220 ctlin 1;
#X obj 148 220 ctlin 2;
#X floatatom 505 315 5 0 0 0 - - -;
#X obj 505 295 r t2;
#X msg 472 355 set 8 \, 1 \$1;
#X obj 472 334 f 3000;
#X floatatom 710 314 5 0 0 0 - - -;
#X obj 710 294 r t3;
#X obj 677 333 f 5000;
#X msg 677 355 set 8 \, 1 \$1;
#X obj 848 405 random 8000;
#X obj 848 428 + 100;
#X obj 848 451 s t1;
#X obj 922 405 random 8000;
#X obj 922 428 + 100;
#X obj 996 405 random 8000;
#X obj 996 428 + 100;
#X obj 922 451 s t2;
#X obj 996 451 s t3;
#X obj 512 488 random 500;
#X connect 0 0 2 0;
#X connect 1 0 0 1;
#X connect 2 0 3 0;
#X connect 2 0 4 0;
#X connect 3 0 2 1;
#X connect 4 0 45 0;
#X connect 5 0 9 0;
#X connect 6 0 10 0;
#X connect 7 0 11 0;
#X connect 8 0 5 1;
#X connect 8 0 35 0;
#X connect 9 0 23 0;
#X connect 10 0 24 0;
#X connect 11 0 25 0;
#X connect 12 0 30 0;
#X connect 13 0 12 0;
#X connect 17 0 29 0;
#X connect 18 0 17 0;
#X connect 20 0 31 0;
#X connect 21 0 20 0;
#X connect 23 0 26 0;
#X connect 24 0 27 0;
#X connect 24 0 120 0;
#X connect 25 0 28 0;
#X connect 25 0 79 0;
#X connect 26 0 61 0;
#X connect 27 0 62 0;
#X connect 28 0 63 0;
#X connect 29 0 19 0;
#X connect 30 0 16 0;
#X connect 31 0 22 0;
#X connect 32 0 34 0;
#X connect 33 0 32 0;
#X connect 34 0 8 0;
#X connect 35 0 95 0;
#X connect 36 0 39 0;
#X connect 36 0 6 1;
#X connect 37 0 38 0;
#X connect 38 0 36 0;
#X connect 39 0 106 0;
#X connect 40 0 43 0;
#X connect 40 0 7 1;
#X connect 41 0 42 0;
#X connect 42 0 40 0;
#X connect 43 0 109 0;
#X connect 44 0 5 0;
#X connect 46 0 6 0;
#X connect 47 0 7 0;
#X connect 48 0 94 0;
#X connect 49 0 51 0;
#X connect 50 0 52 0;
#X connect 53 0 33 0;
#X connect 55 0 37 0;
#X connect 56 0 105 0;
#X connect 57 0 55 0;
#X connect 58 0 41 0;
#X connect 59 0 110 0;
#X connect 60 0 58 0;
#X connect 64 0 67 0;
#X connect 65 0 67 0;
#X connect 66 0 67 0;
#X connect 67 0 68 0;
#X connect 67 0 69 0;
#X connect 67 1 68 0;
#X connect 67 1 69 0;
#X connect 67 2 76 0;
#X connect 67 3 68 0;
#X connect 68 0 74 0;
#X connect 69 0 75 0;
#X connect 69 1 75 0;
#X connect 71 0 72 0;
#X connect 71 0 72 1;
#X connect 73 0 71 0;
#X connect 74 0 71 1;
#X connect 75 0 71 2;
#X connect 76 0 71 3;
#X connect 77 0 71 4;
#X connect 78 0 80 0;
#X connect 79 0 78 0;
#X connect 81 0 68 4;
#X connect 83 0 69 2;
#X connect 83 0 69 1;
#X connect 84 0 85 0;
#X connect 85 0 88 0;
#X connect 87 0 111 0;
#X connect 87 0 114 0;
#X connect 87 0 116 0;
#X connect 88 0 87 0;
#X connect 89 0 92 0;
#X connect 90 0 0 0;
#X connect 90 0 49 0;
#X connect 90 0 50 0;
#X connect 91 0 93 0;
#X connect 92 0 96 0;
#X connect 93 0 95 1;
#X connect 94 0 32 0;
#X connect 95 0 94 0;
#X connect 97 0 98 0;
#X connect 99 0 100 0;
#X connect 101 0 97 0;
#X connect 102 0 99 0;
#X connect 103 0 106 1;
#X connect 104 0 103 0;
#X connect 105 0 37 0;
#X connect 106 0 105 0;
#X connect 107 0 109 1;
#X connect 108 0 107 0;
#X connect 109 0 110 0;
#X connect 110 0 41 0;
#X connect 111 0 112 0;
#X connect 112 0 113 0;
#X connect 114 0 115 0;
#X connect 115 0 118 0;
#X connect 116 0 117 0;
#X connect 117 0 119 0;
#X connect 120 0 82 0;
