#N canvas -8 -8 1600 817 10;
#X declare -lib mrpeach;
#X obj 212 411 mod;
#X obj 419 411 mod;
#X obj 624 411 mod;
#X floatatom 227 355 5 0 0 0 - - -;
#X floatatom 212 437 5 0 0 0 - - -;
#X floatatom 419 437 5 0 0 0 - - -;
#X floatatom 624 437 5 0 0 0 - - -;
#X obj 434 187 openpanel;
#X obj 434 168 bng 15 250 50 0 empty empty empty 17 7 0 10 -262144
-1 -1;
#N canvas 0 22 450 300 (subpatch) 0;
#X array perc1 13824 float 0;
#X coords 0 1 13823 -1 200 140 1;
#X restore 228 23 graph;
#N canvas 0 22 450 300 (subpatch) 0;
#X array perc2 6912 float 0;
#X coords 0 1 6911 -1 200 140 1;
#X restore 434 23 graph;
#X obj 434 229 soundfiler;
#X obj 228 187 openpanel;
#X obj 228 168 bng 15 250 50 0 empty empty empty 17 7 0 10 -262144
-1 -1;
#X obj 228 229 soundfiler;
#X obj 640 187 openpanel;
#X obj 640 168 bng 15 250 50 0 empty empty empty 17 7 0 10 -262144
-1 -1;
#X obj 640 229 soundfiler;
#N canvas 647 118 516 560 step-list 0;
#X obj 20 48 hradio 15 1 0 8 empty empty empty 0 -8 0 10 -262144 -1
-1 2;
#X obj 20 99 select 0 1 2 3 4 5 6 7;
#X obj 20 133 sel 1;
#X obj 35 65 tgl 15 1 empty empty empty 17 7 0 10 -262144 -1 -1 0 1
;
#X obj 50 65 tgl 15 1 empty empty empty 17 7 0 10 -262144 -1 -1 1 1
;
#X obj 65 65 tgl 15 1 empty empty empty 17 7 0 10 -262144 -1 -1 0 1
;
#X obj 80 65 tgl 15 1 empty empty empty 17 7 0 10 -262144 -1 -1 1 1
;
#X obj 95 65 tgl 15 1 empty empty empty 17 7 0 10 -262144 -1 -1 0 1
;
#X obj 110 65 tgl 15 1 empty empty empty 17 7 0 10 -262144 -1 -1 1
1;
#X obj 125 65 tgl 15 1 empty empty empty 17 7 0 10 -262144 -1 -1 0
1;
#X obj 20 65 tgl 15 1 empty empty empty 17 7 0 10 -262144 -1 -1 1 1
;
#X obj 20 116 f;
#X obj 45 116 f;
#X obj 70 116 f;
#X obj 95 116 f;
#X obj 120 116 f;
#X obj 145 116 f;
#X obj 170 116 f;
#X obj 195 116 f;
#X obj 20 18 inlet;
#X obj 20 164 outlet;
#X connect 0 0 1 0;
#X connect 1 0 11 0;
#X connect 1 1 12 0;
#X connect 1 2 13 0;
#X connect 1 3 14 0;
#X connect 1 4 15 0;
#X connect 1 5 16 0;
#X connect 1 6 17 0;
#X connect 1 7 18 0;
#X connect 2 0 20 0;
#X connect 3 0 12 1;
#X connect 4 0 13 1;
#X connect 5 0 14 1;
#X connect 6 0 15 1;
#X connect 7 0 16 1;
#X connect 8 0 17 1;
#X connect 9 0 18 1;
#X connect 10 0 11 1;
#X connect 11 0 2 0;
#X connect 12 0 2 0;
#X connect 13 0 2 0;
#X connect 14 0 2 0;
#X connect 15 0 2 0;
#X connect 16 0 2 0;
#X connect 17 0 2 0;
#X connect 18 0 2 0;
#X connect 19 0 0 0;
#X restore 212 462 pd step-list;
#N canvas 659 386 450 265 step-list 0;
#X obj 30 56 hradio 15 1 0 8 empty empty empty 0 -8 0 10 -262144 -1
-1 1;
#X obj 30 107 select 0 1 2 3 4 5 6 7;
#X obj 30 141 sel 1;
#X obj 45 73 tgl 15 1 empty empty empty 17 7 0 10 -262144 -1 -1 0 1
;
#X obj 60 73 tgl 15 1 empty empty empty 17 7 0 10 -262144 -1 -1 0 1
;
#X obj 75 73 tgl 15 1 empty empty empty 17 7 0 10 -262144 -1 -1 0 1
;
#X obj 90 73 tgl 15 1 empty empty empty 17 7 0 10 -262144 -1 -1 0 1
;
#X obj 105 73 tgl 15 1 empty empty empty 17 7 0 10 -262144 -1 -1 0
1;
#X obj 120 73 tgl 15 1 empty empty empty 17 7 0 10 -262144 -1 -1 0
1;
#X obj 135 73 tgl 15 1 empty empty empty 17 7 0 10 -262144 -1 -1 0
1;
#X obj 30 73 tgl 15 1 empty empty empty 17 7 0 10 -262144 -1 -1 1 1
;
#X obj 30 124 f;
#X obj 55 124 f;
#X obj 80 124 f;
#X obj 105 124 f;
#X obj 130 124 f;
#X obj 155 124 f;
#X obj 180 124 f;
#X obj 205 124 f;
#X obj 30 26 inlet;
#X obj 30 172 outlet;
#X connect 0 0 1 0;
#X connect 1 0 11 0;
#X connect 1 1 12 0;
#X connect 1 2 13 0;
#X connect 1 3 14 0;
#X connect 1 4 15 0;
#X connect 1 5 16 0;
#X connect 1 6 17 0;
#X connect 1 7 18 0;
#X connect 2 0 20 0;
#X connect 3 0 12 1;
#X connect 4 0 13 1;
#X connect 5 0 14 1;
#X connect 6 0 15 1;
#X connect 7 0 16 1;
#X connect 8 0 17 1;
#X connect 9 0 18 1;
#X connect 10 0 11 1;
#X connect 11 0 2 0;
#X connect 12 0 2 0;
#X connect 13 0 2 0;
#X connect 14 0 2 0;
#X connect 15 0 2 0;
#X connect 16 0 2 0;
#X connect 17 0 2 0;
#X connect 18 0 2 0;
#X connect 19 0 0 0;
#X restore 419 462 pd step-list;
#N canvas 659 386 450 265 step-list 0;
#X obj 20 46 hradio 15 1 0 8 empty empty empty 0 -8 0 10 -262144 -1
-1 3;
#X obj 20 97 select 0 1 2 3 4 5 6 7;
#X obj 20 131 sel 1;
#X obj 35 63 tgl 15 1 empty empty empty 17 7 0 10 -262144 -1 -1 0 1
;
#X obj 50 63 tgl 15 1 empty empty empty 17 7 0 10 -262144 -1 -1 0 1
;
#X obj 65 63 tgl 15 1 empty empty empty 17 7 0 10 -262144 -1 -1 1 1
;
#X obj 80 63 tgl 15 1 empty empty empty 17 7 0 10 -262144 -1 -1 1 1
;
#X obj 95 63 tgl 15 1 empty empty empty 17 7 0 10 -262144 -1 -1 0 1
;
#X obj 110 63 tgl 15 1 empty empty empty 17 7 0 10 -262144 -1 -1 1
1;
#X obj 125 63 tgl 15 1 empty empty empty 17 7 0 10 -262144 -1 -1 0
1;
#X obj 20 63 tgl 15 1 empty empty empty 17 7 0 10 -262144 -1 -1 1 1
;
#X obj 20 114 f;
#X obj 45 114 f;
#X obj 70 114 f;
#X obj 95 114 f;
#X obj 120 114 f;
#X obj 145 114 f;
#X obj 170 114 f;
#X obj 195 114 f;
#X obj 20 16 inlet;
#X obj 20 162 outlet;
#X connect 0 0 1 0;
#X connect 1 0 11 0;
#X connect 1 1 12 0;
#X connect 1 2 13 0;
#X connect 1 3 14 0;
#X connect 1 4 15 0;
#X connect 1 5 16 0;
#X connect 1 6 17 0;
#X connect 1 7 18 0;
#X connect 2 0 20 0;
#X connect 3 0 12 1;
#X connect 4 0 13 1;
#X connect 5 0 14 1;
#X connect 6 0 15 1;
#X connect 7 0 16 1;
#X connect 8 0 17 1;
#X connect 9 0 18 1;
#X connect 10 0 11 1;
#X connect 11 0 2 0;
#X connect 12 0 2 0;
#X connect 13 0 2 0;
#X connect 14 0 2 0;
#X connect 15 0 2 0;
#X connect 16 0 2 0;
#X connect 17 0 2 0;
#X connect 18 0 2 0;
#X connect 19 0 0 0;
#X restore 624 462 pd step-list;
#X obj 212 488 tabplay~ perc1;
#X obj 419 488 tabplay~ perc2;
#X obj 624 488 tabplay~ perc3;
#X msg 228 208 read -resize \$1 perc1;
#X msg 434 208 read -resize \$1 perc2;
#X msg 640 208 read -resize \$1 perc3;
#X obj 265 383 line;
#X msg 357 355 stop;
#X obj 230 252 hsl 128 15 8 1 0 0 empty empty empty -2 -8 0 10 -262144
-1 -1 8652 1;
#X obj 265 274 sel 1;
#X floatatom 434 355 5 0 0 0 - - -;
#X obj 472 383 line;
#X obj 437 252 hsl 128 15 8 1 0 0 empty empty empty -2 -8 0 10 -262144
-1 -1 10095 1;
#X obj 472 274 sel 1;
#X floatatom 639 355 5 0 0 0 - - -;
#X obj 677 383 line;
#X obj 642 251 hsl 128 15 8 1 0 0 empty empty empty -2 -8 0 10 -262144
-1 -1 6494 1;
#X obj 677 273 sel 1;
#X obj 212 383 r count;
#X obj 419 383 r count;
#X obj 624 383 r count;
#X obj 305 274 r start;
#X obj 357 274 r stop;
#X text 42 235 run/stop;
#X msg 565 355 stop;
#X obj 513 274 r start;
#X obj 565 274 r stop;
#X msg 769 355 stop;
#X obj 717 273 r start;
#X obj 769 273 r stop;
#X obj 212 515 s~ p1;
#X obj 419 515 s~ p2;
#X obj 624 516 s~ p3;
#X obj 848 22 r~ p1;
#X obj 886 22 r~ p2;
#X obj 925 22 r~ p3;
#N canvas 127 86 927 671 audio-switch 0;
#X obj 79 45 r count;
#X obj 79 92 float;
#X obj 129 91 + 1;
#X floatatom 79 116 5 0 0 0 - - -;
#X obj 35 45 r stop;
#X msg 35 69 0;
#X obj 40 359 spigot~;
#X msg 79 248 1;
#X msg 108 248 0;
#X obj 98 359 spigot~;
#X msg 137 248 1;
#X msg 165 248 0;
#X obj 154 359 spigot~;
#X msg 193 248 1;
#X msg 221 248 0;
#X obj 210 359 spigot~;
#X msg 249 248 1;
#X msg 277 248 0;
#X obj 25 248 inlet~;
#X obj 40 388 outlet~;
#X obj 98 388 outlet~;
#X obj 154 388 outlet~;
#X obj 210 388 outlet~;
#X floatatom 79 167 5 0 0 0 - - -;
#X obj 79 193 select 0 1 2 3 4 5 6 7;
#X obj 260 359 spigot~;
#X obj 318 359 spigot~;
#X obj 374 359 spigot~;
#X obj 430 359 spigot~;
#X obj 260 388 outlet~;
#X obj 318 388 outlet~;
#X obj 374 388 outlet~;
#X obj 430 388 outlet~;
#X msg 306 248 1;
#X msg 334 248 0;
#X msg 362 248 1;
#X msg 390 248 0;
#X msg 419 248 1;
#X msg 447 248 0;
#X msg 476 248 1;
#X msg 504 248 0;
#X obj 79 141 mod 8;
#X connect 0 0 1 0;
#X connect 1 0 2 0;
#X connect 1 0 3 0;
#X connect 2 0 1 1;
#X connect 3 0 41 0;
#X connect 4 0 5 0;
#X connect 5 0 1 0;
#X connect 6 1 19 0;
#X connect 7 0 6 1;
#X connect 8 0 9 1;
#X connect 8 0 12 1;
#X connect 8 0 15 1;
#X connect 8 0 25 1;
#X connect 8 0 26 1;
#X connect 8 0 27 1;
#X connect 8 0 28 1;
#X connect 9 1 20 0;
#X connect 10 0 9 1;
#X connect 11 0 6 1;
#X connect 11 0 12 1;
#X connect 11 0 15 1;
#X connect 11 0 25 1;
#X connect 11 0 26 1;
#X connect 11 0 27 1;
#X connect 11 0 28 1;
#X connect 12 1 21 0;
#X connect 13 0 12 1;
#X connect 14 0 6 1;
#X connect 14 0 9 1;
#X connect 14 0 15 1;
#X connect 14 0 25 1;
#X connect 14 0 26 1;
#X connect 14 0 27 1;
#X connect 14 0 28 1;
#X connect 15 1 22 0;
#X connect 16 0 15 1;
#X connect 17 0 6 1;
#X connect 17 0 9 1;
#X connect 17 0 12 1;
#X connect 17 0 25 1;
#X connect 17 0 26 1;
#X connect 17 0 27 1;
#X connect 17 0 28 1;
#X connect 18 0 6 0;
#X connect 18 0 9 0;
#X connect 18 0 12 0;
#X connect 18 0 15 0;
#X connect 18 0 26 0;
#X connect 18 0 27 0;
#X connect 18 0 28 0;
#X connect 18 0 25 0;
#X connect 23 0 24 0;
#X connect 24 0 7 0;
#X connect 24 0 8 0;
#X connect 24 1 10 0;
#X connect 24 1 11 0;
#X connect 24 2 13 0;
#X connect 24 2 14 0;
#X connect 24 3 16 0;
#X connect 24 3 17 0;
#X connect 24 4 33 0;
#X connect 24 4 34 0;
#X connect 24 5 35 0;
#X connect 24 5 36 0;
#X connect 24 6 37 0;
#X connect 24 6 38 0;
#X connect 24 7 39 0;
#X connect 24 7 40 0;
#X connect 25 1 29 0;
#X connect 26 1 30 0;
#X connect 27 1 31 0;
#X connect 28 1 32 0;
#X connect 33 0 25 1;
#X connect 34 0 6 1;
#X connect 34 0 9 1;
#X connect 34 0 12 1;
#X connect 34 0 15 1;
#X connect 34 0 26 1;
#X connect 34 0 27 1;
#X connect 34 0 28 1;
#X connect 35 0 26 1;
#X connect 36 0 6 1;
#X connect 36 0 9 1;
#X connect 36 0 12 1;
#X connect 36 0 15 1;
#X connect 36 0 25 1;
#X connect 36 0 27 1;
#X connect 36 0 28 1;
#X connect 37 0 27 1;
#X connect 38 0 6 1;
#X connect 38 0 9 1;
#X connect 38 0 12 1;
#X connect 38 0 15 1;
#X connect 38 0 25 1;
#X connect 38 0 26 1;
#X connect 38 0 28 1;
#X connect 39 0 28 1;
#X connect 40 0 6 1;
#X connect 40 0 9 1;
#X connect 40 0 12 1;
#X connect 40 0 15 1;
#X connect 40 0 25 1;
#X connect 40 0 26 1;
#X connect 40 0 27 1;
#X connect 41 0 23 0;
#X restore 848 52 pd audio-switch;
#N canvas 608 238 684 453 flanger 0;
#X obj 67 201 metro 10;
#X floatatom 23 109 5 0 0 0 - - -;
#X obj 229 173 +~ 1;
#X obj -28 357 +~;
#X obj 68 223 snapshot~;
#X obj 229 237 +~ 1;
#X obj 229 202 *~ 1;
#X obj 66 179 loadbang;
#X obj 229 145 osc~ 0.1;
#X text 273 158 delay magnitude(ms);
#X text 270 195 delay offset(ms);
#X text 363 321 feedback amount;
#X obj 79 73 vsl 12 50 0.001 1 0 1 empty empty speed -5 -7 1 10 -262144
-1 -1 2200 1;
#X obj -34 13 inlet~;
#X obj 316 321 *~ 0.5;
#X obj 112 73 vsl 12 50 0 10 0 1 empty empty offset -5 -7 1 10 -262144
-1 -1 3000 1;
#X obj 145 73 vsl 12 50 0 20 0 1 empty empty delay -5 -7 1 10 -262144
-1 -1 2000 1;
#X obj 177 73 vsl 12 50 0 0.99 0 1 empty empty feedback -5 -7 1 10
-262144 -1 -1 4200 1;
#X obj 25 12 inlet;
#X obj 82 12 inlet;
#X obj 25 36 s \$0-osc;
#X obj 229 112 r \$0-osc;
#X obj 82 36 s \$0-off;
#X obj 276 214 r \$0-off;
#X obj 139 12 inlet;
#X obj 139 36 s \$0-del;
#X obj 275 174 r \$0-del;
#X obj 197 11 inlet;
#X obj 197 36 s \$0-feed;
#X obj 349 231 r \$0-feed;
#X obj 74 342 delwrite~ \$0-line 1000;
#X obj 229 266 vd~ \$0-line;
#X text 20 62 flanger;
#X obj -28 386 outlet~;
#X text 20 92 delay(ms);
#X text 32 377 In addition to the sliders \, the inlets allow the user
to fully control the internals of the patch with no range-limits;
#X obj 349 287 expr if($f1 > 1 \, 0.99 \, $f1);
#X obj 349 264 expr if($f1 < -1 \, -0.99 \, $f1);
#X connect 0 0 4 0;
#X connect 2 0 6 0;
#X connect 3 0 33 0;
#X connect 4 0 1 0;
#X connect 5 0 4 0;
#X connect 5 0 31 0;
#X connect 6 0 5 0;
#X connect 7 0 0 0;
#X connect 8 0 2 0;
#X connect 12 0 8 0;
#X connect 13 0 3 0;
#X connect 13 0 30 0;
#X connect 14 0 30 0;
#X connect 15 0 5 1;
#X connect 16 0 6 1;
#X connect 17 0 14 1;
#X connect 18 0 20 0;
#X connect 19 0 22 0;
#X connect 21 0 8 0;
#X connect 23 0 5 1;
#X connect 24 0 25 0;
#X connect 26 0 6 1;
#X connect 27 0 28 0;
#X connect 29 0 37 0;
#X connect 31 0 3 1;
#X connect 31 0 14 0;
#X connect 36 0 14 1;
#X connect 37 0 36 0;
#X restore 892 169 pd flanger;
#N canvas 688 198 552 495 ringmod 0;
#X obj 95 192 osc~;
#X obj 214 193 osc~;
#X obj 152 94 vsl 12 35 0 5000 0 0 empty empty left -1 -9 1 10 -262144
-1 -1 900 1;
#X obj 178 94 vsl 12 35 0 5000 0 0 empty empty right -5 -9 1 10 -262144
-1 -1 1200 1;
#X obj 270 238 samphold~;
#X obj 56 26 inlet~;
#X obj 263 94 vsl 12 35 0 10000 0 0 empty empty samp_rate -15 -9 1
10 -262144 -1 -1 2700 1;
#X obj 153 135 tgl 10 0 empty empty empty 17 7 0 10 -262144 -1 -1 1
1;
#X obj 179 135 tgl 10 0 empty empty empty 17 7 0 10 -262144 -1 -1 1
1;
#X obj 264 135 tgl 10 1 empty empty empty 17 7 0 10 -262144 -1 -1 1
1;
#X text 96 117 ring mod;
#X obj 80 311 outlet~;
#X obj 199 313 outlet~;
#X obj 80 238 *~;
#X obj 80 274 *~ 0;
#X obj 199 239 *~;
#X obj 56 55 s~ \$0-in;
#X obj 30 192 r~ \$0-in;
#X obj 150 193 r~ \$0-in;
#X obj 199 274 *~ 0;
#X text 97 130 on/off;
#X obj 115 26 inlet;
#X obj 180 26 inlet;
#X obj 251 26 inlet;
#X obj 115 55 s \$0-left;
#X obj 180 55 s \$0-right;
#X obj 251 55 s \$0-rate;
#X obj 339 194 r \$0-rate;
#X obj 214 149 r \$0-right;
#X obj 95 149 r \$0-left;
#X text 206 118 sample;
#X text 206 129 and hold;
#X obj 202 77 cnv 1 1 68 empty empty empty 20 12 0 14 -228856 -66577
0;
#X obj 270 194 r~ \$0-in;
#X obj 270 274 *~ 0;
#X obj 339 217 phasor~ 5000;
#X obj 39 76 loadbang;
#X msg 39 102 1;
#X connect 0 0 13 1;
#X connect 1 0 15 1;
#X connect 2 0 0 0;
#X connect 3 0 1 0;
#X connect 4 0 34 0;
#X connect 5 0 16 0;
#X connect 6 0 35 0;
#X connect 7 0 14 1;
#X connect 8 0 19 1;
#X connect 9 0 34 1;
#X connect 13 0 14 0;
#X connect 14 0 11 0;
#X connect 15 0 19 0;
#X connect 17 0 13 0;
#X connect 18 0 15 0;
#X connect 19 0 12 0;
#X connect 21 0 24 0;
#X connect 22 0 25 0;
#X connect 23 0 26 0;
#X connect 27 0 35 0;
#X connect 28 0 1 0;
#X connect 29 0 0 0;
#X connect 33 0 4 0;
#X connect 34 0 12 0;
#X connect 34 0 11 0;
#X connect 35 0 4 1;
#X connect 36 0 37 0;
#X connect 37 0 7 0;
#X connect 37 0 8 0;
#X restore 981 169 pd ringmod;
#N canvas 0 22 450 300 (subpatch) 0;
#X array perc3 9216 float 0;
#X coords 0 1 9215 -1 200 140 1;
#X restore 640 23 graph;
#X obj 848 228 mixer~ 8 --------------------;
#X obj 848 260 dac~;
#X obj 848 200 *~ 0.2;
#X obj 892 200 *~ 0.2;
#X obj 936 200 *~ 0.2;
#X obj 981 200 *~ 0.2;
#X obj 1025 200 *~ 0.2;
#X obj 716 516 / 100;
#X obj 716 488 random 100;
#X obj 716 544 s r1;
#X obj 968 22 r r1;
#X obj 512 514 s r2;
#X obj 1000 22 r r2;
#X obj 848 312 r count;
#X obj 848 335 mod 32;
#X text 848 291 variance over time;
#X obj 848 380 sel 1;
#X floatatom 848 358 5 0 0 0 - - -;
#X obj 42 329 ctlin 0;
#X obj 43 252 tgl 15 0 empty empty empty 17 7 0 10 -262144 -1 -1 1
1;
#X obj 298 295 r t1;
#X obj 42 350 * 60;
#X floatatom 298 315 5 0 0 0 - - -;
#X msg 265 355 set 8 \, 1 \$1;
#X obj 265 334 f 2000;
#X obj 42 371 + 100;
#X obj 92 350 * 60;
#X obj 92 371 + 100;
#X obj 142 350 * 60;
#X obj 142 371 + 100;
#X obj 92 329 ctlin 1;
#X obj 142 329 ctlin 2;
#X floatatom 505 315 5 0 0 0 - - -;
#X obj 505 295 r t2;
#X msg 472 355 set 8 \, 1 \$1;
#X obj 472 334 f 3000;
#X floatatom 710 314 5 0 0 0 - - -;
#X obj 710 294 r t3;
#X obj 677 333 f 5000;
#X msg 677 355 set 8 \, 1 \$1;
#X obj 848 405 random 8000;
#X obj 848 428 + 100;
#X obj 848 451 s t1;
#X obj 922 405 random 8000;
#X obj 922 428 + 100;
#X obj 996 405 random 8000;
#X obj 996 428 + 100;
#X obj 922 451 s t2;
#X obj 996 451 s t3;
#X obj 112 252 nbx 5 14 1 1000 0 1 empty empty bpm 0 -8 0 10 -262144
-1 -1 167 256;
#N canvas 367 118 450 300 transport 0;
#X obj 111 131 float;
#X obj 161 130 + 1;
#X floatatom 111 160 5 0 0 0 - - -;
#X obj 111 189 s count;
#X obj 58 215 sel 1;
#X obj 110 215 sel 0;
#X obj 111 100 metro;
#X obj 58 44 inlet;
#X obj 138 44 inlet;
#X obj 58 242 outlet;
#X obj 110 242 outlet;
#X text 57 32 comment;
#X obj 162 189 s pulse;
#X obj 138 74 expr 15000 / $f1;
#X connect 0 0 1 0;
#X connect 0 0 2 0;
#X connect 1 0 0 1;
#X connect 2 0 3 0;
#X connect 4 0 9 0;
#X connect 5 0 10 0;
#X connect 6 0 0 0;
#X connect 6 0 12 0;
#X connect 7 0 4 0;
#X connect 7 0 5 0;
#X connect 7 0 6 0;
#X connect 8 0 13 0;
#X connect 13 0 6 1;
#X restore 43 275 pd transport;
#X obj 43 300 s start;
#X obj 112 300 s stop;
#X floatatom 548 514 5 0 0 0 - - -;
#X floatatom 748 544 5 0 0 0 - - -;
#X obj 305 516 / 100;
#X obj 305 488 random 100;
#X floatatom 337 544 5 0 0 0 - - -;
#X obj 305 544 s r3;
#X obj 1033 22 r r3;
#X obj 512 488 random 20;
#X obj 305 569 random 2500;
#X obj 305 593 s r4;
#X obj 1066 22 r r4;
#X obj 1053 287 writesf~;
#X msg 1053 232 open output.wav;
#X msg 1076 256 start;
#X msg 1119 256 stop;
#N canvas 423 110 450 300 osc-input 0;
#X obj 24 72 unpackOSC;
#X obj 24 43 udpreceive 9001;
#X obj 145 140 routeOSC /str;
#X obj 24 138 outlet;
#X obj 23 9 import mrpeach;
#X obj 24 109 routeOSC /play /beat;
#X connect 0 0 5 0;
#X connect 1 0 0 0;
#X connect 5 0 3 0;
#X connect 5 2 2 0;
#X restore 43 130 pd osc-input;
#X connect 0 0 4 0;
#X connect 1 0 5 0;
#X connect 2 0 6 0;
#X connect 3 0 0 1;
#X connect 3 0 30 0;
#X connect 4 0 18 0;
#X connect 5 0 19 0;
#X connect 6 0 20 0;
#X connect 7 0 25 0;
#X connect 8 0 7 0;
#X connect 12 0 24 0;
#X connect 13 0 12 0;
#X connect 15 0 26 0;
#X connect 16 0 15 0;
#X connect 18 0 21 0;
#X connect 18 0 117 0;
#X connect 18 0 122 0;
#X connect 19 0 22 0;
#X connect 19 0 121 0;
#X connect 20 0 23 0;
#X connect 20 0 69 0;
#X connect 21 0 51 0;
#X connect 22 0 52 0;
#X connect 23 0 53 0;
#X connect 24 0 14 0;
#X connect 25 0 11 0;
#X connect 26 0 17 0;
#X connect 27 0 29 0;
#X connect 28 0 27 0;
#X connect 29 0 3 0;
#X connect 30 0 85 0;
#X connect 31 0 34 0;
#X connect 31 0 1 1;
#X connect 32 0 33 0;
#X connect 33 0 31 0;
#X connect 34 0 96 0;
#X connect 35 0 38 0;
#X connect 35 0 2 1;
#X connect 36 0 37 0;
#X connect 37 0 35 0;
#X connect 38 0 99 0;
#X connect 39 0 0 0;
#X connect 40 0 1 0;
#X connect 41 0 2 0;
#X connect 42 0 85 0;
#X connect 43 0 28 0;
#X connect 45 0 32 0;
#X connect 46 0 96 0;
#X connect 47 0 45 0;
#X connect 48 0 36 0;
#X connect 49 0 99 0;
#X connect 50 0 48 0;
#X connect 54 0 57 0;
#X connect 55 0 57 0;
#X connect 56 0 57 0;
#X connect 57 0 63 0;
#X connect 57 1 63 0;
#X connect 57 1 59 0;
#X connect 57 2 63 0;
#X connect 57 3 63 0;
#X connect 57 4 63 0;
#X connect 57 5 59 0;
#X connect 57 6 63 0;
#X connect 57 7 58 0;
#X connect 58 0 64 0;
#X connect 59 0 65 0;
#X connect 59 1 65 0;
#X connect 61 0 62 0;
#X connect 61 0 62 1;
#X connect 61 0 125 0;
#X connect 63 0 61 0;
#X connect 64 0 61 1;
#X connect 65 0 61 2;
#X connect 66 0 61 3;
#X connect 67 0 61 4;
#X connect 68 0 70 0;
#X connect 68 0 115 0;
#X connect 69 0 68 0;
#X connect 71 0 58 4;
#X connect 73 0 58 3;
#X connect 74 0 75 0;
#X connect 75 0 78 0;
#X connect 77 0 101 0;
#X connect 77 0 104 0;
#X connect 77 0 106 0;
#X connect 78 0 77 0;
#X connect 79 0 82 0;
#X connect 80 0 111 0;
#X connect 81 0 83 0;
#X connect 82 0 86 0;
#X connect 83 0 85 1;
#X connect 84 0 27 0;
#X connect 85 0 84 0;
#X connect 87 0 88 0;
#X connect 89 0 90 0;
#X connect 91 0 87 0;
#X connect 92 0 89 0;
#X connect 93 0 96 1;
#X connect 94 0 93 0;
#X connect 95 0 32 0;
#X connect 96 0 95 0;
#X connect 97 0 99 1;
#X connect 98 0 97 0;
#X connect 99 0 100 0;
#X connect 100 0 36 0;
#X connect 101 0 102 0;
#X connect 102 0 103 0;
#X connect 104 0 105 0;
#X connect 105 0 108 0;
#X connect 106 0 107 0;
#X connect 107 0 109 0;
#X connect 110 0 111 1;
#X connect 111 0 112 0;
#X connect 111 1 113 0;
#X connect 116 0 118 0;
#X connect 116 0 119 0;
#X connect 117 0 116 0;
#X connect 120 0 58 1;
#X connect 121 0 72 0;
#X connect 121 0 114 0;
#X connect 122 0 123 0;
#X connect 124 0 59 1;
#X connect 124 0 59 2;
#X connect 126 0 125 0;
#X connect 127 0 125 0;
#X connect 128 0 125 0;
#X connect 129 0 80 0;
