#N canvas 0 22 1280 699 10;
#X obj 101 51 metro 100;
#X obj 48 23 tgl 15 0 empty empty empty 17 7 0 10 -262144 -1 -1 1 1
;
#X floatatom 152 23 5 0 0 0 - - -;
#X obj 101 82 float;
#X obj 151 81 + 1;
#X floatatom 101 111 5 0 0 0 - - -;
#X obj 173 357 mod;
#X obj 380 357 mod;
#X obj 585 356 mod;
#X floatatom 188 301 5 0 0 0 - - -;
#X floatatom 173 383 5 0 0 0 - - -;
#X floatatom 380 383 5 0 0 0 - - -;
#X floatatom 585 382 5 0 0 0 - - -;
#X obj 395 187 openpanel;
#X obj 395 168 bng 15 250 50 0 empty empty empty 17 7 0 10 -262144
-1 -1;
#N canvas 0 22 450 300 (subpatch) 0;
#X array perc1 5116 float 0;
#X coords 0 1 5115 -1 200 140 1;
#X restore 189 23 graph;
#N canvas 0 22 450 300 (subpatch) 0;
#X array perc2 4397 float 0;
#X coords 0 1 4396 -1 200 140 1;
#X restore 395 23 graph;
#N canvas 0 22 450 300 (subpatch) 0;
#X array perc3 4812 float 0;
#X coords 0 1 4811 -1 200 140 1;
#X restore 601 23 graph;
#X obj 395 229 soundfiler;
#X obj 189 187 openpanel;
#X obj 189 168 bng 15 250 50 0 empty empty empty 17 7 0 10 -262144
-1 -1;
#X obj 189 229 soundfiler;
#X obj 601 187 openpanel;
#X obj 601 168 bng 15 250 50 0 empty empty empty 17 7 0 10 -262144
-1 -1;
#X obj 601 229 soundfiler;
#N canvas 659 386 450 265 step-list 0;
#X obj 20 46 hradio 15 1 0 8 empty empty empty 0 -8 0 10 -262144 -1
-1 2;
#X obj 20 97 select 0 1 2 3 4 5 6 7;
#X obj 20 131 sel 1;
#X obj 35 63 tgl 15 0 empty empty empty 17 7 0 10 -262144 -1 -1 0 1
;
#X obj 50 63 tgl 15 0 empty empty empty 17 7 0 10 -262144 -1 -1 1 1
;
#X obj 65 63 tgl 15 0 empty empty empty 17 7 0 10 -262144 -1 -1 0 1
;
#X obj 80 63 tgl 15 0 empty empty empty 17 7 0 10 -262144 -1 -1 1 1
;
#X obj 95 63 tgl 15 0 empty empty empty 17 7 0 10 -262144 -1 -1 0 1
;
#X obj 110 63 tgl 15 0 empty empty empty 17 7 0 10 -262144 -1 -1 1
1;
#X obj 125 63 tgl 15 0 empty empty empty 17 7 0 10 -262144 -1 -1 0
1;
#X obj 20 63 tgl 15 0 empty empty empty 17 7 0 10 -262144 -1 -1 1 1
;
#X obj 20 114 f;
#X obj 45 114 f;
#X obj 70 114 f;
#X obj 95 114 f;
#X obj 120 114 f;
#X obj 145 114 f;
#X obj 170 114 f;
#X obj 195 114 f;
#X obj 20 16 inlet;
#X obj 20 162 outlet;
#X connect 0 0 1 0;
#X connect 1 0 11 0;
#X connect 1 1 12 0;
#X connect 1 2 13 0;
#X connect 1 3 14 0;
#X connect 1 4 15 0;
#X connect 1 5 16 0;
#X connect 1 6 17 0;
#X connect 1 7 18 0;
#X connect 2 0 20 0;
#X connect 3 0 12 1;
#X connect 4 0 13 1;
#X connect 5 0 14 1;
#X connect 6 0 15 1;
#X connect 7 0 16 1;
#X connect 8 0 17 1;
#X connect 9 0 18 1;
#X connect 10 0 11 1;
#X connect 11 0 2 0;
#X connect 12 0 2 0;
#X connect 13 0 2 0;
#X connect 14 0 2 0;
#X connect 15 0 2 0;
#X connect 16 0 2 0;
#X connect 17 0 2 0;
#X connect 18 0 2 0;
#X connect 19 0 0 0;
#X restore 173 408 pd step-list;
#N canvas 659 386 450 265 step-list 0;
#X obj 20 46 hradio 15 1 0 8 empty empty empty 0 -8 0 10 -262144 -1
-1 2;
#X obj 20 97 select 0 1 2 3 4 5 6 7;
#X obj 20 131 sel 1;
#X obj 35 63 tgl 15 0 empty empty empty 17 7 0 10 -262144 -1 -1 0 1
;
#X obj 50 63 tgl 15 0 empty empty empty 17 7 0 10 -262144 -1 -1 1 1
;
#X obj 65 63 tgl 15 0 empty empty empty 17 7 0 10 -262144 -1 -1 1 1
;
#X obj 80 63 tgl 15 0 empty empty empty 17 7 0 10 -262144 -1 -1 0 1
;
#X obj 95 63 tgl 15 0 empty empty empty 17 7 0 10 -262144 -1 -1 1 1
;
#X obj 110 63 tgl 15 0 empty empty empty 17 7 0 10 -262144 -1 -1 1
1;
#X obj 125 63 tgl 15 0 empty empty empty 17 7 0 10 -262144 -1 -1 0
1;
#X obj 20 63 tgl 15 0 empty empty empty 17 7 0 10 -262144 -1 -1 1 1
;
#X obj 20 114 f;
#X obj 45 114 f;
#X obj 70 114 f;
#X obj 95 114 f;
#X obj 120 114 f;
#X obj 145 114 f;
#X obj 170 114 f;
#X obj 195 114 f;
#X obj 20 16 inlet;
#X obj 20 162 outlet;
#X connect 0 0 1 0;
#X connect 1 0 11 0;
#X connect 1 1 12 0;
#X connect 1 2 13 0;
#X connect 1 3 14 0;
#X connect 1 4 15 0;
#X connect 1 5 16 0;
#X connect 1 6 17 0;
#X connect 1 7 18 0;
#X connect 2 0 20 0;
#X connect 3 0 12 1;
#X connect 4 0 13 1;
#X connect 5 0 14 1;
#X connect 6 0 15 1;
#X connect 7 0 16 1;
#X connect 8 0 17 1;
#X connect 9 0 18 1;
#X connect 10 0 11 1;
#X connect 11 0 2 0;
#X connect 12 0 2 0;
#X connect 13 0 2 0;
#X connect 14 0 2 0;
#X connect 15 0 2 0;
#X connect 16 0 2 0;
#X connect 17 0 2 0;
#X connect 18 0 2 0;
#X connect 19 0 0 0;
#X restore 380 408 pd step-list;
#N canvas 659 386 450 265 step-list 0;
#X obj 20 46 hradio 15 1 0 8 empty empty empty 0 -8 0 10 -262144 -1
-1 2;
#X obj 20 97 select 0 1 2 3 4 5 6 7;
#X obj 20 131 sel 1;
#X obj 35 63 tgl 15 0 empty empty empty 17 7 0 10 -262144 -1 -1 0 1
;
#X obj 50 63 tgl 15 0 empty empty empty 17 7 0 10 -262144 -1 -1 0 1
;
#X obj 65 63 tgl 15 0 empty empty empty 17 7 0 10 -262144 -1 -1 1 1
;
#X obj 80 63 tgl 15 0 empty empty empty 17 7 0 10 -262144 -1 -1 1 1
;
#X obj 95 63 tgl 15 0 empty empty empty 17 7 0 10 -262144 -1 -1 0 1
;
#X obj 110 63 tgl 15 0 empty empty empty 17 7 0 10 -262144 -1 -1 1
1;
#X obj 125 63 tgl 15 0 empty empty empty 17 7 0 10 -262144 -1 -1 1
1;
#X obj 20 63 tgl 15 0 empty empty empty 17 7 0 10 -262144 -1 -1 1 1
;
#X obj 20 114 f;
#X obj 45 114 f;
#X obj 70 114 f;
#X obj 95 114 f;
#X obj 120 114 f;
#X obj 145 114 f;
#X obj 170 114 f;
#X obj 195 114 f;
#X obj 20 16 inlet;
#X obj 20 162 outlet;
#X connect 0 0 1 0;
#X connect 1 0 11 0;
#X connect 1 1 12 0;
#X connect 1 2 13 0;
#X connect 1 3 14 0;
#X connect 1 4 15 0;
#X connect 1 5 16 0;
#X connect 1 6 17 0;
#X connect 1 7 18 0;
#X connect 2 0 20 0;
#X connect 3 0 12 1;
#X connect 4 0 13 1;
#X connect 5 0 14 1;
#X connect 6 0 15 1;
#X connect 7 0 16 1;
#X connect 8 0 17 1;
#X connect 9 0 18 1;
#X connect 10 0 11 1;
#X connect 11 0 2 0;
#X connect 12 0 2 0;
#X connect 13 0 2 0;
#X connect 14 0 2 0;
#X connect 15 0 2 0;
#X connect 16 0 2 0;
#X connect 17 0 2 0;
#X connect 18 0 2 0;
#X connect 19 0 0 0;
#X restore 585 407 pd step-list;
#X obj 173 434 tabplay~ perc1;
#X obj 380 434 tabplay~ perc2;
#X obj 585 433 tabplay~ perc3;
#X msg 189 208 read -resize \$1 perc1;
#X msg 395 208 read -resize \$1 perc2;
#X msg 601 208 read -resize \$1 perc3;
#X obj 226 329 line;
#X msg 318 301 stop;
#X obj 191 252 hsl 128 15 8 1 0 0 empty empty empty -2 -8 0 10 -262144
-1 -1 968 1;
#X obj 226 274 sel 1;
#X floatatom 395 301 5 0 0 0 - - -;
#X obj 433 329 line;
#X obj 398 252 hsl 128 15 8 1 0 0 empty empty empty -2 -8 0 10 -262144
-1 -1 8297 1;
#X obj 433 274 sel 1;
#X floatatom 600 300 5 0 0 0 - - -;
#X obj 638 328 line;
#X obj 603 251 hsl 128 15 8 1 0 0 empty empty empty -2 -8 0 10 -262144
-1 -1 5532 1;
#X obj 638 273 sel 1;
#X msg 433 301 set 8 \, 1 3000;
#X msg 638 300 set 8 \, 1 4500;
#X msg 226 301 set 8 \, 1 2100;
#X obj 173 329 r count;
#X obj 101 140 s count;
#X obj 380 329 r count;
#X obj 585 328 r count;
#X obj 266 274 r start;
#X obj 48 166 sel 1;
#X obj 100 166 sel 0;
#X obj 48 191 s start;
#X obj 100 191 s stop;
#X obj 318 274 r stop;
#X text 47 6 run/stop;
#X msg 526 301 stop;
#X obj 474 274 r start;
#X obj 526 274 r stop;
#X msg 730 300 stop;
#X obj 678 273 r start;
#X obj 730 273 r stop;
#X obj 173 461 s~ p1;
#X obj 380 461 s~ p2;
#X obj 585 461 s~ p3;
#X obj 736 364 r~ p1;
#X obj 775 364 r~ p2;
#X obj 814 364 r~ p3;
#X obj 775 436 dac~;
#N canvas 515 197 555 463 audio-switch 0;
#X obj 124 100 r count;
#X obj 124 148 sel 1;
#X obj 124 172 float;
#X obj 174 171 + 1;
#X floatatom 124 196 5 0 0 0 - - -;
#X obj 124 248 select 0 1 2 3;
#X obj 124 221 mod 4;
#X obj 80 125 r stop;
#X msg 80 149 0;
#X obj 85 331 spigot~;
#X msg 124 265 1;
#X msg 153 265 0;
#X obj 143 331 spigot~;
#X msg 182 265 1;
#X msg 210 265 0;
#X obj 199 331 spigot~;
#X msg 238 265 1;
#X msg 266 265 0;
#X obj 255 331 spigot~;
#X msg 294 265 1;
#X msg 322 265 0;
#X obj 70 265 inlet~;
#X obj 85 360 outlet~;
#X obj 143 360 outlet~;
#X obj 199 360 outlet~;
#X obj 255 360 outlet~;
#X obj 124 124 mod 4;
#X connect 0 0 26 0;
#X connect 1 0 2 0;
#X connect 2 0 3 0;
#X connect 2 0 4 0;
#X connect 3 0 2 1;
#X connect 4 0 6 0;
#X connect 5 0 10 0;
#X connect 5 0 11 0;
#X connect 5 1 13 0;
#X connect 5 1 14 0;
#X connect 5 2 16 0;
#X connect 5 2 17 0;
#X connect 5 3 19 0;
#X connect 5 3 20 0;
#X connect 6 0 5 0;
#X connect 7 0 8 0;
#X connect 8 0 2 0;
#X connect 9 0 22 0;
#X connect 10 0 9 1;
#X connect 11 0 12 1;
#X connect 11 0 15 1;
#X connect 11 0 18 1;
#X connect 12 0 23 0;
#X connect 13 0 12 1;
#X connect 14 0 9 1;
#X connect 14 0 15 1;
#X connect 14 0 18 1;
#X connect 15 0 24 0;
#X connect 16 0 15 1;
#X connect 17 0 9 1;
#X connect 17 0 12 1;
#X connect 17 0 18 1;
#X connect 18 0 25 0;
#X connect 19 0 18 1;
#X connect 20 0 9 1;
#X connect 20 0 12 1;
#X connect 20 0 15 1;
#X connect 21 0 9 0;
#X connect 21 0 12 0;
#X connect 21 0 15 0;
#X connect 21 0 18 0;
#X connect 26 0 1 0;
#X restore 775 398 pd audio-switch;
#X connect 0 0 3 0;
#X connect 1 0 0 0;
#X connect 1 0 54 0;
#X connect 1 0 55 0;
#X connect 2 0 0 1;
#X connect 3 0 4 0;
#X connect 3 0 5 0;
#X connect 4 0 3 1;
#X connect 5 0 50 0;
#X connect 6 0 10 0;
#X connect 7 0 11 0;
#X connect 8 0 12 0;
#X connect 9 0 6 1;
#X connect 9 0 37 0;
#X connect 10 0 25 0;
#X connect 11 0 26 0;
#X connect 12 0 27 0;
#X connect 13 0 32 0;
#X connect 14 0 13 0;
#X connect 19 0 31 0;
#X connect 20 0 19 0;
#X connect 22 0 33 0;
#X connect 23 0 22 0;
#X connect 25 0 28 0;
#X connect 26 0 29 0;
#X connect 27 0 30 0;
#X connect 28 0 66 0;
#X connect 29 0 67 0;
#X connect 30 0 68 0;
#X connect 31 0 21 0;
#X connect 32 0 18 0;
#X connect 33 0 24 0;
#X connect 34 0 36 0;
#X connect 35 0 34 0;
#X connect 36 0 9 0;
#X connect 37 0 48 0;
#X connect 38 0 41 0;
#X connect 38 0 7 1;
#X connect 39 0 40 0;
#X connect 40 0 38 0;
#X connect 41 0 46 0;
#X connect 42 0 45 0;
#X connect 42 0 8 1;
#X connect 43 0 44 0;
#X connect 44 0 42 0;
#X connect 45 0 47 0;
#X connect 46 0 39 0;
#X connect 47 0 43 0;
#X connect 48 0 34 0;
#X connect 49 0 6 0;
#X connect 51 0 7 0;
#X connect 52 0 8 0;
#X connect 53 0 48 0;
#X connect 54 0 56 0;
#X connect 55 0 57 0;
#X connect 58 0 35 0;
#X connect 60 0 39 0;
#X connect 61 0 46 0;
#X connect 62 0 60 0;
#X connect 63 0 43 0;
#X connect 64 0 47 0;
#X connect 65 0 63 0;
#X connect 69 0 73 0;
#X connect 70 0 73 0;
#X connect 71 0 73 0;
#X connect 73 0 72 0;
#X connect 73 0 72 1;
#X connect 73 1 72 0;
#X connect 73 1 72 1;
#X connect 73 2 72 0;
#X connect 73 2 72 1;
#X connect 73 3 72 0;
#X connect 73 3 72 1;
