#N canvas 0 22 1280 699 10;
#X obj 42 276 metro 100;
#X obj 42 248 tgl 15 0 empty empty empty 17 7 0 10 -262144 -1 -1 0
1;
#X floatatom 93 248 5 0 0 0 - - -;
#X obj 42 307 float;
#X obj 92 306 + 1;
#X floatatom 42 336 5 0 0 0 - - -;
#X obj 138 352 mod;
#X obj 345 352 mod;
#X obj 550 352 mod;
#X floatatom 138 301 5 0 0 0 - - -;
#X floatatom 138 378 5 0 0 0 - - -;
#X floatatom 345 378 5 0 0 0 - - -;
#X floatatom 550 378 5 0 0 0 - - -;
#X obj 345 187 openpanel;
#X obj 138 467 dac~;
#X obj 345 168 bng 15 250 50 0 empty empty empty 17 7 0 10 -262144
-1 -1;
#N canvas 0 22 450 300 (subpatch) 0;
#X array perc1 29896 float 0;
#X coords 0 1 29895 -1 200 140 1;
#X restore 139 23 graph;
#N canvas 0 22 450 300 (subpatch) 0;
#X array perc2 4150 float 0;
#X coords 0 1 4149 -1 200 140 1;
#X restore 345 23 graph;
#N canvas 0 22 450 300 (subpatch) 0;
#X array perc3 10100 float 0;
#X coords 0 1 10099 -1 200 140 1;
#X restore 551 23 graph;
#X obj 345 229 soundfiler;
#X obj 139 187 openpanel;
#X obj 139 168 bng 15 250 50 0 empty empty empty 17 7 0 10 -262144
-1 -1;
#X obj 139 229 soundfiler;
#X obj 551 187 openpanel;
#X obj 551 168 bng 15 250 50 0 empty empty empty 17 7 0 10 -262144
-1 -1;
#X obj 551 229 soundfiler;
#N canvas 659 386 450 265 step-list 0;
#X obj 20 46 hradio 15 1 0 8 empty empty empty 0 -8 0 10 -262144 -1
-1 1;
#X obj 20 97 select 0 1 2 3 4 5 6 7;
#X obj 20 131 sel 1;
#X obj 35 63 tgl 15 0 empty empty empty 17 7 0 10 -262144 -1 -1 0 1
;
#X obj 50 63 tgl 15 0 empty empty empty 17 7 0 10 -262144 -1 -1 0 1
;
#X obj 65 63 tgl 15 0 empty empty empty 17 7 0 10 -262144 -1 -1 0 1
;
#X obj 80 63 tgl 15 0 empty empty empty 17 7 0 10 -262144 -1 -1 1 1
;
#X obj 95 63 tgl 15 0 empty empty empty 17 7 0 10 -262144 -1 -1 0 1
;
#X obj 110 63 tgl 15 0 empty empty empty 17 7 0 10 -262144 -1 -1 0
1;
#X obj 125 63 tgl 15 0 empty empty empty 17 7 0 10 -262144 -1 -1 0
1;
#X obj 20 63 tgl 15 0 empty empty empty 17 7 0 10 -262144 -1 -1 1 1
;
#X obj 20 114 f;
#X obj 45 114 f;
#X obj 70 114 f;
#X obj 95 114 f;
#X obj 120 114 f;
#X obj 145 114 f;
#X obj 170 114 f;
#X obj 195 114 f;
#X obj 20 16 inlet;
#X obj 20 162 outlet;
#X connect 0 0 1 0;
#X connect 1 0 11 0;
#X connect 1 1 12 0;
#X connect 1 2 13 0;
#X connect 1 3 14 0;
#X connect 1 4 15 0;
#X connect 1 5 16 0;
#X connect 1 6 17 0;
#X connect 1 7 18 0;
#X connect 2 0 20 0;
#X connect 3 0 12 1;
#X connect 4 0 13 1;
#X connect 5 0 14 1;
#X connect 6 0 15 1;
#X connect 7 0 16 1;
#X connect 8 0 17 1;
#X connect 9 0 18 1;
#X connect 10 0 11 1;
#X connect 11 0 2 0;
#X connect 12 0 2 0;
#X connect 13 0 2 0;
#X connect 14 0 2 0;
#X connect 15 0 2 0;
#X connect 16 0 2 0;
#X connect 17 0 2 0;
#X connect 18 0 2 0;
#X connect 19 0 0 0;
#X restore 138 403 pd step-list;
#N canvas 659 386 450 265 step-list 0;
#X obj 20 46 hradio 15 1 0 8 empty empty empty 0 -8 0 10 -262144 -1
-1 0;
#X obj 20 97 select 0 1 2 3 4 5 6 7;
#X obj 20 131 sel 1;
#X obj 35 63 tgl 15 0 empty empty empty 17 7 0 10 -262144 -1 -1 0 1
;
#X obj 50 63 tgl 15 0 empty empty empty 17 7 0 10 -262144 -1 -1 1 1
;
#X obj 65 63 tgl 15 0 empty empty empty 17 7 0 10 -262144 -1 -1 1 1
;
#X obj 80 63 tgl 15 0 empty empty empty 17 7 0 10 -262144 -1 -1 0 1
;
#X obj 95 63 tgl 15 0 empty empty empty 17 7 0 10 -262144 -1 -1 0 1
;
#X obj 110 63 tgl 15 0 empty empty empty 17 7 0 10 -262144 -1 -1 1
1;
#X obj 125 63 tgl 15 0 empty empty empty 17 7 0 10 -262144 -1 -1 0
1;
#X obj 20 63 tgl 15 0 empty empty empty 17 7 0 10 -262144 -1 -1 1 1
;
#X obj 20 114 f;
#X obj 45 114 f;
#X obj 70 114 f;
#X obj 95 114 f;
#X obj 120 114 f;
#X obj 145 114 f;
#X obj 170 114 f;
#X obj 195 114 f;
#X obj 20 16 inlet;
#X obj 20 162 outlet;
#X connect 0 0 1 0;
#X connect 1 0 11 0;
#X connect 1 1 12 0;
#X connect 1 2 13 0;
#X connect 1 3 14 0;
#X connect 1 4 15 0;
#X connect 1 5 16 0;
#X connect 1 6 17 0;
#X connect 1 7 18 0;
#X connect 2 0 20 0;
#X connect 3 0 12 1;
#X connect 4 0 13 1;
#X connect 5 0 14 1;
#X connect 6 0 15 1;
#X connect 7 0 16 1;
#X connect 8 0 17 1;
#X connect 9 0 18 1;
#X connect 10 0 11 1;
#X connect 11 0 2 0;
#X connect 12 0 2 0;
#X connect 13 0 2 0;
#X connect 14 0 2 0;
#X connect 15 0 2 0;
#X connect 16 0 2 0;
#X connect 17 0 2 0;
#X connect 18 0 2 0;
#X connect 19 0 0 0;
#X restore 345 403 pd step-list;
#N canvas 659 386 450 265 step-list 0;
#X obj 20 46 hradio 15 1 0 8 empty empty empty 0 -8 0 10 -262144 -1
-1 0;
#X obj 20 97 select 0 1 2 3 4 5 6 7;
#X obj 20 131 sel 1;
#X obj 35 63 tgl 15 0 empty empty empty 17 7 0 10 -262144 -1 -1 1 1
;
#X obj 50 63 tgl 15 0 empty empty empty 17 7 0 10 -262144 -1 -1 0 1
;
#X obj 65 63 tgl 15 0 empty empty empty 17 7 0 10 -262144 -1 -1 1 1
;
#X obj 80 63 tgl 15 0 empty empty empty 17 7 0 10 -262144 -1 -1 1 1
;
#X obj 95 63 tgl 15 0 empty empty empty 17 7 0 10 -262144 -1 -1 0 1
;
#X obj 110 63 tgl 15 0 empty empty empty 17 7 0 10 -262144 -1 -1 1
1;
#X obj 125 63 tgl 15 0 empty empty empty 17 7 0 10 -262144 -1 -1 0
1;
#X obj 20 63 tgl 15 0 empty empty empty 17 7 0 10 -262144 -1 -1 1 1
;
#X obj 20 114 f;
#X obj 45 114 f;
#X obj 70 114 f;
#X obj 95 114 f;
#X obj 120 114 f;
#X obj 145 114 f;
#X obj 170 114 f;
#X obj 195 114 f;
#X obj 20 16 inlet;
#X obj 20 162 outlet;
#X connect 0 0 1 0;
#X connect 1 0 11 0;
#X connect 1 1 12 0;
#X connect 1 2 13 0;
#X connect 1 3 14 0;
#X connect 1 4 15 0;
#X connect 1 5 16 0;
#X connect 1 6 17 0;
#X connect 1 7 18 0;
#X connect 2 0 20 0;
#X connect 3 0 12 1;
#X connect 4 0 13 1;
#X connect 5 0 14 1;
#X connect 6 0 15 1;
#X connect 7 0 16 1;
#X connect 8 0 17 1;
#X connect 9 0 18 1;
#X connect 10 0 11 1;
#X connect 11 0 2 0;
#X connect 12 0 2 0;
#X connect 13 0 2 0;
#X connect 14 0 2 0;
#X connect 15 0 2 0;
#X connect 16 0 2 0;
#X connect 17 0 2 0;
#X connect 18 0 2 0;
#X connect 19 0 0 0;
#X restore 550 403 pd step-list;
#X obj 138 429 tabplay~ perc1;
#X obj 345 429 tabplay~ perc2;
#X obj 550 429 tabplay~ perc3;
#X msg 139 208 read -resize \$1 perc1;
#X msg 345 208 read -resize \$1 perc2;
#X msg 551 208 read -resize \$1 perc3;
#X obj 176 329 line;
#X msg 275 301 stop;
#X obj 141 252 hsl 128 15 8 1 0 0 empty empty empty -2 -8 0 10 -262144
-1 -1 8346 1;
#X obj 176 274 sel 1;
#X floatatom 345 301 5 0 0 0 - - -;
#X obj 383 329 line;
#X msg 482 301 stop;
#X obj 348 252 hsl 128 15 8 1 0 0 empty empty empty -2 -8 0 10 -262144
-1 -1 2794 1;
#X obj 383 274 sel 1;
#X floatatom 550 300 5 0 0 0 - - -;
#X obj 588 328 line;
#X msg 687 300 stop;
#X obj 553 251 hsl 128 15 8 1 0 0 empty empty empty -2 -8 0 10 -262144
-1 -1 8241 1;
#X obj 588 273 sel 1;
#X msg 383 301 set 8 \, 1 3000;
#X msg 588 300 set 8 \, 1 4500;
#X msg 176 301 set 8 \, 1 2100;
#X connect 0 0 3 0;
#X connect 1 0 0 0;
#X connect 2 0 0 1;
#X connect 3 0 4 0;
#X connect 3 0 5 0;
#X connect 4 0 3 1;
#X connect 5 0 6 0;
#X connect 5 0 7 0;
#X connect 5 0 8 0;
#X connect 6 0 10 0;
#X connect 7 0 11 0;
#X connect 8 0 12 0;
#X connect 9 0 6 1;
#X connect 9 0 38 0;
#X connect 10 0 26 0;
#X connect 11 0 27 0;
#X connect 12 0 28 0;
#X connect 13 0 33 0;
#X connect 15 0 13 0;
#X connect 20 0 32 0;
#X connect 21 0 20 0;
#X connect 23 0 34 0;
#X connect 24 0 23 0;
#X connect 26 0 29 0;
#X connect 27 0 30 0;
#X connect 28 0 31 0;
#X connect 29 0 14 0;
#X connect 29 0 14 1;
#X connect 30 0 14 0;
#X connect 30 0 14 1;
#X connect 31 0 14 0;
#X connect 31 0 14 1;
#X connect 32 0 22 0;
#X connect 33 0 19 0;
#X connect 34 0 25 0;
#X connect 35 0 37 0;
#X connect 36 0 35 0;
#X connect 37 0 9 0;
#X connect 38 0 51 0;
#X connect 39 0 43 0;
#X connect 39 0 7 1;
#X connect 40 0 42 0;
#X connect 41 0 40 0;
#X connect 42 0 39 0;
#X connect 43 0 49 0;
#X connect 44 0 48 0;
#X connect 44 0 8 1;
#X connect 45 0 47 0;
#X connect 46 0 45 0;
#X connect 47 0 44 0;
#X connect 48 0 50 0;
#X connect 49 0 40 0;
#X connect 50 0 45 0;
#X connect 51 0 35 0;
