#N canvas 638 171 450 300 10;
#X obj 61 144 vline~;
#X floatatom 61 206 5 0 0 0 - - -;
#X obj 61 175 snapshot~;
#X obj 130 149 metro 100;
#X obj 130 123 tgl 15 0 empty empty empty 17 7 0 10 -262144 -1 -1 1
1;
#X msg 61 94 1 1000 \, 0.7 1000 1000 \, 0 1000 3000;
#X connect 0 0 2 0;
#X connect 2 0 1 0;
#X connect 3 0 2 0;
#X connect 4 0 3 0;
#X connect 5 0 0 0;
