#N canvas 251 2 1280 751 10;
#X declare -lib mrpeach;
#X obj 212 253 mod;
#X obj 419 253 mod;
#X obj 624 253 mod;
#X floatatom 227 197 5 0 0 0 - - -;
#X floatatom 212 279 5 0 0 0 - - -;
#X floatatom 419 279 5 0 0 0 - - -;
#X floatatom 624 279 5 0 0 0 - - -;
#N canvas 647 118 516 560 step-list 0;
#X obj 20 48 hradio 15 1 0 8 empty empty empty 0 -8 0 10 -262144 -1
-1 2;
#X obj 20 99 select 0 1 2 3 4 5 6 7;
#X obj 20 133 sel 1;
#X obj 35 65 tgl 15 1 empty empty empty 17 7 0 10 -262144 -1 -1 0 1
;
#X obj 50 65 tgl 15 1 empty empty empty 17 7 0 10 -262144 -1 -1 1 1
;
#X obj 65 65 tgl 15 1 empty empty empty 17 7 0 10 -262144 -1 -1 0 1
;
#X obj 80 65 tgl 15 1 empty empty empty 17 7 0 10 -262144 -1 -1 1 1
;
#X obj 95 65 tgl 15 1 empty empty empty 17 7 0 10 -262144 -1 -1 0 1
;
#X obj 110 65 tgl 15 1 empty empty empty 17 7 0 10 -262144 -1 -1 1
1;
#X obj 125 65 tgl 15 1 empty empty empty 17 7 0 10 -262144 -1 -1 0
1;
#X obj 20 65 tgl 15 1 empty empty empty 17 7 0 10 -262144 -1 -1 1 1
;
#X obj 20 116 f;
#X obj 45 116 f;
#X obj 70 116 f;
#X obj 95 116 f;
#X obj 120 116 f;
#X obj 145 116 f;
#X obj 170 116 f;
#X obj 195 116 f;
#X obj 20 18 inlet;
#X obj 20 164 outlet;
#X connect 0 0 1 0;
#X connect 1 0 11 0;
#X connect 1 1 12 0;
#X connect 1 2 13 0;
#X connect 1 3 14 0;
#X connect 1 4 15 0;
#X connect 1 5 16 0;
#X connect 1 6 17 0;
#X connect 1 7 18 0;
#X connect 2 0 20 0;
#X connect 3 0 12 1;
#X connect 4 0 13 1;
#X connect 5 0 14 1;
#X connect 6 0 15 1;
#X connect 7 0 16 1;
#X connect 8 0 17 1;
#X connect 9 0 18 1;
#X connect 10 0 11 1;
#X connect 11 0 2 0;
#X connect 12 0 2 0;
#X connect 13 0 2 0;
#X connect 14 0 2 0;
#X connect 15 0 2 0;
#X connect 16 0 2 0;
#X connect 17 0 2 0;
#X connect 18 0 2 0;
#X connect 19 0 0 0;
#X restore 212 304 pd step-list;
#N canvas 659 386 450 265 step-list 0;
#X obj 30 56 hradio 15 1 0 8 empty empty empty 0 -8 0 10 -262144 -1
-1 0;
#X obj 30 107 select 0 1 2 3 4 5 6 7;
#X obj 30 141 sel 1;
#X obj 45 73 tgl 15 1 empty empty empty 17 7 0 10 -262144 -1 -1 0 1
;
#X obj 60 73 tgl 15 1 empty empty empty 17 7 0 10 -262144 -1 -1 0 1
;
#X obj 75 73 tgl 15 1 empty empty empty 17 7 0 10 -262144 -1 -1 0 1
;
#X obj 90 73 tgl 15 1 empty empty empty 17 7 0 10 -262144 -1 -1 0 1
;
#X obj 105 73 tgl 15 1 empty empty empty 17 7 0 10 -262144 -1 -1 0
1;
#X obj 120 73 tgl 15 1 empty empty empty 17 7 0 10 -262144 -1 -1 0
1;
#X obj 135 73 tgl 15 1 empty empty empty 17 7 0 10 -262144 -1 -1 0
1;
#X obj 30 73 tgl 15 1 empty empty empty 17 7 0 10 -262144 -1 -1 1 1
;
#X obj 30 124 f;
#X obj 55 124 f;
#X obj 80 124 f;
#X obj 105 124 f;
#X obj 130 124 f;
#X obj 155 124 f;
#X obj 180 124 f;
#X obj 205 124 f;
#X obj 30 26 inlet;
#X obj 30 172 outlet;
#X connect 0 0 1 0;
#X connect 1 0 11 0;
#X connect 1 1 12 0;
#X connect 1 2 13 0;
#X connect 1 3 14 0;
#X connect 1 4 15 0;
#X connect 1 5 16 0;
#X connect 1 6 17 0;
#X connect 1 7 18 0;
#X connect 2 0 20 0;
#X connect 3 0 12 1;
#X connect 4 0 13 1;
#X connect 5 0 14 1;
#X connect 6 0 15 1;
#X connect 7 0 16 1;
#X connect 8 0 17 1;
#X connect 9 0 18 1;
#X connect 10 0 11 1;
#X connect 11 0 2 0;
#X connect 12 0 2 0;
#X connect 13 0 2 0;
#X connect 14 0 2 0;
#X connect 15 0 2 0;
#X connect 16 0 2 0;
#X connect 17 0 2 0;
#X connect 18 0 2 0;
#X connect 19 0 0 0;
#X restore 419 304 pd step-list;
#N canvas 659 386 450 265 step-list 0;
#X obj 20 46 hradio 15 1 0 8 empty empty empty 0 -8 0 10 -262144 -1
-1 2;
#X obj 20 97 select 0 1 2 3 4 5 6 7;
#X obj 20 131 sel 1;
#X obj 35 63 tgl 15 1 empty empty empty 17 7 0 10 -262144 -1 -1 0 1
;
#X obj 50 63 tgl 15 1 empty empty empty 17 7 0 10 -262144 -1 -1 0 1
;
#X obj 65 63 tgl 15 1 empty empty empty 17 7 0 10 -262144 -1 -1 1 1
;
#X obj 80 63 tgl 15 1 empty empty empty 17 7 0 10 -262144 -1 -1 1 1
;
#X obj 95 63 tgl 15 1 empty empty empty 17 7 0 10 -262144 -1 -1 0 1
;
#X obj 110 63 tgl 15 1 empty empty empty 17 7 0 10 -262144 -1 -1 1
1;
#X obj 125 63 tgl 15 1 empty empty empty 17 7 0 10 -262144 -1 -1 0
1;
#X obj 20 63 tgl 15 1 empty empty empty 17 7 0 10 -262144 -1 -1 1 1
;
#X obj 20 114 f;
#X obj 45 114 f;
#X obj 70 114 f;
#X obj 95 114 f;
#X obj 120 114 f;
#X obj 145 114 f;
#X obj 170 114 f;
#X obj 195 114 f;
#X obj 20 16 inlet;
#X obj 20 162 outlet;
#X connect 0 0 1 0;
#X connect 1 0 11 0;
#X connect 1 1 12 0;
#X connect 1 2 13 0;
#X connect 1 3 14 0;
#X connect 1 4 15 0;
#X connect 1 5 16 0;
#X connect 1 6 17 0;
#X connect 1 7 18 0;
#X connect 2 0 20 0;
#X connect 3 0 12 1;
#X connect 4 0 13 1;
#X connect 5 0 14 1;
#X connect 6 0 15 1;
#X connect 7 0 16 1;
#X connect 8 0 17 1;
#X connect 9 0 18 1;
#X connect 10 0 11 1;
#X connect 11 0 2 0;
#X connect 12 0 2 0;
#X connect 13 0 2 0;
#X connect 14 0 2 0;
#X connect 15 0 2 0;
#X connect 16 0 2 0;
#X connect 17 0 2 0;
#X connect 18 0 2 0;
#X connect 19 0 0 0;
#X restore 624 304 pd step-list;
#X obj 265 225 line;
#X msg 357 197 stop;
#X obj 230 94 hsl 128 15 8 1 0 0 empty empty empty -2 -8 0 10 -262144
-1 -1 2089 1;
#X obj 265 116 sel 1;
#X floatatom 434 197 5 0 0 0 - - -;
#X obj 472 225 line;
#X obj 437 94 hsl 128 15 8 1 0 0 empty empty empty -2 -8 0 10 -262144
-1 -1 11165 1;
#X obj 472 116 sel 1;
#X floatatom 639 197 5 0 0 0 - - -;
#X obj 677 225 line;
#X obj 642 93 hsl 128 15 8 1 0 0 empty empty empty -2 -8 0 10 -262144
-1 -1 2463 1;
#X obj 677 115 sel 1;
#X obj 212 225 r count;
#X obj 419 225 r count;
#X obj 624 225 r count;
#X obj 305 116 r start;
#X obj 357 116 r stop;
#X text 42 235 run/stop;
#X msg 565 197 stop;
#X obj 513 116 r start;
#X obj 565 116 r stop;
#X msg 769 197 stop;
#X obj 717 115 r start;
#X obj 769 115 r stop;
#X obj 716 358 / 100;
#X obj 716 330 random 100;
#X obj 716 386 s r1;
#X obj 512 356 s r2;
#X obj 857 105 r count;
#X obj 857 128 mod 32;
#X text 857 84 variance over time;
#X obj 857 173 sel 1;
#X floatatom 857 151 5 0 0 0 - - -;
#X obj 43 252 tgl 15 0 empty empty empty 17 7 0 10 -262144 -1 -1 0
1;
#X obj 298 137 r t1;
#X floatatom 298 157 5 0 0 0 - - -;
#X msg 265 197 set 8 \, 1 \$1;
#X obj 265 176 f 2000;
#X floatatom 505 157 5 0 0 0 - - -;
#X obj 505 137 r t2;
#X msg 472 197 set 8 \, 1 \$1;
#X obj 472 176 f 3000;
#X floatatom 710 156 5 0 0 0 - - -;
#X obj 710 136 r t3;
#X obj 677 175 f 5000;
#X msg 677 197 set 8 \, 1 \$1;
#X obj 857 198 random 8000;
#X obj 857 221 + 100;
#X obj 857 244 s t1;
#X obj 931 198 random 8000;
#X obj 931 221 + 100;
#X obj 1005 198 random 8000;
#X obj 1005 221 + 100;
#X obj 931 244 s t2;
#X obj 1005 244 s t3;
#X obj 112 252 nbx 5 14 1 1000 0 1 empty empty bpm 0 -8 0 10 -262144
-1 -1 120 256;
#N canvas 367 118 450 300 transport 0;
#X obj 111 131 float;
#X obj 161 130 + 1;
#X floatatom 111 160 5 0 0 0 - - -;
#X obj 111 189 s count;
#X obj 58 215 sel 1;
#X obj 110 215 sel 0;
#X obj 111 100 metro;
#X obj 58 44 inlet;
#X obj 138 44 inlet;
#X obj 58 242 outlet;
#X obj 110 242 outlet;
#X text 57 32 comment;
#X obj 162 189 s pulse;
#X obj 138 74 expr 15000 / $f1;
#X connect 0 0 1 0;
#X connect 0 0 2 0;
#X connect 1 0 0 1;
#X connect 2 0 3 0;
#X connect 4 0 9 0;
#X connect 5 0 10 0;
#X connect 6 0 0 0;
#X connect 6 0 12 0;
#X connect 7 0 4 0;
#X connect 7 0 5 0;
#X connect 7 0 6 0;
#X connect 8 0 13 0;
#X connect 13 0 6 1;
#X restore 43 275 pd transport;
#X obj 43 300 s start;
#X obj 112 300 s stop;
#X floatatom 548 356 5 0 0 0 - - -;
#X floatatom 748 386 5 0 0 0 - - -;
#X obj 305 358 / 100;
#X obj 305 330 random 100;
#X floatatom 337 386 5 0 0 0 - - -;
#X obj 305 386 s r3;
#X obj 512 330 random 20;
#X obj 305 411 random 2500;
#X obj 305 435 s r4;
#N canvas 423 110 450 300 osc-input 0;
#X obj 24 72 unpackOSC;
#X obj 24 43 udpreceive 9001;
#X obj 145 140 routeOSC /str;
#X obj 24 138 outlet;
#X obj 23 9 import mrpeach;
#X obj 24 109 routeOSC /play /beat;
#X connect 0 0 5 0;
#X connect 1 0 0 0;
#X connect 5 0 3 0;
#X connect 5 2 2 0;
#X restore 43 130 pd osc-input;
#X connect 0 0 4 0;
#X connect 1 0 5 0;
#X connect 2 0 6 0;
#X connect 3 0 0 1;
#X connect 3 0 13 0;
#X connect 4 0 7 0;
#X connect 5 0 8 0;
#X connect 6 0 9 0;
#X connect 7 0 72 0;
#X connect 7 0 76 0;
#X connect 8 0 75 0;
#X connect 9 0 35 0;
#X connect 10 0 12 0;
#X connect 11 0 10 0;
#X connect 12 0 3 0;
#X connect 13 0 47 0;
#X connect 14 0 17 0;
#X connect 14 0 1 1;
#X connect 15 0 16 0;
#X connect 16 0 14 0;
#X connect 17 0 51 0;
#X connect 18 0 21 0;
#X connect 18 0 2 1;
#X connect 19 0 20 0;
#X connect 20 0 18 0;
#X connect 21 0 54 0;
#X connect 22 0 0 0;
#X connect 23 0 1 0;
#X connect 24 0 2 0;
#X connect 25 0 47 0;
#X connect 26 0 11 0;
#X connect 28 0 15 0;
#X connect 29 0 51 0;
#X connect 30 0 28 0;
#X connect 31 0 19 0;
#X connect 32 0 54 0;
#X connect 33 0 31 0;
#X connect 34 0 36 0;
#X connect 34 0 70 0;
#X connect 35 0 34 0;
#X connect 38 0 39 0;
#X connect 39 0 42 0;
#X connect 41 0 56 0;
#X connect 41 0 59 0;
#X connect 41 0 61 0;
#X connect 42 0 41 0;
#X connect 43 0 66 0;
#X connect 44 0 45 0;
#X connect 45 0 47 1;
#X connect 46 0 10 0;
#X connect 47 0 46 0;
#X connect 48 0 51 1;
#X connect 49 0 48 0;
#X connect 50 0 15 0;
#X connect 51 0 50 0;
#X connect 52 0 54 1;
#X connect 53 0 52 0;
#X connect 54 0 55 0;
#X connect 55 0 19 0;
#X connect 56 0 57 0;
#X connect 57 0 58 0;
#X connect 59 0 60 0;
#X connect 60 0 63 0;
#X connect 61 0 62 0;
#X connect 62 0 64 0;
#X connect 65 0 66 1;
#X connect 66 0 67 0;
#X connect 66 1 68 0;
#X connect 71 0 73 0;
#X connect 71 0 74 0;
#X connect 72 0 71 0;
#X connect 75 0 37 0;
#X connect 75 0 69 0;
#X connect 76 0 77 0;
#X connect 78 0 43 0;
