#N canvas 664 144 751 537 10;
#X obj 29 73 adc~;
#X obj 29 199 +~;
#X obj 29 226 tabwrite~ loop;
#X obj 62 87 pack 0 5;
#X obj 62 112 line~;
#X obj 29 135 *~;
#X obj 62 42 tgl 15 0 empty empty empty 17 7 0 10 -262144 -1 -1 0 1
;
#X text 85 41 Record;
#X text 54 430 https://guitarextended.files.wordpress.com/2013/08/pd-looper.jpg
;
#X obj 80 168 r stop_looping;
#X obj 80 190 r new_cycle;
#X obj 80 146 r~ main_out;
#X obj 232 42 bng 15 250 50 0 empty empty empty 17 7 0 10 -262144 -1
-1;
#X text 254 41 Tempo;
#X connect 0 0 5 0;
#X connect 1 0 2 0;
#X connect 3 0 4 0;
#X connect 4 0 5 1;
#X connect 5 0 1 0;
#X connect 6 0 3 0;
#X connect 9 0 2 0;
#X connect 10 0 2 0;
#X connect 11 0 1 1;
