#N canvas 166 145 840 399 10;
#X obj 301 101 cnv 15 178 145 empty empty empty 20 12 0 14 -37913 -66577
0;
#X obj 311 161 cnv 15 50 75 empty empty empty 20 12 0 14 -35112 -66577
0;
#X obj 374 161 cnv 15 95 75 empty empty empty 20 12 0 14 -35112 -66577
0;
#X obj 311 111 cnv 15 158 40 empty empty empty 20 12 0 14 -35112 -66577
0;
#X obj 318 118 cnv 15 60 25 empty empty [metromidi~] 3 12 1 10 -257985
-66577 0;
#X obj 383 165 tgl 20 0 dsp NOTHING DSP 25 10 1 15 -80313 -257985 -1
0 61.0031;
#X obj 424 128 knob 15 15 60 200 0 0 kout kin empty 0 -8 0 10 -80313
-80313 -1 0 1;
#X obj 443 128 tgl 15 0 k_togout k_togin L 4 7 1 12 -4034 -1 -1 0 1
;
#X obj 386 129 nbx 3 15 60 200 0 0 nbxout nbxin BPM 0 -8 1 10 -30222
-262144 -1 60 256;
#X obj 319 166 bng 15 50 25 0 empty b0 empty 17 7 0 10 -1 -262144 -1
;
#X obj 319 184 vradio 15 1 0 2 vradio noooone empty 0 -8 0 10 -80313
-1 -1 0;
#X obj 339 168 vsl 15 61 0 1 0 0 level s_midi empty -10 -12 0 10 -30222
-262144 -1 4800 1;
#X obj 319 217 tgl 15 0 s_togout s_togin L 4 7 1 12 -24198 -24198 -1
0 1;
#X obj 383 188 tgl 20 0 onoff empty ON/OFF 25 10 1 15 -258113 -1 -1
0 61.0031;
#X obj 383 211 tgl 20 0 clock_out nooothinng CLOCK 25 10 1 15 -4034
-1 -1 0 1;
#X msg 73 36 \; pd dsp \$1;
#X obj 117 217 metro 100;
#X obj 117 237 cup;
#X obj 117 258 % 4;
#N canvas 10 22 481 267 metronome_samples 0;
#X obj 69 94 soundfiler;
#X obj 69 191 soundfiler;
#X text 65 14 Logic;
#X text 15 61 High;
#X text 14 163 Low;
#X obj 267 94 soundfiler;
#X obj 268 189 soundfiler;
#X text 266 13 Cubase;
#X obj 68 222 table metH-0;
#X obj 68 242 table metL-0;
#X obj 267 222 table metH-1;
#X obj 267 242 table metL-1;
#X obj 69 42 loadbang;
#X obj 69 137 loadbang;
#X msg 69 69 read -resize LogicH.wav metH-0;
#X msg 69 164 read -resize LogicL.wav metL-0;
#X obj 268 139 loadbang;
#X obj 267 42 loadbang;
#X msg 267 69 read -resize CubaseH.wav metH-1;
#X msg 268 164 read -resize CubaseL.wav metL-1;
#X text 14 226 Buffers;
#X connect 12 0 14 0;
#X connect 13 0 15 0;
#X connect 14 0 0 0;
#X connect 15 0 1 0;
#X connect 16 0 19 0;
#X connect 17 0 18 0;
#X connect 18 0 5 0;
#X connect 19 0 6 0;
#X restore 73 73 pd metronome_samples;
#N canvas 317 194 765 189 tabplay~ 0;
#X msg 88 66 set metH-\$1;
#X obj 89 89 tabplay~ metH-0;
#X obj 237 89 tabplay~ metL-0;
#X msg 237 66 set metL-\$1;
#X obj 36 46 inlet;
#X obj 186 46 inlet;
#X obj 237 0 inlet;
#X text 32 23 inlet 0;
#X text 183 24 inlet 1;
#X text 284 2 inlet 2;
#X obj 89 145 outlet~;
#X text 364 66 The 'set' message tells tabplay~ which table to read
from. It overrides the initial argument (which goes unseen). The '\$1'
is the variable that is supplied by the hradio.;
#X text 622 99 comment;
#X connect 0 0 1 0;
#X connect 1 0 10 0;
#X connect 2 0 10 0;
#X connect 3 0 2 0;
#X connect 4 0 1 0;
#X connect 5 0 2 0;
#X connect 6 0 3 0;
#X connect 6 0 0 0;
#X restore 117 299 pd tabplay~;
#X obj 117 194 r onoff;
#N canvas 543 231 72 102 bangs 0;
#X obj 12 27 inlet;
#X obj 12 59 s b0;
#X connect 0 0 1 0;
#X restore 180 256 pd bangs;
#X obj 117 343 *~;
#X obj 132 321 r level;
#X obj 117 371 dac~;
#X obj 168 196 expr 60000 / $f1;
#X obj 117 278 sel;
#X obj 73 14 r dsp;
#N canvas 524 77 453 332 learn_slider 0;
#X obj 10 219 outlet;
#X obj 10 -71 ctlin;
#X obj 10 53 t f f;
#X obj 10 76 spigot;
#X obj 10 31 expr if($f3==$f2 \, ($f1/127) \, 0) \;;
#X obj 23 119 sel 0 1;
#X msg 23 142 0;
#X msg 55 142 1;
#X obj 10 164 spigot;
#X obj 23 98 > 0.03;
#X obj 29 191 ii 0.8;
#X obj 199 -20 spigot;
#X obj 199 3 t f b;
#X msg 226 24 0;
#X msg 357 25 color 13 13 0;
#X msg 259 25 color 16 16 22;
#X obj 259 5 sel;
#X obj 232 -51 t f f;
#X obj 233 -72 r s_togout;
#X obj 259 63 s s_togin;
#X connect 1 0 4 0;
#X connect 1 1 4 1;
#X connect 1 1 11 0;
#X connect 2 0 3 0;
#X connect 2 1 3 1;
#X connect 3 0 8 0;
#X connect 3 0 9 0;
#X connect 4 0 2 0;
#X connect 5 0 6 0;
#X connect 5 1 7 0;
#X connect 6 0 8 1;
#X connect 6 0 0 0;
#X connect 7 0 8 1;
#X connect 8 0 0 0;
#X connect 9 0 5 0;
#X connect 10 0 0 0;
#X connect 11 0 12 0;
#X connect 12 0 4 2;
#X connect 12 1 13 0;
#X connect 13 0 19 0;
#X connect 14 0 19 0;
#X connect 15 0 19 0;
#X connect 16 0 15 0;
#X connect 16 1 14 0;
#X connect 17 0 11 1;
#X connect 17 1 16 0;
#X connect 18 0 17 0;
#X restore 375 45 pd learn_slider;
#X obj 375 67 s s_midi;
#N canvas 212 419 309 187 control_input 0;
#X obj 57 12 r kout;
#X obj 114 13 r nbxout;
#X obj 114 85 s kin;
#X obj 57 85 s nbxin;
#X msg 57 63 set \$1;
#X obj 57 33 i;
#X msg 114 61 set \$1;
#X floatatom 198 98 5 60 200 0 - - -;
#X floatatom 178 37 5 0 0 0 - - -;
#X obj 178 13 ii 60;
#X obj 198 77 inc_dec3;
#X obj 220 31 pgmin;
#X obj 220 55 sel 9 8;
#X obj -3 12 r k_midi;
#X obj 198 128 outlet;
#X connect 0 0 5 0;
#X connect 1 0 6 0;
#X connect 1 0 8 0;
#X connect 4 0 3 0;
#X connect 5 0 4 0;
#X connect 5 0 8 0;
#X connect 6 0 2 0;
#X connect 7 0 6 0;
#X connect 7 0 4 0;
#X connect 7 0 14 0;
#X connect 8 0 10 0;
#X connect 9 0 8 0;
#X connect 10 0 7 0;
#X connect 11 0 12 0;
#X connect 12 0 10 1;
#X connect 12 1 10 2;
#X connect 13 0 3 0;
#X restore 168 99 pd control_input;
#X obj 180 278 r vradio;
#N canvas 421 389 280 204 midi_clock 0;
#X obj 9 176 midiout;
#X text 9 -1 1:start \, 0:stop;
#X obj 126 62 expr 60000 / (24 * $f1);
#X obj 126 40 inlet;
#X obj 9 55 t f f;
#X msg 9 113 250;
#X msg 44 114 252;
#X msg 81 114 248;
#X obj 9 26 inlet;
#X obj 9 142 f;
#X obj 9 84 sel 1;
#X text 126 13 BPM;
#X obj 81 85 metro 25;
#X floatatom 83 54 5 0 0 0 - - -;
#X connect 2 0 12 1;
#X connect 3 0 13 0;
#X connect 4 0 12 0;
#X connect 4 1 10 0;
#X connect 5 0 9 0;
#X connect 6 0 9 0;
#X connect 7 0 9 0;
#X connect 8 0 4 0;
#X connect 9 0 0 0;
#X connect 10 0 5 0;
#X connect 10 1 6 0;
#X connect 12 0 7 0;
#X connect 13 0 2 0;
#X restore 76 164 pd midi_clock;
#X obj 76 142 r clock_out;
#X floatatom 194 139 5 0 0 0 - - -;
#N canvas 294 79 513 257 learn_knob 0;
#X obj 10 194 outlet;
#X obj 10 -31 ctlin;
#X obj 10 123 t f f;
#X obj 10 146 spigot;
#X obj 10 102 i;
#X obj 253 35 spigot;
#X obj 253 58 t f b;
#X msg 280 79 0;
#X obj 287 -17 r k_togout;
#X obj 313 118 s k_togin;
#X msg 411 80 color 13 13 0;
#X msg 313 80 color 16 16 22;
#X obj 313 60 sel;
#X obj 286 4 t f f;
#X obj 10 81 expr if($f3==$f2 \, (140./127.)*$f1+60 \, 0) \;;
#X connect 1 0 14 0;
#X connect 1 1 5 0;
#X connect 1 1 14 1;
#X connect 2 0 3 0;
#X connect 2 1 3 1;
#X connect 3 0 0 0;
#X connect 4 0 2 0;
#X connect 5 0 6 0;
#X connect 6 0 14 2;
#X connect 6 1 7 0;
#X connect 7 0 9 0;
#X connect 8 0 13 0;
#X connect 10 0 9 0;
#X connect 11 0 9 0;
#X connect 12 0 11 0;
#X connect 12 1 10 0;
#X connect 13 0 5 1;
#X connect 13 1 12 0;
#X connect 14 0 4 0;
#X restore 286 45 pd learn_knob;
#X obj 286 67 s k_midi;
#X connect 16 0 17 0;
#X connect 17 0 18 0;
#X connect 18 0 22 0;
#X connect 18 0 27 0;
#X connect 20 0 23 0;
#X connect 21 0 16 0;
#X connect 23 0 25 0;
#X connect 23 0 25 1;
#X connect 24 0 23 1;
#X connect 26 0 16 1;
#X connect 27 0 20 0;
#X connect 27 1 20 1;
#X connect 28 0 15 0;
#X connect 29 0 30 0;
#X connect 31 0 26 0;
#X connect 31 0 33 1;
#X connect 31 0 35 0;
#X connect 32 0 20 2;
#X connect 34 0 33 0;
#X connect 36 0 37 0;
#X coords 0 -1 1 1 180 147 1 300 100;
