#N canvas 562 75 711 588 10;
#X obj 44 272 dac~;
#X obj 79 273 tabwrite~ output;
#X obj 79 221 tgl 15 0 empty empty empty 17 7 0 10 -262144 -1 -1 1
1;
#N canvas 0 22 450 278 (subpatch) 0;
#X array output 100 float 3;
#A 0 1 1 1 1 1 1 1 1 1 1 1 1 1 0 0 0 0 0 0 0 0 0 0 0 0 0 0 0 0 0 0
0 0 0 0 0 0 0 0 0 0 0 0 0 0 0 0 0 0 0 0 0 0 0 0 0 0 0 0 0 0 0 0 0 0
0 0 0 0 0 0 0 0 0 0 0 0 0 0 0 0 0 0 0 0 0 0 0 0 0 0 0 0 0 0 0 0 0 0
0;
#X coords 0 1 99 -1 200 140 1;
#X restore 196 149 graph;
#X obj 79 246 metro 100;
#X obj 191 -53 mtof;
#X obj 191 -29 phasor~;
#X obj 191 -4 expr~ $v1 > 0.5;
#X obj 194 -77 hsl 128 15 0 127 0 0 empty empty empty -2 -8 0 10 -262144
-1 -1 7600 1;
#X text 188 -99 Square wave oscillator;
#X obj 43 62 expr~ $v1 && $v2;
#X obj 42 -53 mtof;
#X obj 42 -29 phasor~;
#X obj 42 -4 expr~ $v1 > 0.5;
#X obj 45 -77 hsl 128 15 0 127 0 0 empty empty empty -2 -8 0 10 -262144
-1 -1 5300 1;
#X text 39 -99 Square wave oscillator;
#X obj 63 118 phasor~;
#X obj 63 145 expr~ $v1 > 0.5;
#X floatatom 63 92 5 0 0 0 - - -;
#X obj 44 193 expr~ $v1 || $v2;
#X connect 2 0 4 0;
#X connect 4 0 1 0;
#X connect 5 0 6 0;
#X connect 6 0 7 0;
#X connect 7 0 10 1;
#X connect 8 0 5 0;
#X connect 10 0 19 0;
#X connect 11 0 12 0;
#X connect 12 0 13 0;
#X connect 13 0 10 0;
#X connect 14 0 11 0;
#X connect 16 0 17 0;
#X connect 17 0 19 1;
#X connect 18 0 16 0;
#X connect 19 0 0 0;
#X connect 19 0 0 1;
#X connect 19 0 1 0;
