#N canvas 650 137 450 300 10;
#X declare -lib mrpeach;
#X obj 201 114 unpackOSC;
#X obj 201 85 udpreceive 9001;
#X obj 15 21 import mrpeach;
#X msg 13 84 connect localhost 9001;
#X obj 38 168 packOSC;
#X obj 13 198 udpsend;
#X msg 40 110 disconnect;
#X msg 38 140 send /hello world;
#X obj 319 194 print;
#X obj 201 141 routeOSC /play /stop /beat/str;
#X obj 155 229 makefilename;
#X connect 0 0 9 0;
#X connect 0 0 8 0;
#X connect 1 0 0 0;
#X connect 3 0 5 0;
#X connect 4 0 5 0;
#X connect 6 0 5 0;
#X connect 7 0 4 0;
