#N canvas 545 136 450 300 10;
#X declare -lib mrpeach;
#X obj 261 142 unpackOSC;
#X obj 261 168 print;
#X obj 261 113 udpreceive 9001;
#X obj 49 36 import mrpeach;
#X msg 20 118 connect localhost 9001;
#X obj 45 223 packOSC;
#X obj 20 253 udpsend;
#X msg 47 144 disconnect;
#X msg 45 195 send /hello world;
#X connect 0 0 1 0;
#X connect 2 0 0 0;
#X connect 4 0 6 0;
#X connect 5 0 6 0;
#X connect 7 0 6 0;
#X connect 8 0 5 0;
