#N canvas 0 22 955 542 10;
#X declare -lib mrpeach;
#X floatatom 12 204 5 0 100 0 - - -;
#X floatatom 48 204 5 0 0 0 - - -;
#X floatatom 84 204 5 0 0 0 - - -;
#X floatatom 120 204 5 0 0 0 - - -;
#X floatatom 155 204 5 0 0 0 - - -;
#X floatatom 192 204 5 0 0 0 - - -;
#X floatatom 227 204 5 0 0 0 - - -;
#X floatatom 263 204 5 0 0 0 - - -;
#X floatatom 299 204 5 0 0 0 - - -;
#X floatatom 335 204 5 0 0 0 - - -;
#X floatatom 372 204 5 0 0 0 - - -;
#X floatatom 408 204 5 0 0 0 - - -;
#X floatatom 444 204 5 0 0 0 - - -;
#X floatatom 480 204 5 0 0 0 - - -;
#X floatatom 516 204 5 0 0 0 - - -;
#X floatatom 552 204 5 0 0 0 - - -;
#X text 6 36 run/stop;
#X obj 7 53 tgl 15 0 empty empty empty 17 7 0 10 -262144 -1 -1 0 1
;
#X obj 76 53 nbx 5 14 1 1000 0 1 empty empty bpm 0 -8 0 10 -262144
-1 -1 61 256;
#N canvas 367 118 450 300 transport 0;
#X obj 111 131 float;
#X obj 161 130 + 1;
#X floatatom 111 160 5 0 0 0 - - -;
#X obj 111 189 s count;
#X obj 58 215 sel 1;
#X obj 110 215 sel 0;
#X obj 111 100 metro;
#X obj 58 44 inlet;
#X obj 138 44 inlet;
#X obj 58 242 outlet;
#X obj 110 242 outlet;
#X text 57 32 comment;
#X obj 162 189 s pulse;
#X obj 138 74 expr 15000 / $f1;
#X connect 0 0 1 0;
#X connect 0 0 2 0;
#X connect 1 0 0 1;
#X connect 2 0 3 0;
#X connect 4 0 9 0;
#X connect 5 0 10 0;
#X connect 6 0 0 0;
#X connect 6 0 12 0;
#X connect 7 0 4 0;
#X connect 7 0 5 0;
#X connect 7 0 6 0;
#X connect 8 0 13 0;
#X connect 13 0 6 1;
#X restore 7 73 pd transport;
#X obj 7 95 s start;
#X obj 76 95 s stop;
#N canvas 423 110 450 300 osc-input 0;
#X obj 24 72 unpackOSC;
#X obj 24 43 udpreceive 9001;
#X obj 145 140 routeOSC /str;
#X obj 24 138 outlet;
#X obj 23 9 import mrpeach;
#X obj 24 109 routeOSC /play /beat;
#X connect 0 0 5 0;
#X connect 1 0 0 0;
#X connect 5 0 3 0;
#X connect 5 2 2 0;
#X restore 7 15 pd osc-input;
#X obj 7 123 r count;
#X obj 7 146 mod 16;
#X obj 7 168 hradio 36 1 0 16 empty empty empty 0 -8 0 10 -262144 -1
-1 3;
#X obj 7 220 select 0 1 2 3 4 5 6 7 8 9 10 11 12 13 14 15;
#N canvas 293 388 450 300 t 0;
#X obj 8 85 random 100;
#X obj 8 62 inlet;
#X obj 89 62 inlet;
#X obj 8 152 outlet;
#X obj 8 130 sel 1;
#X obj 8 107 expr $i1 < $i2;
#X connect 0 0 5 0;
#X connect 1 0 0 0;
#X connect 2 0 5 1;
#X connect 4 0 3 0;
#X connect 5 0 4 0;
#X restore 7 237 pd t;
#N canvas 148 206 450 300 t 0;
#X obj 28 105 random 100;
#X obj 28 82 inlet;
#X obj 109 82 inlet;
#X obj 28 172 outlet;
#X obj 28 150 sel 1;
#X obj 28 127 expr $i1 < $i2;
#X connect 0 0 5 0;
#X connect 1 0 0 0;
#X connect 2 0 5 1;
#X connect 4 0 3 0;
#X connect 5 0 4 0;
#X restore 44 237 pd t;
#N canvas 293 388 450 300 t 0;
#X obj 38 115 random 100;
#X obj 38 92 inlet;
#X obj 119 92 inlet;
#X obj 38 182 outlet;
#X obj 38 160 sel 1;
#X obj 38 137 expr $i1 < $i2;
#X connect 0 0 5 0;
#X connect 1 0 0 0;
#X connect 2 0 5 1;
#X connect 4 0 3 0;
#X connect 5 0 4 0;
#X restore 82 237 pd t;
#N canvas 293 388 450 300 t 0;
#X obj 16 32 random 100;
#X obj 16 9 inlet;
#X obj 97 9 inlet;
#X obj 16 99 outlet;
#X obj 16 77 sel 1;
#X obj 16 54 expr $i1 < $i2;
#X connect 0 0 5 0;
#X connect 1 0 0 0;
#X connect 2 0 5 1;
#X connect 4 0 3 0;
#X connect 5 0 4 0;
#X restore 118 237 pd t;
#N canvas 290 417 450 300 t 0;
#X obj 38 115 random 100;
#X obj 38 92 inlet;
#X obj 119 92 inlet;
#X obj 38 182 outlet;
#X obj 38 160 sel 1;
#X obj 38 137 expr $i1 < $i2;
#X connect 0 0 5 0;
#X connect 1 0 0 0;
#X connect 2 0 5 1;
#X connect 4 0 3 0;
#X connect 5 0 4 0;
#X restore 154 237 pd t;
#N canvas 293 388 450 300 t 0;
#X obj 48 125 random 100;
#X obj 48 102 inlet;
#X obj 129 102 inlet;
#X obj 48 192 outlet;
#X obj 48 170 sel 1;
#X obj 48 147 expr $i1 < $i2;
#X connect 0 0 5 0;
#X connect 1 0 0 0;
#X connect 2 0 5 1;
#X connect 4 0 3 0;
#X connect 5 0 4 0;
#X restore 189 237 pd t;
#N canvas 293 388 450 300 t 0;
#X obj 58 135 random 100;
#X obj 58 112 inlet;
#X obj 139 112 inlet;
#X obj 58 202 outlet;
#X obj 58 180 sel 1;
#X obj 58 157 expr $i1 < $i2;
#X connect 0 0 5 0;
#X connect 1 0 0 0;
#X connect 2 0 5 1;
#X connect 4 0 3 0;
#X connect 5 0 4 0;
#X restore 224 237 pd t;
#N canvas 455 195 450 300 t 0;
#X obj 68 145 random 100;
#X obj 68 122 inlet;
#X obj 149 122 inlet;
#X obj 68 212 outlet;
#X obj 68 190 sel 1;
#X obj 68 167 expr $i1 < $i2;
#X connect 0 0 5 0;
#X connect 1 0 0 0;
#X connect 2 0 5 1;
#X connect 4 0 3 0;
#X connect 5 0 4 0;
#X restore 260 237 pd t;
#N canvas 293 388 450 300 t 0;
#X obj 78 155 random 100;
#X obj 78 132 inlet;
#X obj 159 132 inlet;
#X obj 78 222 outlet;
#X obj 78 200 sel 1;
#X obj 78 177 expr $i1 < $i2;
#X connect 0 0 5 0;
#X connect 1 0 0 0;
#X connect 2 0 5 1;
#X connect 4 0 3 0;
#X connect 5 0 4 0;
#X restore 298 237 pd t;
#N canvas 293 388 450 300 t 0;
#X obj 22 76 random 100;
#X obj 22 53 inlet;
#X obj 103 53 inlet;
#X obj 22 143 outlet;
#X obj 22 121 sel 1;
#X obj 22 98 expr $i1 < $i2;
#X connect 0 0 5 0;
#X connect 1 0 0 0;
#X connect 2 0 5 1;
#X connect 4 0 3 0;
#X connect 5 0 4 0;
#X restore 335 237 pd t;
#N canvas 293 388 450 300 t 0;
#X obj 8 47 random 100;
#X obj 8 24 inlet;
#X obj 89 24 inlet;
#X obj 8 114 outlet;
#X obj 8 92 sel 1;
#X obj 8 69 expr $i1 < $i2;
#X connect 0 0 5 0;
#X connect 1 0 0 0;
#X connect 2 0 5 1;
#X connect 4 0 3 0;
#X connect 5 0 4 0;
#X restore 370 237 pd t;
#N canvas 293 388 450 300 t 0;
#X obj 15 47 random 100;
#X obj 15 24 inlet;
#X obj 96 24 inlet;
#X obj 15 114 outlet;
#X obj 15 92 sel 1;
#X obj 15 69 expr $i1 < $i2;
#X connect 0 0 5 0;
#X connect 1 0 0 0;
#X connect 2 0 5 1;
#X connect 4 0 3 0;
#X connect 5 0 4 0;
#X restore 405 237 pd t;
#N canvas 293 388 450 300 t 0;
#X obj 15 58 random 100;
#X obj 15 35 inlet;
#X obj 96 35 inlet;
#X obj 15 125 outlet;
#X obj 15 103 sel 1;
#X obj 15 80 expr $i1 < $i2;
#X connect 0 0 5 0;
#X connect 1 0 0 0;
#X connect 2 0 5 1;
#X connect 4 0 3 0;
#X connect 5 0 4 0;
#X restore 442 237 pd t;
#N canvas 293 388 450 300 t 0;
#X obj 9 42 random 100;
#X obj 9 19 inlet;
#X obj 90 19 inlet;
#X obj 9 109 outlet;
#X obj 9 87 sel 1;
#X obj 9 64 expr $i1 < $i2;
#X connect 0 0 5 0;
#X connect 1 0 0 0;
#X connect 2 0 5 1;
#X connect 4 0 3 0;
#X connect 5 0 4 0;
#X restore 478 237 pd t;
#N canvas 293 388 450 300 t 0;
#X obj -497 49 random 100;
#X obj -497 26 inlet;
#X obj -416 26 inlet;
#X obj -497 116 outlet;
#X obj -497 94 sel 1;
#X obj -497 71 expr $i1 < $i2;
#X connect 0 0 5 0;
#X connect 1 0 0 0;
#X connect 2 0 5 1;
#X connect 4 0 3 0;
#X connect 5 0 4 0;
#X restore 515 237 pd t;
#N canvas 293 388 450 300 t 0;
#X obj 16 52 random 100;
#X obj 16 29 inlet;
#X obj 97 29 inlet;
#X obj 16 119 outlet;
#X obj 16 97 sel 1;
#X obj 16 74 expr $i1 < $i2;
#X connect 0 0 5 0;
#X connect 1 0 0 0;
#X connect 2 0 5 1;
#X connect 4 0 3 0;
#X connect 5 0 4 0;
#X restore 550 237 pd t;
#X obj 7 259 bng 15 250 50 0 empty empty empty 17 7 0 10 -262144 -1
-1;
#X obj 44 259 bng 15 250 50 0 empty empty empty 17 7 0 10 -262144 -1
-1;
#X obj 82 259 bng 15 250 50 0 empty empty empty 17 7 0 10 -262144 -1
-1;
#X obj 118 259 bng 15 250 50 0 empty empty empty 17 7 0 10 -262144
-1 -1;
#X obj 154 259 bng 15 250 50 0 empty empty empty 17 7 0 10 -262144
-1 -1;
#X obj 189 259 bng 15 250 50 0 empty empty empty 17 7 0 10 -262144
-1 -1;
#X obj 224 259 bng 15 250 50 0 empty empty empty 17 7 0 10 -262144
-1 -1;
#X obj 260 259 bng 15 250 50 0 empty empty empty 17 7 0 10 -262144
-1 -1;
#X obj 298 259 bng 15 250 50 0 empty empty empty 17 7 0 10 -262144
-1 -1;
#X obj 335 259 bng 15 250 50 0 empty empty empty 17 7 0 10 -262144
-1 -1;
#X obj 370 259 bng 15 250 50 0 empty empty empty 17 7 0 10 -262144
-1 -1;
#X obj 405 259 bng 15 250 50 0 empty empty empty 17 7 0 10 -262144
-1 -1;
#X obj 442 259 bng 15 250 50 0 empty empty empty 17 7 0 10 -262144
-1 -1;
#X obj 478 259 bng 15 250 50 0 empty empty empty 17 7 0 10 -262144
-1 -1;
#X obj 515 259 bng 15 250 50 0 empty empty empty 17 7 0 10 -262144
-1 -1;
#X obj 550 259 bng 15 250 50 0 empty empty empty 17 7 0 10 -262144
-1 -1;
#X text 591 205 trigger probability;
#X connect 0 0 27 1;
#X connect 1 0 28 1;
#X connect 2 0 29 1;
#X connect 3 0 30 1;
#X connect 4 0 31 1;
#X connect 5 0 32 1;
#X connect 6 0 33 1;
#X connect 7 0 34 1;
#X connect 8 0 35 1;
#X connect 9 0 36 1;
#X connect 10 0 37 1;
#X connect 11 0 38 1;
#X connect 12 0 39 1;
#X connect 13 0 40 1;
#X connect 14 0 41 1;
#X connect 15 0 42 1;
#X connect 17 0 19 0;
#X connect 18 0 19 1;
#X connect 19 0 20 0;
#X connect 19 1 21 0;
#X connect 22 0 17 0;
#X connect 23 0 24 0;
#X connect 24 0 25 0;
#X connect 25 0 26 0;
#X connect 26 0 27 0;
#X connect 26 1 28 0;
#X connect 26 2 29 0;
#X connect 26 3 30 0;
#X connect 26 4 31 0;
#X connect 26 5 32 0;
#X connect 26 6 33 0;
#X connect 26 7 34 0;
#X connect 26 8 35 0;
#X connect 26 9 36 0;
#X connect 26 10 37 0;
#X connect 26 11 38 0;
#X connect 26 12 39 0;
#X connect 26 13 40 0;
#X connect 26 14 41 0;
#X connect 26 15 42 0;
#X connect 27 0 43 0;
#X connect 28 0 44 0;
#X connect 29 0 45 0;
#X connect 30 0 46 0;
#X connect 31 0 47 0;
#X connect 32 0 48 0;
#X connect 33 0 49 0;
#X connect 34 0 50 0;
#X connect 35 0 51 0;
#X connect 36 0 52 0;
#X connect 37 0 53 0;
#X connect 38 0 54 0;
#X connect 39 0 55 0;
#X connect 40 0 56 0;
#X connect 41 0 57 0;
#X connect 42 0 58 0;
