#N canvas 1598 2 430 411 10;
#X declare -lib mrpeach;
#X text 6 36 run/stop;
#X obj 7 53 tgl 15 0 empty empty empty 17 7 0 10 -262144 -1 -1 0 1
;
#X obj 76 53 nbx 5 14 1 1000 0 1 empty empty bpm 0 -8 0 10 -262144
-1 -1 112 256;
#N canvas 409 134 450 300 transport 0;
#X obj 111 131 float;
#X obj 161 130 + 1;
#X floatatom 111 152 5 0 0 0 - - -;
#X obj 111 189 s count;
#X obj 58 215 sel 1;
#X obj 110 215 sel 0;
#X obj 111 100 metro;
#X obj 58 44 inlet;
#X obj 138 44 inlet;
#X obj 58 242 outlet;
#X obj 110 242 outlet;
#X text 57 32 comment;
#X obj 138 74 expr 15000 / $f1;
#X obj 246 192 s count_x4;
#X obj 246 107 metro;
#X obj 246 130 float;
#X obj 296 129 + 1;
#X obj 273 74 expr 3750 / $f1;
#X floatatom 246 151 5 0 0 0 - - -;
#X floatatom 151 215 5 0 0 0 - - -;
#X connect 0 0 1 0;
#X connect 0 0 2 0;
#X connect 1 0 0 1;
#X connect 2 0 3 0;
#X connect 4 0 9 0;
#X connect 5 0 10 0;
#X connect 5 0 19 0;
#X connect 6 0 0 0;
#X connect 7 0 4 0;
#X connect 7 0 5 0;
#X connect 7 0 6 0;
#X connect 7 0 14 0;
#X connect 8 0 12 0;
#X connect 8 0 17 0;
#X connect 12 0 6 1;
#X connect 14 0 15 0;
#X connect 15 0 16 0;
#X connect 15 0 18 0;
#X connect 16 0 15 1;
#X connect 17 0 14 1;
#X connect 18 0 13 0;
#X connect 19 0 0 1;
#X connect 19 0 15 1;
#X restore 7 73 pd transport;
#X obj 7 95 s start;
#X obj 76 95 s stop;
#N canvas 423 110 450 300 osc-input 0;
#X obj 24 72 unpackOSC;
#X obj 24 43 udpreceive 9001;
#X obj 145 140 routeOSC /str;
#X obj 24 138 outlet;
#X obj 23 9 import mrpeach;
#X obj 24 109 routeOSC /play /beat;
#X connect 0 0 5 0;
#X connect 1 0 0 0;
#X connect 5 0 3 0;
#X connect 5 2 2 0;
#X restore 7 15 pd osc-input;
#N canvas 2147 407 450 300 clear_automation 0;
#X msg -338 55 \; cc1 const 0 \;;
#X obj -338 23 inlet;
#X msg -253 55 \; cc2 const 0 \;;
#X msg -167 55 \; cc3 const 0 \;;
#X connect 1 0 0 0;
#X connect 1 0 2 0;
#X connect 1 0 3 0;
#X restore 152 95 pd clear_automation;
#X obj 152 78 bng 15 250 50 0 empty empty empty 17 7 0 10 -262144 -1
-1;
#N canvas 2038 3 843 450 track_1 1;
#X floatatom 16 80 5 0 100 0 - - -;
#X floatatom 52 80 5 0 0 0 - - -;
#X floatatom 88 80 5 0 0 0 - - -;
#X floatatom 124 80 5 0 0 0 - - -;
#X floatatom 159 80 5 0 0 0 - - -;
#X floatatom 196 80 5 0 0 0 - - -;
#X floatatom 231 80 5 0 0 0 - - -;
#X floatatom 267 80 5 0 0 0 - - -;
#X floatatom 303 80 5 0 0 0 - - -;
#X floatatom 339 80 5 0 0 0 - - -;
#X floatatom 376 80 5 0 0 0 - - -;
#X floatatom 412 80 5 0 0 0 - - -;
#X floatatom 448 80 5 0 0 0 - - -;
#X floatatom 484 80 5 0 0 0 - - -;
#X floatatom 520 80 5 0 0 0 - - -;
#X floatatom 556 80 5 0 0 0 - - -;
#X obj 11 5 r count;
#X obj 11 22 mod 16;
#X obj 11 44 hradio 36 1 0 16 empty empty empty 0 -8 0 10 -262144 -1
-1 0;
#X obj 11 96 select 0 1 2 3 4 5 6 7 8 9 10 11 12 13 14 15;
#X obj 11 135 bng 15 250 50 0 empty empty empty 17 7 0 10 -262144 -1
-1;
#X obj 48 135 bng 15 250 50 0 empty empty empty 17 7 0 10 -262144 -1
-1;
#X obj 86 135 bng 15 250 50 0 empty empty empty 17 7 0 10 -262144 -1
-1;
#X obj 122 135 bng 15 250 50 0 empty empty empty 17 7 0 10 -262144
-1 -1;
#X obj 158 135 bng 15 250 50 0 empty empty empty 17 7 0 10 -262144
-1 -1;
#X obj 193 135 bng 15 250 50 0 empty empty empty 17 7 0 10 -262144
-1 -1;
#X obj 228 135 bng 15 250 50 0 empty empty empty 17 7 0 10 -262144
-1 -1;
#X obj 264 135 bng 15 250 50 0 empty empty empty 17 7 0 10 -262144
-1 -1;
#X obj 302 135 bng 15 250 50 0 empty empty empty 17 7 0 10 -262144
-1 -1;
#X obj 339 135 bng 15 250 50 0 empty empty empty 17 7 0 10 -262144
-1 -1;
#X obj 374 135 bng 15 250 50 0 empty empty empty 17 7 0 10 -262144
-1 -1;
#X obj 409 135 bng 15 250 50 0 empty empty empty 17 7 0 10 -262144
-1 -1;
#X obj 446 135 bng 15 250 50 0 empty empty empty 17 7 0 10 -262144
-1 -1;
#X obj 482 135 bng 15 250 50 0 empty empty empty 17 7 0 10 -262144
-1 -1;
#X obj 519 135 bng 15 250 50 0 empty empty empty 17 7 0 10 -262144
-1 -1;
#X obj 554 135 bng 15 250 50 0 empty empty empty 17 7 0 10 -262144
-1 -1;
#X text 595 81 trigger probability;
#X obj 11 113 trg;
#X obj 48 113 trg;
#X obj 86 113 trg;
#X obj 122 113 trg;
#X obj 158 113 trg;
#X obj 193 113 trg;
#X obj 228 113 trg;
#X obj 264 113 trg;
#X obj 302 113 trg;
#X obj 339 113 trg;
#X obj 374 113 trg;
#X obj 409 113 trg;
#X obj 446 113 trg;
#X obj 482 113 trg;
#X obj 519 113 trg;
#X obj 554 113 trg;
#N canvas 0 0 450 300 (subpatch) 0;
#X array cc1 64 float 1;
#A 0 0 0 0 0 0 0 0 0 0 0 0 0 0 0 0 0 0 0 0 0 0 0 0 0 0 0 0 0 0 0 0
0 0 0 0 0 0 0 0 0 0 0 0 0 0 0 0 0 0 0 0 0 0 0 0 0 0 0 0 0 0 0 0 0;
#X coords 0 127 63 0 576 70 1 0 0;
#X restore 12 171 graph;
#X obj 593 188 mod 64;
#X obj 593 171 r count_x4;
#X obj 593 205 tabread cc1;
#X floatatom 593 225 5 0 0 0 - - -;
#N canvas 0 0 450 300 (subpatch) 0;
#X array cc2 64 float 1;
#A 0 0 0 0 0 0 0 0 0 0 0 0 0 0 0 0 0 0 0 0 0 0 0 0 0 0 0 0 0 0 0 0
0 0 0 0 0 0 0 0 0 0 0 0 0 0 0 0 0 0 0 0 0 0 0 0 0 0 0 0 0 0 0 0 0;
#X coords 0 127 63 0 576 70 1 0 0;
#X restore 12 260 graph;
#N canvas 0 0 450 300 (subpatch) 0;
#X array cc3 64 float 1;
#A 0 0 0 0 0 0 0 0 0 0 0 0 0 0 0 0 0 0 0 0 0 0 0 0 0 0 0 0 0 0 0 0
0 0 0 0 0 0 0 0 0 0 0 0 0 0 0 0 0 0 0 0 0 0 0 0 0 0 0 0 0 0 0 0 0;
#X coords 0 127 63 0 576 70 1 0 0;
#X restore 12 350 graph;
#X obj 593 277 mod 64;
#X obj 593 260 r count_x4;
#X floatatom 593 314 5 0 0 0 - - -;
#X obj 593 367 mod 64;
#X obj 593 350 r count_x4;
#X floatatom 593 404 5 0 0 0 - - -;
#X obj 593 294 tabread cc2;
#X obj 593 384 tabread cc3;
#X obj 656 420 outlet;
#X obj 700 420 outlet;
#X obj 744 420 outlet;
#X obj 583 150 outlet;
#X obj 667 205 tabwrite cc1;
#X obj 672 294 tabwrite cc2;
#X obj 672 384 tabwrite cc3;
#X floatatom 672 273 5 0 0 0 - - -;
#X floatatom 672 363 5 0 0 0 - - -;
#X floatatom 667 184 5 0 0 0 - - -;
#X msg 747 192 \; cc1 const 0 \;;
#X msg 752 281 \; cc2 const 0 \;;
#X msg 752 371 \; cc3 const 0 \;;
#X text 744 173 clear cc;
#X text 749 262 clear cc;
#X text 749 353 clear cc;
#X obj 667 162 ctlin 33 1 1;
#X obj 672 250 ctlin 34 1 1;
#X obj 673 340 ctlin 35 1 1;
#X connect 0 0 37 1;
#X connect 1 0 38 1;
#X connect 2 0 39 1;
#X connect 3 0 40 1;
#X connect 4 0 41 1;
#X connect 5 0 42 1;
#X connect 6 0 43 1;
#X connect 7 0 44 1;
#X connect 8 0 45 1;
#X connect 9 0 46 1;
#X connect 10 0 47 1;
#X connect 11 0 48 1;
#X connect 12 0 49 1;
#X connect 13 0 50 1;
#X connect 14 0 51 1;
#X connect 15 0 52 1;
#X connect 16 0 17 0;
#X connect 17 0 18 0;
#X connect 18 0 19 0;
#X connect 19 0 37 0;
#X connect 19 1 38 0;
#X connect 19 2 39 0;
#X connect 19 3 40 0;
#X connect 19 4 41 0;
#X connect 19 5 42 0;
#X connect 19 6 43 0;
#X connect 19 7 44 0;
#X connect 19 8 45 0;
#X connect 19 9 46 0;
#X connect 19 10 47 0;
#X connect 19 11 48 0;
#X connect 19 12 49 0;
#X connect 19 13 50 0;
#X connect 19 14 51 0;
#X connect 19 15 52 0;
#X connect 20 0 71 0;
#X connect 21 0 71 0;
#X connect 22 0 71 0;
#X connect 23 0 71 0;
#X connect 24 0 71 0;
#X connect 25 0 71 0;
#X connect 26 0 71 0;
#X connect 27 0 71 0;
#X connect 28 0 71 0;
#X connect 29 0 71 0;
#X connect 30 0 71 0;
#X connect 31 0 71 0;
#X connect 32 0 71 0;
#X connect 33 0 71 0;
#X connect 34 0 71 0;
#X connect 35 0 71 0;
#X connect 37 0 20 0;
#X connect 38 0 21 0;
#X connect 39 0 22 0;
#X connect 40 0 23 0;
#X connect 41 0 24 0;
#X connect 42 0 25 0;
#X connect 43 0 26 0;
#X connect 44 0 27 0;
#X connect 45 0 28 0;
#X connect 46 0 29 0;
#X connect 47 0 30 0;
#X connect 48 0 31 0;
#X connect 49 0 32 0;
#X connect 50 0 33 0;
#X connect 51 0 34 0;
#X connect 52 0 35 0;
#X connect 54 0 56 0;
#X connect 54 0 72 1;
#X connect 55 0 54 0;
#X connect 56 0 57 0;
#X connect 57 0 68 0;
#X connect 60 0 66 0;
#X connect 60 0 73 1;
#X connect 61 0 60 0;
#X connect 62 0 69 0;
#X connect 63 0 67 0;
#X connect 63 0 74 1;
#X connect 64 0 63 0;
#X connect 65 0 70 0;
#X connect 66 0 62 0;
#X connect 67 0 65 0;
#X connect 75 0 73 0;
#X connect 76 0 74 0;
#X connect 77 0 72 0;
#X connect 84 0 77 0;
#X connect 85 0 75 0;
#X connect 86 0 76 0;
#X restore 6 131 pd track_1;
#X connect 1 0 3 0;
#X connect 2 0 3 1;
#X connect 3 0 4 0;
#X connect 3 1 5 0;
#X connect 6 0 1 0;
#X connect 8 0 7 0;
