#N canvas 500 2 641 601 10;
#X declare -lib mrpeach;
#X text 6 36 run/stop;
#X obj 7 53 tgl 15 0 empty empty empty 17 7 0 10 -262144 -1 -1 0 1
;
#X obj 76 53 nbx 5 14 1 1000 0 1 empty empty bpm 0 -8 0 10 -262144
-1 -1 151 256;
#N canvas 646 341 450 300 transport 0;
#X obj 111 131 float;
#X obj 161 130 + 1;
#X floatatom 111 152 5 0 0 0 - - -;
#X obj 111 189 s count;
#X obj 58 215 sel 1;
#X obj 110 215 sel 0;
#X obj 111 100 metro;
#X obj 58 44 inlet;
#X obj 138 44 inlet;
#X obj 58 242 outlet;
#X obj 110 242 outlet;
#X text 57 32 comment;
#X obj 138 74 expr 15000 / $f1;
#X obj 246 192 s count_x4;
#X obj 246 107 metro;
#X obj 246 130 float;
#X obj 296 129 + 1;
#X obj 273 74 expr 3750 / $f1;
#X floatatom 246 151 5 0 0 0 - - -;
#X floatatom 151 215 5 0 0 0 - - -;
#X connect 0 0 1 0;
#X connect 0 0 2 0;
#X connect 1 0 0 1;
#X connect 2 0 3 0;
#X connect 4 0 9 0;
#X connect 5 0 10 0;
#X connect 5 0 19 0;
#X connect 6 0 0 0;
#X connect 7 0 4 0;
#X connect 7 0 5 0;
#X connect 7 0 6 0;
#X connect 7 0 14 0;
#X connect 8 0 12 0;
#X connect 8 0 17 0;
#X connect 12 0 6 1;
#X connect 14 0 15 0;
#X connect 15 0 16 0;
#X connect 15 0 18 0;
#X connect 16 0 15 1;
#X connect 17 0 14 1;
#X connect 18 0 13 0;
#X connect 19 0 0 1;
#X connect 19 0 15 1;
#X restore 7 73 pd transport;
#X obj 7 95 s start;
#X obj 76 95 s stop;
#N canvas 423 110 450 300 osc-input 0;
#X obj 24 72 unpackOSC;
#X obj 24 43 udpreceive 9001;
#X obj 145 140 routeOSC /str;
#X obj 24 138 outlet;
#X obj 23 9 import mrpeach;
#X obj 24 109 routeOSC /play /beat;
#X connect 0 0 5 0;
#X connect 1 0 0 0;
#X connect 5 0 3 0;
#X connect 5 2 2 0;
#X restore 7 15 pd osc-input;
#N canvas 652 119 843 450 track_1 0;
#X floatatom 16 80 5 0 100 0 - - -;
#X floatatom 52 80 5 0 0 0 - - -;
#X floatatom 88 80 5 0 0 0 - - -;
#X floatatom 124 80 5 0 0 0 - - -;
#X floatatom 159 80 5 0 0 0 - - -;
#X floatatom 196 80 5 0 0 0 - - -;
#X floatatom 231 80 5 0 0 0 - - -;
#X floatatom 267 80 5 0 0 0 - - -;
#X floatatom 303 80 5 0 0 0 - - -;
#X floatatom 339 80 5 0 0 0 - - -;
#X floatatom 376 80 5 0 0 0 - - -;
#X floatatom 412 80 5 0 0 0 - - -;
#X floatatom 448 80 5 0 0 0 - - -;
#X floatatom 484 80 5 0 0 0 - - -;
#X floatatom 520 80 5 0 0 0 - - -;
#X floatatom 556 80 5 0 0 0 - - -;
#X obj 11 5 r count;
#X obj 11 22 mod 16;
#X obj 11 44 hradio 36 1 0 16 empty empty empty 0 -8 0 10 -262144 -1
-1 0;
#X obj 11 96 select 0 1 2 3 4 5 6 7 8 9 10 11 12 13 14 15;
#X obj 11 135 bng 15 250 50 0 empty empty empty 17 7 0 10 -262144 -1
-1;
#X obj 48 135 bng 15 250 50 0 empty empty empty 17 7 0 10 -262144 -1
-1;
#X obj 86 135 bng 15 250 50 0 empty empty empty 17 7 0 10 -262144 -1
-1;
#X obj 122 135 bng 15 250 50 0 empty empty empty 17 7 0 10 -262144
-1 -1;
#X obj 158 135 bng 15 250 50 0 empty empty empty 17 7 0 10 -262144
-1 -1;
#X obj 193 135 bng 15 250 50 0 empty empty empty 17 7 0 10 -262144
-1 -1;
#X obj 228 135 bng 15 250 50 0 empty empty empty 17 7 0 10 -262144
-1 -1;
#X obj 264 135 bng 15 250 50 0 empty empty empty 17 7 0 10 -262144
-1 -1;
#X obj 302 135 bng 15 250 50 0 empty empty empty 17 7 0 10 -262144
-1 -1;
#X obj 339 135 bng 15 250 50 0 empty empty empty 17 7 0 10 -262144
-1 -1;
#X obj 374 135 bng 15 250 50 0 empty empty empty 17 7 0 10 -262144
-1 -1;
#X obj 409 135 bng 15 250 50 0 empty empty empty 17 7 0 10 -262144
-1 -1;
#X obj 446 135 bng 15 250 50 0 empty empty empty 17 7 0 10 -262144
-1 -1;
#X obj 482 135 bng 15 250 50 0 empty empty empty 17 7 0 10 -262144
-1 -1;
#X obj 519 135 bng 15 250 50 0 empty empty empty 17 7 0 10 -262144
-1 -1;
#X obj 554 135 bng 15 250 50 0 empty empty empty 17 7 0 10 -262144
-1 -1;
#X text 595 81 trigger probability;
#X obj 11 113 trg;
#X obj 48 113 trg;
#X obj 86 113 trg;
#X obj 122 113 trg;
#X obj 158 113 trg;
#X obj 193 113 trg;
#X obj 228 113 trg;
#X obj 264 113 trg;
#X obj 302 113 trg;
#X obj 339 113 trg;
#X obj 374 113 trg;
#X obj 409 113 trg;
#X obj 446 113 trg;
#X obj 482 113 trg;
#X obj 519 113 trg;
#X obj 554 113 trg;
#N canvas 0 22 450 300 (subpatch) 0;
#X array cc1 64 float 1;
#A 0 0 0 0 0 0 0 0 0 0 0 0 0 0 0 0 0 0 0 0 0 0 0 0 0 0 0 0 0 0 1.8143
1.8143 -1.8143 -7.25719 -7.25719 -5.4429 -3.6286 29.0288 12.7001 34.4717
34.4717 63.5005 45.3575 34.4717 27.2145 23.5859 21.7716 16.3287 10.8858
5.44295 5.44295 9.07155 14.5144 14.5144 12.7001 9.07155 5.44295 3.62865
-1.81424 -3.62854 -3.62854 -3.62854 -3.62854 -3.62854 0;
#X coords 0 127 63 0 576 70 1 0 0;
#X restore 12 171 graph;
#X obj 593 188 mod 64;
#X obj 593 171 r count_x4;
#X obj 593 205 tabread cc1;
#X floatatom 593 225 5 0 0 0 - - -;
#N canvas 0 22 450 300 (subpatch) 0;
#X array cc2 64 float 1;
#A 0 78.0132 97.9701 72.5704 87.0845 78.0132 70.7562 59.8706 52.6136
47.1708 43.5423 38.0995 38.0995 36.2852 54.4278 56.2421 56.2421 54.4278
54.4278 54.4278 54.4278 52.6136 52.6136 52.6136 52.6136 52.6136 52.6136
50.7993 47.1708 47.1708 47.1708 43.5423 43.5423 43.5423 68.9419 70.7562
78.0132 101.599 94.3416 79.8275 68.9419 59.8706 54.4278 48.985 47.1708
68.9419 50.7993 48.985 5.44279 9.07131 12.6998 14.5141 14.5141 16.3284
10.8856 5.4428 1.83582e-005 -1.81424 -5.44277 -5.44277 -5.44277 -5.44277
-5.44277 0 0;
#X coords 0 127 63 0 576 70 1 0 0;
#X restore 12 260 graph;
#N canvas 0 22 450 300 (subpatch) 0;
#X array cc3 64 float 1;
#A 0 0 0 0 0 0 0 0 0 0 0 0 0 0 0 0 0 0 0 0 0 0 0 0 0 0 0 0 0 0 0 54.4281
52.6138 48.9853 39.9139 29.0283 25.3998 19.957 18.1427 36.2854 30.8426
19.957 78.0136 0 0 0 0 0 0 125.185 0 0 0 0 0 0 0 0 0 0 0 0 0 0 0;
#X coords 0 127 63 0 576 70 1 0 0;
#X restore 12 350 graph;
#X obj 593 277 mod 64;
#X obj 593 260 r count_x4;
#X floatatom 593 314 5 0 0 0 - - -;
#X obj 593 367 mod 64;
#X obj 593 350 r count_x4;
#X floatatom 593 404 5 0 0 0 - - -;
#X obj 593 294 tabread cc2;
#X obj 593 384 tabread cc3;
#X obj 656 420 outlet;
#X obj 700 420 outlet;
#X obj 744 420 outlet;
#X obj 583 150 outlet;
#X obj 667 205 tabwrite cc1;
#X obj 672 294 tabwrite cc2;
#X obj 672 384 tabwrite cc3;
#X floatatom 672 273 5 0 0 0 - - -;
#X floatatom 672 363 5 0 0 0 - - -;
#X floatatom 667 184 5 0 0 0 - - -;
#X msg 747 192 \; cc1 const 0 \;;
#X msg 752 281 \; cc2 const 0 \;;
#X msg 752 371 \; cc3 const 0 \;;
#X text 744 173 clear cc;
#X text 749 262 clear cc;
#X text 749 353 clear cc;
#X obj 667 162 ctlin 33 1 1;
#X obj 672 250 ctlin 34 1 1;
#X obj 673 340 ctlin 35 1 1;
#X obj 736 3 cnv 14 100 30 empty empty track_1 20 12 0 18 -233017 -66577
0;
#X connect 0 0 37 1;
#X connect 1 0 38 1;
#X connect 2 0 39 1;
#X connect 3 0 40 1;
#X connect 4 0 41 1;
#X connect 5 0 42 1;
#X connect 6 0 43 1;
#X connect 7 0 44 1;
#X connect 8 0 45 1;
#X connect 9 0 46 1;
#X connect 10 0 47 1;
#X connect 11 0 48 1;
#X connect 12 0 49 1;
#X connect 13 0 50 1;
#X connect 14 0 51 1;
#X connect 15 0 52 1;
#X connect 16 0 17 0;
#X connect 17 0 18 0;
#X connect 18 0 19 0;
#X connect 19 0 37 0;
#X connect 19 1 38 0;
#X connect 19 2 39 0;
#X connect 19 3 40 0;
#X connect 19 4 41 0;
#X connect 19 5 42 0;
#X connect 19 6 43 0;
#X connect 19 7 44 0;
#X connect 19 8 45 0;
#X connect 19 9 46 0;
#X connect 19 10 47 0;
#X connect 19 11 48 0;
#X connect 19 12 49 0;
#X connect 19 13 50 0;
#X connect 19 14 51 0;
#X connect 19 15 52 0;
#X connect 20 0 71 0;
#X connect 21 0 71 0;
#X connect 22 0 71 0;
#X connect 23 0 71 0;
#X connect 24 0 71 0;
#X connect 25 0 71 0;
#X connect 26 0 71 0;
#X connect 27 0 71 0;
#X connect 28 0 71 0;
#X connect 29 0 71 0;
#X connect 30 0 71 0;
#X connect 31 0 71 0;
#X connect 32 0 71 0;
#X connect 33 0 71 0;
#X connect 34 0 71 0;
#X connect 35 0 71 0;
#X connect 37 0 20 0;
#X connect 38 0 21 0;
#X connect 39 0 22 0;
#X connect 40 0 23 0;
#X connect 41 0 24 0;
#X connect 42 0 25 0;
#X connect 43 0 26 0;
#X connect 44 0 27 0;
#X connect 45 0 28 0;
#X connect 46 0 29 0;
#X connect 47 0 30 0;
#X connect 48 0 31 0;
#X connect 49 0 32 0;
#X connect 50 0 33 0;
#X connect 51 0 34 0;
#X connect 52 0 35 0;
#X connect 54 0 56 0;
#X connect 54 0 72 1;
#X connect 55 0 54 0;
#X connect 56 0 57 0;
#X connect 57 0 68 0;
#X connect 60 0 66 0;
#X connect 60 0 73 1;
#X connect 61 0 60 0;
#X connect 62 0 69 0;
#X connect 63 0 67 0;
#X connect 63 0 74 1;
#X connect 64 0 63 0;
#X connect 65 0 70 0;
#X connect 66 0 62 0;
#X connect 67 0 65 0;
#X connect 75 0 73 0;
#X connect 76 0 74 0;
#X connect 77 0 72 0;
#X connect 84 0 77 0;
#X connect 85 0 75 0;
#X connect 86 0 76 0;
#X restore 6 131 pd track_1;
#N canvas 1704 126 697 322 er1-part-1 0;
#X obj 41 48 cnv 15 560 190 empty empty ER-1_controller 10 110 0 20
-191237 -258113 0;
#X text 40 47 pitch;
#X obj 47 66 cnv 15 80 60 empty empty empty 20 12 0 14 -260097 -66577
0;
#X floatatom 49 72 5 0 127 0 - - -;
#X obj 137 67 cnv 15 80 60 empty empty empty 20 12 0 14 -257985 -66577
0;
#X floatatom 140 71 5 0 127 0 - - -;
#X text 83 47 mod depth;
#X obj 228 66 cnv 15 80 60 empty empty empty 20 12 0 14 -4034 -66577
0;
#X text 151 47 mod speed;
#X floatatom 230 70 5 0 127 0 - - -;
#X obj 229 150 cnv 15 80 60 empty empty empty 20 12 0 14 -4032 -66577
0;
#X floatatom 232 156 5 0 5 0 - - -;
#X text 345 46 mod type;
#X text 225 47 decay;
#X obj 420 66 cnv 15 80 60 empty empty empty 20 12 0 14 -159808 -66577
0;
#X text 286 47 level;
#X obj 328 152 cnv 15 80 60 empty empty empty 20 12 0 14 -201290 -66577
0;
#X floatatom 332 156 5 0 127 0 - - -;
#X text 450 45 pan;
#X obj 421 151 cnv 15 80 60 empty empty empty 20 12 0 14 -26724 -66577
0;
#X floatatom 424 155 5 0 127 0 - - -;
#X text 502 47 low boost;
#N canvas 1027 180 450 300 pitch1 0;
#X obj 42 89 nbx 5 14 -1e+037 1e+037 0 1 empty empty empty 0 -8 0 10
-262144 -1 -1 2 256;
#X obj 139 87 t f b;
#X obj 139 64 inlet;
#X obj 42 116 ctlout 98 10;
#X obj 124 116 ctlout 99 10;
#X obj 208 115 ctlout 6 10;
#X connect 0 0 3 0;
#X connect 0 0 4 0;
#X connect 1 0 5 0;
#X connect 1 1 0 0;
#X connect 2 0 1 0;
#X restore 49 103 pd pitch1;
#N canvas 858 304 450 300 moddepth1 0;
#X obj 164 93 nbx 5 14 -1e+037 1e+037 0 1 empty empty empty 0 -8 0
10 -262144 -1 -1 6 256;
#X obj 228 94 nbx 5 14 -1e+037 1e+037 0 1 empty empty empty 0 -8 0
10 -262144 -1 -1 2 256;
#X obj 164 67 t f b b;
#X obj 164 42 inlet;
#X obj 145 119 ctlout 98 10;
#X obj 228 118 ctlout 99 10;
#X obj 315 118 ctlout 6 10;
#X connect 0 0 4 0;
#X connect 1 0 5 0;
#X connect 2 0 6 0;
#X connect 2 1 1 0;
#X connect 2 2 0 0;
#X connect 3 0 2 0;
#X restore 140 107 pd moddepth1;
#N canvas 0 22 450 300 modtype1 0;
#X obj -188 62 nbx 5 14 -1e+037 1e+037 0 1 empty empty empty 0 -8 0
10 -262144 -1 -1 4 256;
#X obj -124 62 nbx 5 14 -1e+037 1e+037 0 1 empty empty empty 0 -8 0
10 -262144 -1 -1 2 256;
#X obj -188 38 t f b b;
#X obj -187 12 inlet;
#X obj -188 85 ctlout 98 10;
#X obj -108 85 ctlout 99 10;
#X obj -30 85 ctlout 6 10;
#X connect 0 0 4 0;
#X connect 1 0 5 0;
#X connect 2 0 6 0;
#X connect 2 1 1 0;
#X connect 2 2 0 0;
#X connect 3 0 2 0;
#X restore 232 189 pd modtype1;
#N canvas 22 22 450 300 modspeed1 0;
#X obj -99 72 nbx 5 14 -1e+037 1e+037 0 1 empty empty empty 0 -8 0
10 -262144 -1 -1 5 256;
#X obj -35 72 nbx 5 14 -1e+037 1e+037 0 1 empty empty empty 0 -8 0
10 -262144 -1 -1 2 256;
#X obj -99 48 t f b b;
#X obj -99 21 inlet;
#X obj -100 95 ctlout 98 10;
#X obj -16 94 ctlout 99 10;
#X obj 76 96 ctlout 6 10;
#X connect 0 0 4 0;
#X connect 1 0 5 0;
#X connect 2 0 6 0;
#X connect 2 1 1 0;
#X connect 2 2 0 0;
#X connect 3 0 2 0;
#X restore 230 107 pd modspeed1;
#X obj 329 66 cnv 15 80 60 empty empty empty 20 12 0 14 -4160 -66577
0;
#X floatatom 333 71 5 0 127 0 - - -;
#N canvas 0 22 450 300 decay1 0;
#X obj -248 92 nbx 5 14 -1e+037 1e+037 0 1 empty empty empty 0 -8 0
10 -262144 -1 -1 8 256;
#X obj -184 92 nbx 5 14 -1e+037 1e+037 0 1 empty empty empty 0 -8 0
10 -262144 -1 -1 2 256;
#X obj -246 61 t f b b;
#X obj -246 34 inlet;
#X obj -245 119 ctlout 98 10;
#X obj -166 118 ctlout 99 10;
#X obj -82 120 ctlout 6 10;
#X connect 0 0 4 0;
#X connect 1 0 5 0;
#X connect 2 0 6 0;
#X connect 2 1 1 0;
#X connect 2 2 0 0;
#X connect 3 0 2 0;
#X restore 331 106 pd decay1;
#N canvas 0 22 450 300 pan1 0;
#X obj 7 66 nbx 5 14 -1e+037 1e+037 0 1 empty empty empty 0 -8 0 10
-262144 -1 -1 1 256;
#X obj 71 66 nbx 5 14 -1e+037 1e+037 0 1 empty empty empty 0 -8 0 10
-262144 -1 -1 2 256;
#X obj 7 39 t f b b;
#X obj 7 10 inlet;
#X obj 7 93 ctlout 98 10;
#X obj 88 93 ctlout 99 10;
#X obj 167 93 ctlout 6 10;
#X connect 0 0 4 0;
#X connect 1 0 5 0;
#X connect 2 0 6 0;
#X connect 2 1 1 0;
#X connect 2 2 0 0;
#X connect 3 0 2 0;
#X restore 332 190 pd pan1;
#N canvas 0 22 450 300 level1 0;
#X obj -336 -127 nbx 5 14 -1e+037 1e+037 0 1 empty empty empty 0 -8
0 10 -262144 -1 -1 7 256;
#X obj -272 -127 nbx 5 14 -1e+037 1e+037 0 1 empty empty empty 0 -8
0 10 -262144 -1 -1 2 256;
#X obj -336 -154 t f b b;
#X obj -336 -183 inlet;
#X obj -336 -100 ctlout 98 10;
#X obj -255 -100 ctlout 99 10;
#X obj -175 -101 ctlout 6 10;
#X connect 0 0 4 0;
#X connect 1 0 5 0;
#X connect 2 0 6 0;
#X connect 2 1 1 0;
#X connect 2 2 0 0;
#X connect 3 0 2 0;
#X restore 422 106 pd level1;
#X floatatom 422 69 5 0 127 0 - - -;
#X obj 40 163 cnv 1 1 1 empty empty sound_1 20 30 0 35 -228856 -66577
0;
#X text 64 85 pitch;
#X text 152 86 mod depth;
#X text 246 86 mod speed;
#X text 346 85 decay;
#X text 440 86 level;
#X text 248 171 mod type;
#X text 349 170 pan;
#X text 440 171 low boost;
#X obj 46 18 inlet;
#X obj 84 18 inlet;
#X obj 123 18 inlet;
#X obj 161 18 inlet;
#X obj 199 18 inlet;
#X obj 237 18 inlet;
#X obj 276 18 inlet;
#X obj 314 18 inlet;
#X obj 511 66 cnv 15 80 60 empty empty empty 20 12 0 14 -159808 -66577
0;
#X obj 352 18 inlet;
#X obj 514 71 nbx 1 14 0 1 0 0 empty empty empty 0 -8 0 10 -262144
-1 -1 0 256;
#X text 536 69 0:sine;
#X text 536 85 1:saw;
#X text 569 46 wave;
#N canvas 0 22 450 300 lowboost1 0;
#X obj -74 -41 nbx 5 14 -1e+037 1e+037 0 1 empty empty empty 0 -8 0
10 -262144 -1 -1 0 256;
#X obj -10 -41 nbx 5 14 -1e+037 1e+037 0 1 empty empty empty 0 -8 0
10 -262144 -1 -1 2 256;
#X obj -74 -68 t f b b;
#X obj -74 -97 inlet;
#X obj -74 -14 ctlout 98 10;
#X obj 8 -14 ctlout 99 10;
#X obj 90 -14 ctlout 6 10;
#X connect 0 0 4 0;
#X connect 1 0 5 0;
#X connect 2 0 6 0;
#X connect 2 1 1 0;
#X connect 2 2 0 0;
#X connect 3 0 2 0;
#X restore 426 188 pd lowboost1;
#N canvas 221 254 450 300 wave1 0;
#X obj -336 -127 nbx 5 14 -1e+037 1e+037 0 1 empty empty empty 0 -8
0 10 -262144 -1 -1 3 256;
#X obj -272 -127 nbx 5 14 -1e+037 1e+037 0 1 empty empty empty 0 -8
0 10 -262144 -1 -1 2 256;
#X obj -336 -154 t f b b;
#X obj -336 -183 inlet;
#X obj -214 -171 select 0;
#X obj -154 -171 select 1;
#X obj -209 -127 nbx 5 14 -1e+037 1e+037 0 1 empty empty empty 0 -8
0 10 -262144 -1 -1 0 256;
#X obj -145 -127 nbx 5 14 -1e+037 1e+037 0 1 empty empty empty 0 -8
0 10 -262144 -1 -1 127 256;
#X obj -336 -100 ctlout 98 10;
#X obj -239 -102 ctlout 99 10;
#X obj -140 -98 ctlout 6 10;
#X connect 0 0 8 0;
#X connect 1 0 9 0;
#X connect 2 0 4 0;
#X connect 2 0 5 0;
#X connect 2 1 1 0;
#X connect 2 2 0 0;
#X connect 3 0 2 0;
#X connect 4 0 6 0;
#X connect 5 0 7 0;
#X connect 6 0 10 0;
#X connect 7 0 10 0;
#X restore 514 106 pd wave1;
#X connect 3 0 22 0;
#X connect 5 0 23 0;
#X connect 9 0 25 0;
#X connect 11 0 24 0;
#X connect 17 0 29 0;
#X connect 20 0 55 0;
#X connect 27 0 28 0;
#X connect 31 0 30 0;
#X connect 41 0 3 0;
#X connect 42 0 5 0;
#X connect 43 0 9 0;
#X connect 44 0 11 0;
#X connect 45 0 27 0;
#X connect 46 0 31 0;
#X connect 47 0 17 0;
#X connect 48 0 20 0;
#X connect 50 0 51 0;
#X connect 51 0 56 0;
#X restore 16 162 pd er1-part-1;
#X obj 6 206 noteout;
#X msg 6 184 36 127 10;
#N canvas 657 131 843 464 track_2 0;
#X floatatom 16 80 5 0 100 0 - - -;
#X floatatom 52 80 5 0 0 0 - - -;
#X floatatom 88 80 5 0 0 0 - - -;
#X floatatom 124 80 5 0 0 0 - - -;
#X floatatom 159 80 5 0 0 0 - - -;
#X floatatom 196 80 5 0 0 0 - - -;
#X floatatom 231 80 5 0 0 0 - - -;
#X floatatom 267 80 5 0 0 0 - - -;
#X floatatom 303 80 5 0 0 0 - - -;
#X floatatom 339 80 5 0 0 0 - - -;
#X floatatom 376 80 5 0 0 0 - - -;
#X floatatom 412 80 5 0 0 0 - - -;
#X floatatom 448 80 5 0 0 0 - - -;
#X floatatom 484 80 5 0 0 0 - - -;
#X floatatom 520 80 5 0 0 0 - - -;
#X floatatom 556 80 5 0 0 0 - - -;
#X obj 11 5 r count;
#X obj 11 22 mod 16;
#X obj 11 44 hradio 36 1 0 16 empty empty empty 0 -8 0 10 -262144 -1
-1 0;
#X obj 11 96 select 0 1 2 3 4 5 6 7 8 9 10 11 12 13 14 15;
#X obj 11 135 bng 15 250 50 0 empty empty empty 17 7 0 10 -262144 -1
-1;
#X obj 48 135 bng 15 250 50 0 empty empty empty 17 7 0 10 -262144 -1
-1;
#X obj 86 135 bng 15 250 50 0 empty empty empty 17 7 0 10 -262144 -1
-1;
#X obj 122 135 bng 15 250 50 0 empty empty empty 17 7 0 10 -262144
-1 -1;
#X obj 158 135 bng 15 250 50 0 empty empty empty 17 7 0 10 -262144
-1 -1;
#X obj 193 135 bng 15 250 50 0 empty empty empty 17 7 0 10 -262144
-1 -1;
#X obj 228 135 bng 15 250 50 0 empty empty empty 17 7 0 10 -262144
-1 -1;
#X obj 264 135 bng 15 250 50 0 empty empty empty 17 7 0 10 -262144
-1 -1;
#X obj 302 135 bng 15 250 50 0 empty empty empty 17 7 0 10 -262144
-1 -1;
#X obj 339 135 bng 15 250 50 0 empty empty empty 17 7 0 10 -262144
-1 -1;
#X obj 374 135 bng 15 250 50 0 empty empty empty 17 7 0 10 -262144
-1 -1;
#X obj 409 135 bng 15 250 50 0 empty empty empty 17 7 0 10 -262144
-1 -1;
#X obj 446 135 bng 15 250 50 0 empty empty empty 17 7 0 10 -262144
-1 -1;
#X obj 482 135 bng 15 250 50 0 empty empty empty 17 7 0 10 -262144
-1 -1;
#X obj 519 135 bng 15 250 50 0 empty empty empty 17 7 0 10 -262144
-1 -1;
#X obj 554 135 bng 15 250 50 0 empty empty empty 17 7 0 10 -262144
-1 -1;
#X text 595 81 trigger probability;
#X obj 11 113 trg;
#X obj 48 113 trg;
#X obj 86 113 trg;
#X obj 122 113 trg;
#X obj 158 113 trg;
#X obj 193 113 trg;
#X obj 228 113 trg;
#X obj 264 113 trg;
#X obj 302 113 trg;
#X obj 339 113 trg;
#X obj 374 113 trg;
#X obj 409 113 trg;
#X obj 446 113 trg;
#X obj 482 113 trg;
#X obj 519 113 trg;
#X obj 554 113 trg;
#N canvas 0 22 450 300 (subpatch) 0;
#X array cc4 64 float 1;
#A 0 0 0 0 0 0 0 0 0 0 0 0 3.6286 23.5859 52.6147 116.115 103.415 81.6435
67.1291 50.8004 41.7289 38.1003 36.286 30.8431 29.0288 27.2145 23.5859
23.5859 21.7716 21.7716 16.3287 16.3287 16.3287 16.3287 16.3287 16.3287
16.3287 16.3287 16.3287 16.3287 16.3287 19.9573 137.887 121.558 112.487
105.229 97.9722 92.5293 85.2721 79.8292 72.572 61.6861 58.0575 47.1718
43.5432 34.4717 29.0288 25.4002 18.143 14.5144 9.07147 9.07147 36.286
0 0;
#X coords 0 127 63 0 576 70 1 0 0;
#X restore 12 171 graph;
#X obj 593 188 mod 64;
#X obj 593 171 r count_x4;
#X floatatom 593 225 5 0 0 0 - - -;
#N canvas 0 22 450 300 (subpatch) 0;
#X array cc5 64 float 1;
#A 0 0 0 0 0 0 0 0 0 0 0 1.81426 3.62852 9.07131 14.5141 18.1426 23.5854
29.0282 32.6567 34.471 41.728 47.1708 54.4278 59.8706 65.3134 70.7562
76.199 81.6418 83.456 0 0 0 0 0 0 0 0 0 0 0 0 0 0 1.81426 10.8856 16.3284
21.7711 25.3997 29.0282 32.6567 32.6567 36.2852 41.728 47.1708 48.9851
58.0564 63.4991 68.9419 76.199 79.8275 0 0 0 0 0;
#X coords 0 127 63 0 576 70 1 0 0;
#X restore 12 260 graph;
#N canvas 0 22 450 300 (subpatch) 0;
#X array cc6 64 float 1;
#A 0 0 0 0 0 0 0 48.9853 48.9853 48.9853 47.171 50.7996 58.0566 59.8709
65.3137 67.128 72.5708 79.8279 87.085 94.342 105.228 110.67 116.113
121.556 123.37 126.999 128.813 130.627 87.085 79.8279 67.128 63.4994
58.9638 54.4281 49.8924 45.3567 40.8211 36.2854 36.2854 36.2854 36.2854
88.8992 128.813 116.113 92.5278 81.6422 72.5708 61.6852 56.2424 48.9853
41.7282 38.0997 34.4711 29.0283 27.2141 25.3998 21.7712 16.3284 10.8856
3.62854 0 0 0 0 0;
#X coords 0 127 63 0 576 70 1 0 0;
#X restore 12 350 graph;
#X obj 593 277 mod 64;
#X obj 593 260 r count_x4;
#X floatatom 593 314 5 0 0 0 - - -;
#X obj 593 367 mod 64;
#X obj 593 350 r count_x4;
#X floatatom 593 404 5 0 0 0 - - -;
#X obj 656 420 outlet;
#X obj 700 420 outlet;
#X obj 744 420 outlet;
#X obj 583 150 outlet;
#X floatatom 672 273 5 0 0 0 - - -;
#X floatatom 672 363 5 0 0 0 - - -;
#X floatatom 667 184 5 0 0 0 - - -;
#X text 744 173 clear cc;
#X text 749 262 clear cc;
#X text 749 353 clear cc;
#X obj 667 162 ctlin 33 1 1;
#X obj 672 250 ctlin 34 1 1;
#X obj 673 340 ctlin 35 1 1;
#X obj 736 3 cnv 14 100 30 empty empty track_2 20 12 0 18 -233017 -66577
0;
#X obj 593 205 tabread cc4;
#X obj 667 205 tabwrite cc4;
#X msg 747 192 \; cc4 const 0 \;;
#X obj 593 294 tabread cc5;
#X obj 672 294 tabwrite cc5;
#X msg 752 281 \; cc5 const 0 \;;
#X obj 593 384 tabread cc6;
#X obj 672 384 tabwrite cc6;
#X msg 752 371 \; cc6 const 0 \;;
#X connect 0 0 37 1;
#X connect 1 0 38 1;
#X connect 2 0 39 1;
#X connect 3 0 40 1;
#X connect 4 0 41 1;
#X connect 5 0 42 1;
#X connect 6 0 43 1;
#X connect 7 0 44 1;
#X connect 8 0 45 1;
#X connect 9 0 46 1;
#X connect 10 0 47 1;
#X connect 11 0 48 1;
#X connect 12 0 49 1;
#X connect 13 0 50 1;
#X connect 14 0 51 1;
#X connect 15 0 52 1;
#X connect 16 0 17 0;
#X connect 17 0 18 0;
#X connect 18 0 19 0;
#X connect 19 0 37 0;
#X connect 19 1 38 0;
#X connect 19 2 39 0;
#X connect 19 3 40 0;
#X connect 19 4 41 0;
#X connect 19 5 42 0;
#X connect 19 6 43 0;
#X connect 19 7 44 0;
#X connect 19 8 45 0;
#X connect 19 9 46 0;
#X connect 19 10 47 0;
#X connect 19 11 48 0;
#X connect 19 12 49 0;
#X connect 19 13 50 0;
#X connect 19 14 51 0;
#X connect 19 15 52 0;
#X connect 20 0 68 0;
#X connect 21 0 68 0;
#X connect 22 0 68 0;
#X connect 23 0 68 0;
#X connect 24 0 68 0;
#X connect 25 0 68 0;
#X connect 26 0 68 0;
#X connect 27 0 68 0;
#X connect 28 0 68 0;
#X connect 29 0 68 0;
#X connect 30 0 68 0;
#X connect 31 0 68 0;
#X connect 32 0 68 0;
#X connect 33 0 68 0;
#X connect 34 0 68 0;
#X connect 35 0 68 0;
#X connect 37 0 20 0;
#X connect 38 0 21 0;
#X connect 39 0 22 0;
#X connect 40 0 23 0;
#X connect 41 0 24 0;
#X connect 42 0 25 0;
#X connect 43 0 26 0;
#X connect 44 0 27 0;
#X connect 45 0 28 0;
#X connect 46 0 29 0;
#X connect 47 0 30 0;
#X connect 48 0 31 0;
#X connect 49 0 32 0;
#X connect 50 0 33 0;
#X connect 51 0 34 0;
#X connect 52 0 35 0;
#X connect 54 0 79 0;
#X connect 54 0 80 1;
#X connect 55 0 54 0;
#X connect 56 0 65 0;
#X connect 59 0 82 0;
#X connect 59 0 83 1;
#X connect 60 0 59 0;
#X connect 61 0 66 0;
#X connect 62 0 85 0;
#X connect 62 0 86 1;
#X connect 63 0 62 0;
#X connect 64 0 67 0;
#X connect 69 0 83 0;
#X connect 70 0 86 0;
#X connect 71 0 80 0;
#X connect 75 0 71 0;
#X connect 76 0 69 0;
#X connect 77 0 70 0;
#X connect 79 0 56 0;
#X connect 82 0 61 0;
#X connect 85 0 64 0;
#X restore 107 131 pd track_2;
#N canvas 630 132 1280 699 er1-part-2 0;
#X obj 41 48 cnv 15 560 190 empty empty ER-1_controller 10 110 0 20
-191237 -258113 0;
#X text 40 47 pitch;
#X obj 47 66 cnv 15 80 60 empty empty empty 20 12 0 14 -260097 -66577
0;
#X floatatom 49 72 5 0 127 0 - - -;
#X obj 137 67 cnv 15 80 60 empty empty empty 20 12 0 14 -257985 -66577
0;
#X floatatom 140 71 5 0 127 0 - - -;
#X text 83 47 mod depth;
#X obj 228 66 cnv 15 80 60 empty empty empty 20 12 0 14 -4034 -66577
0;
#X text 151 47 mod speed;
#X floatatom 230 70 5 0 127 0 - - -;
#X obj 229 150 cnv 15 80 60 empty empty empty 20 12 0 14 -4032 -66577
0;
#X floatatom 232 156 5 0 5 0 - - -;
#X text 345 46 mod type;
#X text 225 47 decay;
#X obj 420 66 cnv 15 80 60 empty empty empty 20 12 0 14 -159808 -66577
0;
#X text 286 47 level;
#X obj 328 152 cnv 15 80 60 empty empty empty 20 12 0 14 -201290 -66577
0;
#X floatatom 332 156 5 0 127 0 - - -;
#X text 450 45 pan;
#X obj 421 151 cnv 15 80 60 empty empty empty 20 12 0 14 -26724 -66577
0;
#X floatatom 424 155 5 0 127 0 - - -;
#X text 502 47 low boost;
#X obj 329 66 cnv 15 80 60 empty empty empty 20 12 0 14 -4160 -66577
0;
#X floatatom 331 70 5 0 127 0 - - -;
#X floatatom 422 69 5 0 127 0 - - -;
#X obj 40 163 cnv 1 1 1 empty empty sound_2 20 30 0 35 -228856 -66577
0;
#X text 64 85 pitch;
#X text 152 86 mod depth;
#X text 246 86 mod speed;
#X text 346 85 decay;
#X text 440 86 level;
#X text 248 171 mod type;
#X text 349 170 pan;
#X text 440 171 low boost;
#X obj 46 18 inlet;
#X obj 84 18 inlet;
#X obj 123 18 inlet;
#X obj 161 18 inlet;
#X obj 199 18 inlet;
#X obj 237 18 inlet;
#X obj 276 18 inlet;
#X obj 314 18 inlet;
#X obj 511 66 cnv 15 80 60 empty empty empty 20 12 0 14 -159808 -66577
0;
#X obj 352 18 inlet;
#X obj 514 71 nbx 1 14 0 1 0 0 empty empty empty 0 -8 0 10 -262144
-1 -1 0 256;
#X text 536 69 0:sine;
#X text 536 85 1:saw;
#X text 569 46 wave;
#N canvas 1905 269 450 300 pitch2 0;
#X obj 26 155 nbx 5 14 -1e+037 1e+037 0 1 empty empty empty 0 -8 0
10 -262144 -1 -1 12 256;
#X obj 90 156 nbx 5 14 -1e+037 1e+037 0 1 empty empty empty 0 -8 0
10 -262144 -1 -1 2 256;
#X obj 28 67 t f b b;
#X obj 28 42 inlet;
#X obj 26 180 ctlout 98 10;
#X obj 116 179 ctlout 99 10;
#X obj 223 179 ctlout 6 10;
#X connect 0 0 4 0;
#X connect 1 0 5 0;
#X connect 2 0 6 0;
#X connect 2 1 1 0;
#X connect 2 2 0 0;
#X connect 3 0 2 0;
#X restore 49 103 pd pitch2;
#N canvas 0 22 450 300 moddepth2 0;
#X obj 164 93 nbx 5 14 -1e+037 1e+037 0 1 empty empty empty 0 -8 0
10 -262144 -1 -1 16 256;
#X obj 228 94 nbx 5 14 -1e+037 1e+037 0 1 empty empty empty 0 -8 0
10 -262144 -1 -1 2 256;
#X obj 164 67 t f b b;
#X obj 164 42 inlet;
#X obj 168 118 ctlout 98 10;
#X obj 246 118 ctlout 99 10;
#X obj 338 119 ctlout 6 10;
#X connect 0 0 4 0;
#X connect 1 0 5 0;
#X connect 2 0 6 0;
#X connect 2 1 1 0;
#X connect 2 2 0 0;
#X connect 3 0 2 0;
#X restore 140 107 pd moddepth2;
#N canvas 477 70 450 300 modspeed2 0;
#X obj -99 72 nbx 5 14 -1e+037 1e+037 0 1 empty empty empty 0 -8 0
10 -262144 -1 -1 15 256;
#X obj -35 72 nbx 5 14 -1e+037 1e+037 0 1 empty empty empty 0 -8 0
10 -262144 -1 -1 2 256;
#X obj -99 48 t f b b;
#X obj -99 21 inlet;
#X obj -86 114 ctlout 98 10;
#X obj 4 99 ctlout 99 10;
#X obj 96 96 ctlout 6 10;
#X connect 0 0 4 0;
#X connect 1 0 5 0;
#X connect 2 0 6 0;
#X connect 2 1 1 0;
#X connect 2 2 0 0;
#X connect 3 0 2 0;
#X restore 230 107 pd modspeed2;
#N canvas 0 22 450 300 decay2 0;
#X obj -248 92 nbx 5 14 -1e+037 1e+037 0 1 empty empty empty 0 -8 0
10 -262144 -1 -1 18 256;
#X obj -184 92 nbx 5 14 -1e+037 1e+037 0 1 empty empty empty 0 -8 0
10 -262144 -1 -1 2 256;
#X obj -246 61 t f b b;
#X obj -246 34 inlet;
#X obj -248 119 ctlout 98 10;
#X obj -142 114 ctlout 99 10;
#X obj -39 115 ctlout 6 10;
#X connect 0 0 4 0;
#X connect 1 0 5 0;
#X connect 2 0 6 0;
#X connect 2 1 1 0;
#X connect 2 2 0 0;
#X connect 3 0 2 0;
#X restore 331 106 pd decay2;
#N canvas 0 22 450 300 level2 0;
#X obj -336 -127 nbx 5 14 -1e+037 1e+037 0 1 empty empty empty 0 -8
0 10 -262144 -1 -1 17 256;
#X obj -272 -127 nbx 5 14 -1e+037 1e+037 0 1 empty empty empty 0 -8
0 10 -262144 -1 -1 2 256;
#X obj -336 -154 t f b b;
#X obj -336 -183 inlet;
#X obj -336 -100 ctlout 98 10;
#X obj -213 -100 ctlout 99 10;
#X obj -105 -99 ctlout 6 10;
#X connect 0 0 4 0;
#X connect 1 0 5 0;
#X connect 2 0 6 0;
#X connect 2 1 1 0;
#X connect 2 2 0 0;
#X connect 3 0 2 0;
#X restore 422 106 pd level2;
#N canvas 0 22 450 300 lowbost2 0;
#X obj -74 -41 nbx 5 14 -1e+037 1e+037 0 1 empty empty empty 0 -8 0
10 -262144 -1 -1 10 256;
#X obj -10 -41 nbx 5 14 -1e+037 1e+037 0 1 empty empty empty 0 -8 0
10 -262144 -1 -1 2 256;
#X obj -74 -68 t f b b;
#X obj -74 -97 inlet;
#X obj -73 -15 ctlout 98 10;
#X obj 26 -6 ctlout 99 10;
#X obj 125 12 ctlout 6 10;
#X connect 0 0 4 0;
#X connect 1 0 5 0;
#X connect 2 0 6 0;
#X connect 2 1 1 0;
#X connect 2 2 0 0;
#X connect 3 0 2 0;
#X restore 424 189 pd lowbost2;
#N canvas 0 22 450 300 pan2 0;
#X obj 7 66 nbx 5 14 -1e+037 1e+037 0 1 empty empty empty 0 -8 0 10
-262144 -1 -1 11 256;
#X obj 71 66 nbx 5 14 -1e+037 1e+037 0 1 empty empty empty 0 -8 0 10
-262144 -1 -1 2 256;
#X obj 7 39 t f b b;
#X obj 7 10 inlet;
#X obj 7 93 ctlout 98 10;
#X obj 93 95 ctlout 99 10;
#X obj 225 105 ctlout 6 10;
#X connect 0 0 4 0;
#X connect 1 0 5 0;
#X connect 2 0 6 0;
#X connect 2 1 1 0;
#X connect 2 2 0 0;
#X connect 3 0 2 0;
#X restore 332 190 pd pan2;
#N canvas 0 22 450 300 modtype2 0;
#X obj -188 62 nbx 5 14 -1e+037 1e+037 0 1 empty empty empty 0 -8 0
10 -262144 -1 -1 14 256;
#X obj -124 62 nbx 5 14 -1e+037 1e+037 0 1 empty empty empty 0 -8 0
10 -262144 -1 -1 2 256;
#X obj -188 38 t f b b;
#X obj -187 12 inlet;
#X obj -188 85 ctlout 98 10;
#X obj -97 91 ctlout 99 10;
#X obj 9 98 ctlout 6 10;
#X connect 0 0 4 0;
#X connect 1 0 5 0;
#X connect 2 0 6 0;
#X connect 2 1 1 0;
#X connect 2 2 0 0;
#X connect 3 0 2 0;
#X restore 232 189 pd modtype2;
#N canvas 695 348 450 300 wave2 0;
#X obj -336 -127 nbx 5 14 -1e+037 1e+037 0 1 empty empty empty 0 -8
0 10 -262144 -1 -1 13 256;
#X obj -272 -127 nbx 5 14 -1e+037 1e+037 0 1 empty empty empty 0 -8
0 10 -262144 -1 -1 2 256;
#X obj -336 -154 t f b b;
#X obj -336 -183 inlet;
#X obj -214 -171 select 0;
#X obj -154 -171 select 1;
#X obj -209 -127 nbx 5 14 -1e+037 1e+037 0 1 empty empty empty 0 -8
0 10 -262144 -1 -1 0 256;
#X obj -145 -127 nbx 5 14 -1e+037 1e+037 0 1 empty empty empty 0 -8
0 10 -262144 -1 -1 127 256;
#X obj -336 -100 ctlout 98 10;
#X obj -241 -98 ctlout 99 10;
#X obj -138 -95 ctlout 6 10;
#X connect 0 0 8 0;
#X connect 1 0 9 0;
#X connect 2 0 4 0;
#X connect 2 0 5 0;
#X connect 2 1 1 0;
#X connect 2 2 0 0;
#X connect 3 0 2 0;
#X connect 4 0 6 0;
#X connect 5 0 7 0;
#X connect 6 0 10 0;
#X connect 7 0 10 0;
#X restore 514 106 pd wave2;
#X connect 3 0 48 0;
#X connect 5 0 49 0;
#X connect 9 0 50 0;
#X connect 11 0 55 0;
#X connect 17 0 54 0;
#X connect 20 0 53 0;
#X connect 23 0 51 0;
#X connect 24 0 52 0;
#X connect 34 0 3 0;
#X connect 35 0 5 0;
#X connect 36 0 9 0;
#X connect 37 0 11 0;
#X connect 38 0 23 0;
#X connect 39 0 24 0;
#X connect 40 0 17 0;
#X connect 41 0 20 0;
#X connect 43 0 44 0;
#X connect 44 0 56 0;
#X restore 117 162 pd er1-part-2;
#X obj 107 206 noteout;
#X msg 107 184 38 127 10;
#N canvas 639 240 843 450 track_3 0;
#X floatatom 16 80 5 0 100 0 - - -;
#X floatatom 52 80 5 0 0 0 - - -;
#X floatatom 88 80 5 0 0 0 - - -;
#X floatatom 124 80 5 0 0 0 - - -;
#X floatatom 159 80 5 0 0 0 - - -;
#X floatatom 196 80 5 0 0 0 - - -;
#X floatatom 231 80 5 0 0 0 - - -;
#X floatatom 267 80 5 0 0 0 - - -;
#X floatatom 303 80 5 0 0 0 - - -;
#X floatatom 339 80 5 0 0 0 - - -;
#X floatatom 376 80 5 0 0 0 - - -;
#X floatatom 412 80 5 0 0 0 - - -;
#X floatatom 448 80 5 0 0 0 - - -;
#X floatatom 484 80 5 0 0 0 - - -;
#X floatatom 520 80 5 0 0 0 - - -;
#X floatatom 556 80 5 0 0 0 - - -;
#X obj 11 5 r count;
#X obj 11 22 mod 16;
#X obj 11 44 hradio 36 1 0 16 empty empty empty 0 -8 0 10 -262144 -1
-1 0;
#X obj 11 96 select 0 1 2 3 4 5 6 7 8 9 10 11 12 13 14 15;
#X obj 11 135 bng 15 250 50 0 empty empty empty 17 7 0 10 -262144 -1
-1;
#X obj 48 135 bng 15 250 50 0 empty empty empty 17 7 0 10 -262144 -1
-1;
#X obj 86 135 bng 15 250 50 0 empty empty empty 17 7 0 10 -262144 -1
-1;
#X obj 122 135 bng 15 250 50 0 empty empty empty 17 7 0 10 -262144
-1 -1;
#X obj 158 135 bng 15 250 50 0 empty empty empty 17 7 0 10 -262144
-1 -1;
#X obj 193 135 bng 15 250 50 0 empty empty empty 17 7 0 10 -262144
-1 -1;
#X obj 228 135 bng 15 250 50 0 empty empty empty 17 7 0 10 -262144
-1 -1;
#X obj 264 135 bng 15 250 50 0 empty empty empty 17 7 0 10 -262144
-1 -1;
#X obj 302 135 bng 15 250 50 0 empty empty empty 17 7 0 10 -262144
-1 -1;
#X obj 339 135 bng 15 250 50 0 empty empty empty 17 7 0 10 -262144
-1 -1;
#X obj 374 135 bng 15 250 50 0 empty empty empty 17 7 0 10 -262144
-1 -1;
#X obj 409 135 bng 15 250 50 0 empty empty empty 17 7 0 10 -262144
-1 -1;
#X obj 446 135 bng 15 250 50 0 empty empty empty 17 7 0 10 -262144
-1 -1;
#X obj 482 135 bng 15 250 50 0 empty empty empty 17 7 0 10 -262144
-1 -1;
#X obj 519 135 bng 15 250 50 0 empty empty empty 17 7 0 10 -262144
-1 -1;
#X obj 554 135 bng 15 250 50 0 empty empty empty 17 7 0 10 -262144
-1 -1;
#X text 595 81 trigger probability;
#X obj 11 113 trg;
#X obj 48 113 trg;
#X obj 86 113 trg;
#X obj 122 113 trg;
#X obj 158 113 trg;
#X obj 193 113 trg;
#X obj 228 113 trg;
#X obj 264 113 trg;
#X obj 302 113 trg;
#X obj 339 113 trg;
#X obj 374 113 trg;
#X obj 409 113 trg;
#X obj 446 113 trg;
#X obj 482 113 trg;
#X obj 519 113 trg;
#X obj 554 113 trg;
#N canvas 0 22 450 300 (subpatch) 0;
#X array cc7 64 float 1;
#A 0 0 0 0 0 0 0 1.8143 9.07149 12.7001 19.9573 27.2145 36.286 45.3575
52.6147 58.0576 67.1291 63.5005 43.5432 39.9146 38.1003 38.1003 38.1003
36.286 25.4002 23.5859 14.5144 9.07149 9.07149 9.07149 14.5144 21.7716
36.286 48.9861 54.429 58.0576 59.8719 59.8719 59.8719 59.8719 59.8719
59.8719 68.9434 74.3863 76.2006 85.2721 90.715 94.3436 90.715 52.6147
29.0288 21.7716 21.7716 21.7716 21.7716 21.7716 21.7716 27.2145 61.6862
70.7577 72.572 78.0149 65.3148 70.7577 110.672;
#X coords 0 127 63 0 576 70 1 0 0;
#X restore 12 171 graph;
#X obj 593 188 mod 64;
#X obj 593 171 r count_x4;
#X floatatom 593 225 5 0 0 0 - - -;
#N canvas 0 22 450 300 (subpatch) 0;
#X array cc8 64 float 1;
#A 0 0 0 0 0 0 0 0 0 0 0 0 0 0 0 0 0 1.81426 27.2139 50.7993 72.5704
56.2421 43.5423 38.0995 38.0995 34.471 27.2139 23.5854 19.9569 19.9569
27.2139 32.6567 36.2852 36.2852 36.2852 36.2852 36.2852 23.5854 14.5141
9.0713 0 0 0 0 0 0 0 0 0 0 0 0 0 0 0 38.0997 19.9569 0 0 0 0 0 0 0
0;
#X coords 0 127 63 0 576 70 1 0 0;
#X restore 12 260 graph;
#N canvas 0 22 450 300 (subpatch) 0;
#X array cc9 64 float 1;
#A 0 0 0 0 0 0 0 0 0 0 0 0 0 0 0 0 0 0 0 0 0 0 0 0 0 0 0 0 0 0 0 54.4281
52.6138 48.9853 39.9139 29.0283 25.3998 19.957 18.1427 36.2854 30.8426
19.957 78.0136 0 0 0 0 0 0 125.185 0 0 0 0 0 0 0 0 0 0 0 0 0 0 0;
#X coords 0 127 63 0 576 70 1 0 0;
#X restore 12 350 graph;
#X obj 593 277 mod 64;
#X obj 593 260 r count_x4;
#X floatatom 593 314 5 0 0 0 - - -;
#X obj 593 367 mod 64;
#X obj 593 350 r count_x4;
#X floatatom 593 404 5 0 0 0 - - -;
#X obj 656 420 outlet;
#X obj 700 420 outlet;
#X obj 744 420 outlet;
#X obj 583 150 outlet;
#X floatatom 672 273 5 0 0 0 - - -;
#X floatatom 672 363 5 0 0 0 - - -;
#X floatatom 667 184 5 0 0 0 - - -;
#X text 744 173 clear cc;
#X text 749 262 clear cc;
#X text 749 353 clear cc;
#X obj 667 162 ctlin 33 1 1;
#X obj 672 250 ctlin 34 1 1;
#X obj 673 340 ctlin 35 1 1;
#X obj 736 3 cnv 14 100 30 empty empty track_3 20 12 0 18 -233017 -66577
0;
#X obj 593 205 tabread cc7;
#X obj 667 205 tabwrite cc7;
#X msg 747 192 \; cc7 const 0 \;;
#X obj 593 294 tabread cc8;
#X obj 672 294 tabwrite cc8;
#X msg 752 281 \; cc8 const 0 \;;
#X obj 593 384 tabread cc9;
#X obj 672 384 tabwrite cc9;
#X msg 752 371 \; cc9 const 0 \;;
#X connect 0 0 37 1;
#X connect 1 0 38 1;
#X connect 2 0 39 1;
#X connect 3 0 40 1;
#X connect 4 0 41 1;
#X connect 5 0 42 1;
#X connect 6 0 43 1;
#X connect 7 0 44 1;
#X connect 8 0 45 1;
#X connect 9 0 46 1;
#X connect 10 0 47 1;
#X connect 11 0 48 1;
#X connect 12 0 49 1;
#X connect 13 0 50 1;
#X connect 14 0 51 1;
#X connect 15 0 52 1;
#X connect 16 0 17 0;
#X connect 17 0 18 0;
#X connect 18 0 19 0;
#X connect 19 0 37 0;
#X connect 19 1 38 0;
#X connect 19 2 39 0;
#X connect 19 3 40 0;
#X connect 19 4 41 0;
#X connect 19 5 42 0;
#X connect 19 6 43 0;
#X connect 19 7 44 0;
#X connect 19 8 45 0;
#X connect 19 9 46 0;
#X connect 19 10 47 0;
#X connect 19 11 48 0;
#X connect 19 12 49 0;
#X connect 19 13 50 0;
#X connect 19 14 51 0;
#X connect 19 15 52 0;
#X connect 20 0 68 0;
#X connect 21 0 68 0;
#X connect 22 0 68 0;
#X connect 23 0 68 0;
#X connect 24 0 68 0;
#X connect 25 0 68 0;
#X connect 26 0 68 0;
#X connect 27 0 68 0;
#X connect 28 0 68 0;
#X connect 29 0 68 0;
#X connect 30 0 68 0;
#X connect 31 0 68 0;
#X connect 32 0 68 0;
#X connect 33 0 68 0;
#X connect 34 0 68 0;
#X connect 35 0 68 0;
#X connect 37 0 20 0;
#X connect 38 0 21 0;
#X connect 39 0 22 0;
#X connect 40 0 23 0;
#X connect 41 0 24 0;
#X connect 42 0 25 0;
#X connect 43 0 26 0;
#X connect 44 0 27 0;
#X connect 45 0 28 0;
#X connect 46 0 29 0;
#X connect 47 0 30 0;
#X connect 48 0 31 0;
#X connect 49 0 32 0;
#X connect 50 0 33 0;
#X connect 51 0 34 0;
#X connect 52 0 35 0;
#X connect 54 0 79 0;
#X connect 54 0 80 1;
#X connect 55 0 54 0;
#X connect 56 0 65 0;
#X connect 59 0 82 0;
#X connect 59 0 83 1;
#X connect 60 0 59 0;
#X connect 61 0 66 0;
#X connect 62 0 85 0;
#X connect 62 0 86 1;
#X connect 63 0 62 0;
#X connect 64 0 67 0;
#X connect 69 0 83 0;
#X connect 70 0 86 0;
#X connect 71 0 80 0;
#X connect 75 0 71 0;
#X connect 76 0 69 0;
#X connect 77 0 70 0;
#X connect 79 0 56 0;
#X connect 82 0 61 0;
#X connect 85 0 64 0;
#X restore 207 131 pd track_3;
#N canvas 0 22 798 699 er1-part-3 0;
#X obj 41 48 cnv 15 560 190 empty empty ER-1_controller 10 110 0 20
-191237 -258113 0;
#X text 40 47 pitch;
#X obj 47 66 cnv 15 80 60 empty empty empty 20 12 0 14 -260097 -66577
0;
#X floatatom 49 72 5 0 127 0 - - -;
#X obj 137 67 cnv 15 80 60 empty empty empty 20 12 0 14 -257985 -66577
0;
#X floatatom 140 71 5 0 127 0 - - -;
#X text 83 47 mod depth;
#X obj 228 66 cnv 15 80 60 empty empty empty 20 12 0 14 -4034 -66577
0;
#X text 151 47 mod speed;
#X floatatom 230 70 5 0 127 0 - - -;
#X obj 229 150 cnv 15 80 60 empty empty empty 20 12 0 14 -4032 -66577
0;
#X floatatom 232 156 5 0 5 0 - - -;
#X text 345 46 mod type;
#X text 225 47 decay;
#X obj 420 66 cnv 15 80 60 empty empty empty 20 12 0 14 -159808 -66577
0;
#X text 286 47 level;
#X obj 328 152 cnv 15 80 60 empty empty empty 20 12 0 14 -201290 -66577
0;
#X floatatom 332 156 5 0 127 0 - - -;
#X text 450 45 pan;
#X obj 421 151 cnv 15 80 60 empty empty empty 20 12 0 14 -26724 -66577
0;
#X floatatom 424 155 5 0 127 0 - - -;
#X text 502 47 low boost;
#X obj 329 66 cnv 15 80 60 empty empty empty 20 12 0 14 -4160 -66577
0;
#X floatatom 331 70 5 0 127 0 - - -;
#X floatatom 422 69 5 0 127 0 - - -;
#X obj 40 163 cnv 1 1 1 empty empty sound_3 20 30 0 35 -228856 -66577
0;
#X text 64 85 pitch;
#X text 152 86 mod depth;
#X text 246 86 mod speed;
#X text 346 85 decay;
#X text 440 86 level;
#X text 248 171 mod type;
#X text 349 170 pan;
#X text 440 171 low boost;
#X obj 46 18 inlet;
#X obj 84 18 inlet;
#X obj 123 18 inlet;
#X obj 161 18 inlet;
#X obj 199 18 inlet;
#X obj 237 18 inlet;
#X obj 276 18 inlet;
#X obj 314 18 inlet;
#X obj 511 66 cnv 15 80 60 empty empty empty 20 12 0 14 -159808 -66577
0;
#X obj 352 18 inlet;
#X obj 514 71 nbx 1 14 0 1 0 0 empty empty empty 0 -8 0 10 -262144
-1 -1 0 256;
#X text 536 69 0:sine;
#X text 536 85 1:saw;
#X text 569 46 wave;
#N canvas 2331 254 450 300 pitch3 0;
#X obj 76 148 nbx 5 14 -1e+037 1e+037 0 1 empty empty empty 0 -8 0
10 -262144 -1 -1 22 256;
#X obj 140 149 nbx 5 14 -1e+037 1e+037 0 1 empty empty empty 0 -8 0
10 -262144 -1 -1 2 256;
#X obj 77 72 t f b b;
#X obj 77 47 inlet;
#X obj 76 173 ctlout 98 10;
#X obj 182 174 ctlout 99 10;
#X obj 280 173 ctlout 6 10;
#X connect 0 0 4 0;
#X connect 1 0 5 0;
#X connect 2 0 6 0;
#X connect 2 1 1 0;
#X connect 2 2 0 0;
#X connect 3 0 2 0;
#X restore 49 103 pd pitch3;
#N canvas 0 22 450 300 moddepth3 0;
#X obj 164 93 nbx 5 14 -1e+037 1e+037 0 1 empty empty empty 0 -8 0
10 -262144 -1 -1 26 256;
#X obj 228 94 nbx 5 14 -1e+037 1e+037 0 1 empty empty empty 0 -8 0
10 -262144 -1 -1 2 256;
#X obj 164 67 t f b b;
#X obj 164 42 inlet;
#X obj 164 118 ctlout 98 10;
#X obj 242 118 ctlout 99 10;
#X obj 321 118 ctlout 6 10;
#X connect 0 0 4 0;
#X connect 1 0 5 0;
#X connect 2 0 6 0;
#X connect 2 1 1 0;
#X connect 2 2 0 0;
#X connect 3 0 2 0;
#X restore 140 107 pd moddepth3;
#N canvas 0 22 450 300 modspeed3 0;
#X obj -99 72 nbx 5 14 -1e+037 1e+037 0 1 empty empty empty 0 -8 0
10 -262144 -1 -1 25 256;
#X obj -35 72 nbx 5 14 -1e+037 1e+037 0 1 empty empty empty 0 -8 0
10 -262144 -1 -1 2 256;
#X obj -99 48 t f b b;
#X obj -99 21 inlet;
#X obj 65 135 ctlout 6 10;
#X obj -15 93 ctlout 99 10;
#X obj -99 95 ctlout 98 10;
#X connect 0 0 6 0;
#X connect 1 0 5 0;
#X connect 2 0 4 0;
#X connect 2 1 1 0;
#X connect 2 2 0 0;
#X connect 3 0 2 0;
#X restore 230 107 pd modspeed3;
#N canvas 0 22 450 300 decay3 0;
#X obj -248 92 nbx 5 14 -1e+037 1e+037 0 1 empty empty empty 0 -8 0
10 -262144 -1 -1 28 256;
#X obj -184 92 nbx 5 14 -1e+037 1e+037 0 1 empty empty empty 0 -8 0
10 -262144 -1 -1 2 256;
#X obj -246 61 t f b b;
#X obj -246 34 inlet;
#X obj -248 119 ctlout 98 10;
#X obj -148 127 ctlout 99 10;
#X obj -41 132 ctlout 6 10;
#X connect 0 0 4 0;
#X connect 1 0 5 0;
#X connect 2 0 6 0;
#X connect 2 1 1 0;
#X connect 2 2 0 0;
#X connect 3 0 2 0;
#X restore 331 106 pd decay3;
#N canvas 0 22 450 300 level3 0;
#X obj -336 -127 nbx 5 14 -1e+037 1e+037 0 1 empty empty empty 0 -8
0 10 -262144 -1 -1 27 256;
#X obj -272 -127 nbx 5 14 -1e+037 1e+037 0 1 empty empty empty 0 -8
0 10 -262144 -1 -1 2 256;
#X obj -336 -154 t f b b;
#X obj -336 -183 inlet;
#X obj -336 -100 ctlout 98 10;
#X obj -239 -102 ctlout 99 10;
#X obj -141 -94 ctlout 6 10;
#X connect 0 0 4 0;
#X connect 1 0 5 0;
#X connect 2 0 6 0;
#X connect 2 1 1 0;
#X connect 2 2 0 0;
#X connect 3 0 2 0;
#X restore 422 106 pd level3;
#N canvas 695 348 450 300 wave3 0;
#X obj -336 -127 nbx 5 14 -1e+037 1e+037 0 1 empty empty empty 0 -8
0 10 -262144 -1 -1 23 256;
#X obj -272 -127 nbx 5 14 -1e+037 1e+037 0 1 empty empty empty 0 -8
0 10 -262144 -1 -1 2 256;
#X obj -336 -154 t f b b;
#X obj -336 -183 inlet;
#X obj -214 -171 select 0;
#X obj -154 -171 select 1;
#X obj -209 -127 nbx 5 14 -1e+037 1e+037 0 1 empty empty empty 0 -8
0 10 -262144 -1 -1 0 256;
#X obj -145 -127 nbx 5 14 -1e+037 1e+037 0 1 empty empty empty 0 -8
0 10 -262144 -1 -1 127 256;
#X obj -330 -99 ctlout 98 10;
#X obj -216 -98 ctlout 99 10;
#X obj -111 -92 ctlout 6 10;
#X connect 0 0 8 0;
#X connect 1 0 9 0;
#X connect 2 0 4 0;
#X connect 2 0 5 0;
#X connect 2 1 1 0;
#X connect 2 2 0 0;
#X connect 3 0 2 0;
#X connect 4 0 6 0;
#X connect 5 0 7 0;
#X connect 6 0 10 0;
#X connect 7 0 10 0;
#X restore 515 105 pd wave3;
#N canvas 0 22 450 300 modtype3 0;
#X obj -188 62 nbx 5 14 -1e+037 1e+037 0 1 empty empty empty 0 -8 0
10 -262144 -1 -1 24 256;
#X obj -124 62 nbx 5 14 -1e+037 1e+037 0 1 empty empty empty 0 -8 0
10 -262144 -1 -1 2 256;
#X obj -188 38 t f b b;
#X obj -187 12 inlet;
#X obj -186 85 ctlout 98 10;
#X obj -67 102 ctlout 99 10;
#X obj 48 118 ctlout 6 10;
#X connect 0 0 4 0;
#X connect 1 0 5 0;
#X connect 2 0 6 0;
#X connect 2 1 1 0;
#X connect 2 2 0 0;
#X connect 3 0 2 0;
#X restore 232 189 pd modtype3;
#N canvas 0 22 450 300 pan3 0;
#X obj 7 66 nbx 5 14 -1e+037 1e+037 0 1 empty empty empty 0 -8 0 10
-262144 -1 -1 21 256;
#X obj 71 66 nbx 5 14 -1e+037 1e+037 0 1 empty empty empty 0 -8 0 10
-262144 -1 -1 2 256;
#X obj 7 39 t f b b;
#X obj 7 10 inlet;
#X obj 7 93 ctlout 98 10;
#X obj 114 94 ctlout 99 10;
#X obj 226 110 ctlout 6 10;
#X connect 0 0 4 0;
#X connect 1 0 5 0;
#X connect 2 0 6 0;
#X connect 2 1 1 0;
#X connect 2 2 0 0;
#X connect 3 0 2 0;
#X restore 332 190 pd pan3;
#N canvas 0 22 450 300 lowboost3 0;
#X obj -74 -41 nbx 5 14 -1e+037 1e+037 0 1 empty empty empty 0 -8 0
10 -262144 -1 -1 20 256;
#X obj -10 -41 nbx 5 14 -1e+037 1e+037 0 1 empty empty empty 0 -8 0
10 -262144 -1 -1 2 256;
#X obj -74 -68 t f b b;
#X obj -74 -97 inlet;
#X obj -72 -14 ctlout 98 10;
#X obj 19 -8 ctlout 99 10;
#X obj 110 9 ctlout 6 10;
#X connect 0 0 4 0;
#X connect 1 0 5 0;
#X connect 2 0 6 0;
#X connect 2 1 1 0;
#X connect 2 2 0 0;
#X connect 3 0 2 0;
#X restore 424 189 pd lowboost3;
#X connect 3 0 48 0;
#X connect 5 0 49 0;
#X connect 9 0 50 0;
#X connect 11 0 54 0;
#X connect 17 0 55 0;
#X connect 20 0 56 0;
#X connect 23 0 51 0;
#X connect 24 0 52 0;
#X connect 34 0 3 0;
#X connect 35 0 5 0;
#X connect 36 0 9 0;
#X connect 37 0 11 0;
#X connect 38 0 23 0;
#X connect 39 0 24 0;
#X connect 40 0 17 0;
#X connect 41 0 20 0;
#X connect 43 0 44 0;
#X connect 44 0 53 0;
#X restore 217 162 pd er1-part-3;
#X obj 207 206 noteout;
#X msg 207 184 40 127 10;
#N canvas 2052 110 873 406 track_4 0;
#X floatatom 16 80 5 0 100 0 - - -;
#X floatatom 52 80 5 0 0 0 - - -;
#X floatatom 88 80 5 0 0 0 - - -;
#X floatatom 124 80 5 0 0 0 - - -;
#X floatatom 159 80 5 0 0 0 - - -;
#X floatatom 196 80 5 0 0 0 - - -;
#X floatatom 231 80 5 0 0 0 - - -;
#X floatatom 267 80 5 0 0 0 - - -;
#X floatatom 303 80 5 0 0 0 - - -;
#X floatatom 339 80 5 0 0 0 - - -;
#X floatatom 376 80 5 0 0 0 - - -;
#X floatatom 412 80 5 0 0 0 - - -;
#X floatatom 448 80 5 0 0 0 - - -;
#X floatatom 484 80 5 0 0 0 - - -;
#X floatatom 520 80 5 0 0 0 - - -;
#X floatatom 556 80 5 0 0 0 - - -;
#X obj 11 5 r count;
#X obj 11 22 mod 16;
#X obj 11 44 hradio 36 1 0 16 empty empty empty 0 -8 0 10 -262144 -1
-1 0;
#X obj 11 96 select 0 1 2 3 4 5 6 7 8 9 10 11 12 13 14 15;
#X obj 11 135 bng 15 250 50 0 empty empty empty 17 7 0 10 -262144 -1
-1;
#X obj 48 135 bng 15 250 50 0 empty empty empty 17 7 0 10 -262144 -1
-1;
#X obj 86 135 bng 15 250 50 0 empty empty empty 17 7 0 10 -262144 -1
-1;
#X obj 122 135 bng 15 250 50 0 empty empty empty 17 7 0 10 -262144
-1 -1;
#X obj 158 135 bng 15 250 50 0 empty empty empty 17 7 0 10 -262144
-1 -1;
#X obj 193 135 bng 15 250 50 0 empty empty empty 17 7 0 10 -262144
-1 -1;
#X obj 228 135 bng 15 250 50 0 empty empty empty 17 7 0 10 -262144
-1 -1;
#X obj 264 135 bng 15 250 50 0 empty empty empty 17 7 0 10 -262144
-1 -1;
#X obj 302 135 bng 15 250 50 0 empty empty empty 17 7 0 10 -262144
-1 -1;
#X obj 339 135 bng 15 250 50 0 empty empty empty 17 7 0 10 -262144
-1 -1;
#X obj 374 135 bng 15 250 50 0 empty empty empty 17 7 0 10 -262144
-1 -1;
#X obj 409 135 bng 15 250 50 0 empty empty empty 17 7 0 10 -262144
-1 -1;
#X obj 446 135 bng 15 250 50 0 empty empty empty 17 7 0 10 -262144
-1 -1;
#X obj 482 135 bng 15 250 50 0 empty empty empty 17 7 0 10 -262144
-1 -1;
#X obj 519 135 bng 15 250 50 0 empty empty empty 17 7 0 10 -262144
-1 -1;
#X obj 554 135 bng 15 250 50 0 empty empty empty 17 7 0 10 -262144
-1 -1;
#X text 595 81 trigger probability;
#X obj 11 113 trg;
#X obj 48 113 trg;
#X obj 86 113 trg;
#X obj 122 113 trg;
#X obj 158 113 trg;
#X obj 193 113 trg;
#X obj 228 113 trg;
#X obj 264 113 trg;
#X obj 302 113 trg;
#X obj 339 113 trg;
#X obj 374 113 trg;
#X obj 409 113 trg;
#X obj 446 113 trg;
#X obj 482 113 trg;
#X obj 519 113 trg;
#X obj 554 113 trg;
#N canvas 0 22 450 300 (subpatch) 0;
#X array cc10 64 float 1;
#A 0 0 0 0 0 0 0 0 0 0 0 0 0 0 0 0 0 0 0 0 0 21.7716 43.5432 59.8719
72.572 79.8292 81.6435 81.6435 81.6435 81.6435 78.0149 76.2006 70.7577
65.3148 59.8719 52.6147 52.6147 54.429 67.1291 78.0149 83.4578 88.9007
92.5293 94.3436 94.3436 94.3436 94.3436 94.3436 92.5293 87.0864 79.8292
79.8292 79.8292 79.8292 117.93 110.672 90.715 83.4578 74.3863 63.5005
50.8004 39.9146 36.286 0 0;
#X coords 0 127 63 0 576 70 1 0 0;
#X restore 12 171 graph;
#X obj 593 188 mod 64;
#X obj 593 171 r count_x4;
#X floatatom 593 225 5 0 0 0 - - -;
#N canvas 0 22 450 300 (subpatch) 0;
#X array cc11 64 float 1;
#A 0 0 0 0 0 0 0 0 0 0 0 0 0 23.5854 25.3997 38.0995 52.6136 68.9419
76.199 87.0846 94.3416 97.9701 97.9701 92.5274 83.456 74.3847 65.3134
63.4992 59.8707 59.8707 56.2421 56.2421 54.4279 52.6136 52.6136 50.7993
50.7993 47.1708 45.3566 43.5423 39.9138 36.2853 36.2853 29.0282 23.5854
21.7712 19.9569 16.3284 16.3284 16.3284 16.3284 16.3284 16.3284 16.3284
16.3284 16.3284 19.9569 0 0 0 0 0 0 0 0;
#X coords 0 127 63 0 576 70 1 0 0;
#X restore 12 260 graph;
#N canvas 0 22 450 300 (subpatch) 0;
#X array cc12 64 float 1;
#A 0 0 0 0 0 0 0 0 0 0 0 0 0 0 0 0 0 0 0 0 0 0 0 0 0 0 0 0 0 0 0 54.4281
52.6138 48.9853 39.9139 29.0283 25.3998 19.957 18.1427 36.2854 30.8426
19.957 78.0136 0 0 0 0 0 0 125.185 0 0 0 0 0 0 0 0 0 0 0 0 0 0 0;
#X coords 0 127 63 0 576 70 1 0 0;
#X restore 12 350 graph;
#X obj 593 277 mod 64;
#X obj 593 260 r count_x4;
#X floatatom 593 314 5 0 0 0 - - -;
#X obj 593 367 mod 64;
#X obj 593 350 r count_x4;
#X floatatom 593 404 5 0 0 0 - - -;
#X obj 656 420 outlet;
#X obj 700 420 outlet;
#X obj 744 420 outlet;
#X obj 583 150 outlet;
#X floatatom 672 273 5 0 0 0 - - -;
#X floatatom 672 363 5 0 0 0 - - -;
#X floatatom 671 184 5 0 0 0 - - -;
#X text 754 173 clear cc;
#X text 762 262 clear cc;
#X text 749 353 clear cc;
#X obj 671 162 ctlin 33 1 1;
#X obj 672 250 ctlin 34 1 1;
#X obj 673 340 ctlin 35 1 1;
#X obj 736 3 cnv 14 100 30 empty empty track_4 20 12 0 18 -233017 -66577
0;
#X obj 593 384 tabread cc12;
#X obj 672 384 tabwrite cc12;
#X msg 758 371 \; cc12 const 0 \;;
#X obj 593 294 tabread cc11;
#X obj 672 294 tabwrite cc11;
#X msg 759 281 \; cc11 const 0 \;;
#X obj 593 205 tabread cc10;
#X obj 671 205 tabwrite cc10;
#X msg 757 192 \; cc10 const 0 \;;
#X connect 0 0 37 1;
#X connect 1 0 38 1;
#X connect 2 0 39 1;
#X connect 3 0 40 1;
#X connect 4 0 41 1;
#X connect 5 0 42 1;
#X connect 6 0 43 1;
#X connect 7 0 44 1;
#X connect 8 0 45 1;
#X connect 9 0 46 1;
#X connect 10 0 47 1;
#X connect 11 0 48 1;
#X connect 12 0 49 1;
#X connect 13 0 50 1;
#X connect 14 0 51 1;
#X connect 15 0 52 1;
#X connect 16 0 17 0;
#X connect 17 0 18 0;
#X connect 18 0 19 0;
#X connect 19 0 37 0;
#X connect 19 1 38 0;
#X connect 19 2 39 0;
#X connect 19 3 40 0;
#X connect 19 4 41 0;
#X connect 19 5 42 0;
#X connect 19 6 43 0;
#X connect 19 7 44 0;
#X connect 19 8 45 0;
#X connect 19 9 46 0;
#X connect 19 10 47 0;
#X connect 19 11 48 0;
#X connect 19 12 49 0;
#X connect 19 13 50 0;
#X connect 19 14 51 0;
#X connect 19 15 52 0;
#X connect 20 0 68 0;
#X connect 21 0 68 0;
#X connect 22 0 68 0;
#X connect 23 0 68 0;
#X connect 24 0 68 0;
#X connect 25 0 68 0;
#X connect 26 0 68 0;
#X connect 27 0 68 0;
#X connect 28 0 68 0;
#X connect 29 0 68 0;
#X connect 30 0 68 0;
#X connect 31 0 68 0;
#X connect 32 0 68 0;
#X connect 33 0 68 0;
#X connect 34 0 68 0;
#X connect 35 0 68 0;
#X connect 37 0 20 0;
#X connect 38 0 21 0;
#X connect 39 0 22 0;
#X connect 40 0 23 0;
#X connect 41 0 24 0;
#X connect 42 0 25 0;
#X connect 43 0 26 0;
#X connect 44 0 27 0;
#X connect 45 0 28 0;
#X connect 46 0 29 0;
#X connect 47 0 30 0;
#X connect 48 0 31 0;
#X connect 49 0 32 0;
#X connect 50 0 33 0;
#X connect 51 0 34 0;
#X connect 52 0 35 0;
#X connect 54 0 85 0;
#X connect 54 0 86 1;
#X connect 55 0 54 0;
#X connect 56 0 65 0;
#X connect 59 0 82 0;
#X connect 59 0 83 1;
#X connect 60 0 59 0;
#X connect 61 0 66 0;
#X connect 62 0 79 0;
#X connect 62 0 80 1;
#X connect 63 0 62 0;
#X connect 64 0 67 0;
#X connect 69 0 83 0;
#X connect 70 0 80 0;
#X connect 71 0 86 0;
#X connect 75 0 71 0;
#X connect 76 0 69 0;
#X connect 77 0 70 0;
#X connect 79 0 64 0;
#X connect 82 0 61 0;
#X connect 85 0 56 0;
#X restore 305 131 pd track_4;
#N canvas 313 22 798 699 er1-part-4 0;
#X obj 41 48 cnv 15 560 190 empty empty ER-1_controller 10 110 0 20
-191237 -258113 0;
#X text 40 47 pitch;
#X obj 47 66 cnv 15 80 60 empty empty empty 20 12 0 14 -260097 -66577
0;
#X floatatom 49 72 5 0 127 0 - - -;
#X obj 137 67 cnv 15 80 60 empty empty empty 20 12 0 14 -257985 -66577
0;
#X floatatom 140 71 5 0 127 0 - - -;
#X text 83 47 mod depth;
#X obj 228 66 cnv 15 80 60 empty empty empty 20 12 0 14 -4034 -66577
0;
#X text 151 47 mod speed;
#X floatatom 230 70 5 0 127 0 - - -;
#X obj 229 150 cnv 15 80 60 empty empty empty 20 12 0 14 -4032 -66577
0;
#X floatatom 232 156 5 0 5 0 - - -;
#X text 345 46 mod type;
#X text 225 47 decay;
#X obj 420 66 cnv 15 80 60 empty empty empty 20 12 0 14 -159808 -66577
0;
#X text 286 47 level;
#X obj 328 152 cnv 15 80 60 empty empty empty 20 12 0 14 -201290 -66577
0;
#X floatatom 332 156 5 0 127 0 - - -;
#X text 450 45 pan;
#X obj 421 151 cnv 15 80 60 empty empty empty 20 12 0 14 -26724 -66577
0;
#X floatatom 424 155 5 0 127 0 - - -;
#X text 502 47 low boost;
#X obj 329 66 cnv 15 80 60 empty empty empty 20 12 0 14 -4160 -66577
0;
#X floatatom 331 70 5 0 127 0 - - -;
#X floatatom 422 69 5 0 127 0 - - -;
#X obj 40 163 cnv 1 1 1 empty empty sound_4 20 30 0 35 -228856 -66577
0;
#X text 64 85 pitch;
#X text 152 86 mod depth;
#X text 246 86 mod speed;
#X text 346 85 decay;
#X text 440 86 level;
#X text 248 171 mod type;
#X text 349 170 pan;
#X text 438 171 low boost;
#X obj 46 18 inlet;
#X obj 84 18 inlet;
#X obj 123 18 inlet;
#X obj 161 18 inlet;
#X obj 199 18 inlet;
#X obj 237 18 inlet;
#X obj 276 18 inlet;
#X obj 314 18 inlet;
#X obj 511 66 cnv 15 80 60 empty empty empty 20 12 0 14 -159808 -66577
0;
#X obj 352 18 inlet;
#X obj 514 71 nbx 1 14 0 1 0 0 empty empty empty 0 -8 0 10 -262144
-1 -1 0 256;
#X text 536 69 0:sine;
#X text 536 85 1:saw;
#X text 569 46 wave;
#N canvas 0 22 450 300 pitch4 0;
#X obj 67 88 nbx 5 14 -1e+037 1e+037 0 1 empty empty empty 0 -8 0 10
-262144 -1 -1 32 256;
#X obj 131 89 nbx 5 14 -1e+037 1e+037 0 1 empty empty empty 0 -8 0
10 -262144 -1 -1 2 256;
#X obj 67 62 t f b b;
#X obj 67 37 inlet;
#X obj 67 113 ctlout 98 10;
#X obj 173 114 ctlout 99 10;
#X obj 271 113 ctlout 6 10;
#X connect 0 0 4 0;
#X connect 1 0 5 0;
#X connect 2 0 6 0;
#X connect 2 1 1 0;
#X connect 2 2 0 0;
#X connect 3 0 2 0;
#X restore 49 103 pd pitch4;
#N canvas 0 22 450 300 moddepth4 0;
#X obj 164 93 nbx 5 14 -1e+037 1e+037 0 1 empty empty empty 0 -8 0
10 -262144 -1 -1 36 256;
#X obj 228 94 nbx 5 14 -1e+037 1e+037 0 1 empty empty empty 0 -8 0
10 -262144 -1 -1 2 256;
#X obj 164 67 t f b b;
#X obj 164 42 inlet;
#X obj 164 118 ctlout 98 10;
#X obj 248 121 ctlout 99 10;
#X obj 340 128 ctlout 6 10;
#X connect 0 0 4 0;
#X connect 1 0 5 0;
#X connect 2 0 6 0;
#X connect 2 1 1 0;
#X connect 2 2 0 0;
#X connect 3 0 2 0;
#X restore 140 107 pd moddepth4;
#N canvas 0 22 450 300 modspeed4 0;
#X obj -99 72 nbx 5 14 -1e+037 1e+037 0 1 empty empty empty 0 -8 0
10 -262144 -1 -1 35 256;
#X obj -35 72 nbx 5 14 -1e+037 1e+037 0 1 empty empty empty 0 -8 0
10 -262144 -1 -1 2 256;
#X obj -99 48 t f b b;
#X obj -99 21 inlet;
#X obj -99 95 ctlout 98 10;
#X obj 3 102 ctlout 99 10;
#X obj 109 106 ctlout 6 10;
#X connect 0 0 4 0;
#X connect 1 0 5 0;
#X connect 2 0 6 0;
#X connect 2 1 1 0;
#X connect 2 2 0 0;
#X connect 3 0 2 0;
#X restore 230 107 pd modspeed4;
#N canvas 0 22 450 300 decay4 0;
#X obj -248 92 nbx 5 14 -1e+037 1e+037 0 1 empty empty empty 0 -8 0
10 -262144 -1 -1 38 256;
#X obj -184 92 nbx 5 14 -1e+037 1e+037 0 1 empty empty empty 0 -8 0
10 -262144 -1 -1 2 256;
#X obj -246 61 t f b b;
#X obj -246 34 inlet;
#X obj -249 119 ctlout 98 10;
#X obj -140 147 ctlout 99 10;
#X obj -39 158 ctlout 6 10;
#X connect 0 0 4 0;
#X connect 1 0 5 0;
#X connect 2 0 6 0;
#X connect 2 1 1 0;
#X connect 2 2 0 0;
#X connect 3 0 2 0;
#X restore 331 106 pd decay4;
#N canvas 0 22 450 300 level4 0;
#X obj -336 -127 nbx 5 14 -1e+037 1e+037 0 1 empty empty empty 0 -8
0 10 -262144 -1 -1 37 256;
#X obj -272 -127 nbx 5 14 -1e+037 1e+037 0 1 empty empty empty 0 -8
0 10 -262144 -1 -1 2 256;
#X obj -336 -154 t f b b;
#X obj -336 -183 inlet;
#X obj -336 -100 ctlout 98 10;
#X obj -241 -98 ctlout 99 10;
#X obj -135 -88 ctlout 6 10;
#X connect 0 0 4 0;
#X connect 1 0 5 0;
#X connect 2 0 6 0;
#X connect 2 1 1 0;
#X connect 2 2 0 0;
#X connect 3 0 2 0;
#X restore 422 106 pd level4;
#N canvas 695 348 450 300 wave4 0;
#X obj -336 -127 nbx 5 14 -1e+037 1e+037 0 1 empty empty empty 0 -8
0 10 -262144 -1 -1 33 256;
#X obj -272 -127 nbx 5 14 -1e+037 1e+037 0 1 empty empty empty 0 -8
0 10 -262144 -1 -1 2 256;
#X obj -336 -154 t f b b;
#X obj -336 -183 inlet;
#X obj -214 -171 select 0;
#X obj -154 -171 select 1;
#X obj -209 -127 nbx 5 14 -1e+037 1e+037 0 1 empty empty empty 0 -8
0 10 -262144 -1 -1 0 256;
#X obj -145 -127 nbx 5 14 -1e+037 1e+037 0 1 empty empty empty 0 -8
0 10 -262144 -1 -1 127 256;
#X obj -328 -100 ctlout 98 10;
#X obj -234 -87 ctlout 99 10;
#X obj -128 -85 ctlout 6 10;
#X connect 0 0 8 0;
#X connect 1 0 9 0;
#X connect 2 0 4 0;
#X connect 2 0 5 0;
#X connect 2 1 1 0;
#X connect 2 2 0 0;
#X connect 3 0 2 0;
#X connect 4 0 6 0;
#X connect 5 0 7 0;
#X connect 6 0 10 0;
#X connect 7 0 10 0;
#X restore 514 106 pd wave4;
#N canvas 0 22 450 300 lowboost4 0;
#X obj -74 -41 nbx 5 14 -1e+037 1e+037 0 1 empty empty empty 0 -8 0
10 -262144 -1 -1 30 256;
#X obj -10 -41 nbx 5 14 -1e+037 1e+037 0 1 empty empty empty 0 -8 0
10 -262144 -1 -1 2 256;
#X obj -74 -68 t f b b;
#X obj -74 -97 inlet;
#X obj -74 -14 ctlout 98 10;
#X obj 23 -1 ctlout 99 10;
#X obj 123 -6 ctlout 6 10;
#X connect 0 0 4 0;
#X connect 1 0 5 0;
#X connect 2 0 6 0;
#X connect 2 1 1 0;
#X connect 2 2 0 0;
#X connect 3 0 2 0;
#X restore 424 189 pd lowboost4;
#N canvas 0 22 450 300 pan4 0;
#X obj 7 66 nbx 5 14 -1e+037 1e+037 0 1 empty empty empty 0 -8 0 10
-262144 -1 -1 31 256;
#X obj 71 66 nbx 5 14 -1e+037 1e+037 0 1 empty empty empty 0 -8 0 10
-262144 -1 -1 2 256;
#X obj 7 39 t f b b;
#X obj 7 10 inlet;
#X obj 10 92 ctlout 98 10;
#X obj 95 93 ctlout 99 10;
#X obj 202 95 ctlout 6 10;
#X connect 0 0 4 0;
#X connect 1 0 5 0;
#X connect 2 0 6 0;
#X connect 2 1 1 0;
#X connect 2 2 0 0;
#X connect 3 0 2 0;
#X restore 332 190 pd pan4;
#N canvas 0 22 450 300 modtype4 0;
#X obj -188 62 nbx 5 14 -1e+037 1e+037 0 1 empty empty empty 0 -8 0
10 -262144 -1 -1 34 256;
#X obj -124 62 nbx 5 14 -1e+037 1e+037 0 1 empty empty empty 0 -8 0
10 -262144 -1 -1 2 256;
#X obj -188 38 t f b b;
#X obj -187 12 inlet;
#X obj -188 85 ctlout 98 10;
#X obj -83 90 ctlout 99 10;
#X obj 21 91 ctlout 6 10;
#X connect 0 0 4 0;
#X connect 1 0 5 0;
#X connect 2 0 6 0;
#X connect 2 1 1 0;
#X connect 2 2 0 0;
#X connect 3 0 2 0;
#X restore 232 189 pd modtype4;
#X connect 3 0 48 0;
#X connect 5 0 49 0;
#X connect 9 0 50 0;
#X connect 11 0 56 0;
#X connect 17 0 55 0;
#X connect 20 0 54 0;
#X connect 23 0 51 0;
#X connect 24 0 52 0;
#X connect 34 0 3 0;
#X connect 35 0 5 0;
#X connect 36 0 9 0;
#X connect 37 0 11 0;
#X connect 38 0 23 0;
#X connect 39 0 24 0;
#X connect 40 0 17 0;
#X connect 41 0 20 0;
#X connect 43 0 44 0;
#X connect 44 0 53 0;
#X restore 314 162 pd er1-part-4;
#X obj 305 206 noteout;
#X msg 305 184 41 127 10;
#N canvas 1888 281 652 300 er1-global 0;
#X obj 57 75 cnv 15 80 60 empty empty empty 20 12 0 14 -260097 -66577
0;
#X floatatom 59 81 5 0 127 0 - - -;
#X obj 147 76 cnv 15 80 60 empty empty empty 20 12 0 14 -257985 -66577
0;
#X floatatom 150 80 5 0 127 0 - - -;
#X obj 238 75 cnv 15 80 60 empty empty empty 20 12 0 14 -4034 -66577
0;
#X floatatom 240 79 5 0 127 0 - - -;
#X obj 339 75 cnv 15 80 60 empty empty empty 20 12 0 14 -4160 -66577
0;
#X floatatom 343 80 5 0 127 0 - - -;
#X obj 50 173 cnv 1 1 1 empty empty global 20 30 0 35 -228856 -66577
0;
#X obj 56 28 inlet;
#X obj 94 28 inlet;
#X obj 133 28 inlet;
#X obj 172 28 inlet;
#X text 63 94 delay depth;
#X text 155 95 delay time;
#X text 256 95 ring1;
#X text 356 94 ring2;
#N canvas 1027 180 450 300 delaydepth 0;
#X obj 22 130 nbx 5 14 -1e+037 1e+037 0 1 empty empty empty 0 -8 0
10 -262144 -1 -1 64 256;
#X obj 86 131 nbx 5 14 -1e+037 1e+037 0 1 empty empty empty 0 -8 0
10 -262144 -1 -1 2 256;
#X obj 24 42 t f b b;
#X obj 24 17 inlet;
#X obj 22 155 ctlout 98 10;
#X obj 112 154 ctlout 99 10;
#X obj 219 154 ctlout 6 10;
#X connect 0 0 4 0;
#X connect 1 0 5 0;
#X connect 2 0 6 0;
#X connect 2 1 1 0;
#X connect 2 2 0 0;
#X connect 3 0 2 0;
#X restore 59 115 pd delaydepth;
#N canvas 858 304 450 300 delaytime 0;
#X obj 164 93 nbx 5 14 -1e+037 1e+037 0 1 empty empty empty 0 -8 0
10 -262144 -1 -1 65 256;
#X obj 228 94 nbx 5 14 -1e+037 1e+037 0 1 empty empty empty 0 -8 0
10 -262144 -1 -1 2 256;
#X obj 164 67 t f b b;
#X obj 164 42 inlet;
#X obj 145 119 ctlout 98 10;
#X obj 228 118 ctlout 99 10;
#X obj 315 118 ctlout 6 10;
#X connect 0 0 4 0;
#X connect 1 0 5 0;
#X connect 2 0 6 0;
#X connect 2 1 1 0;
#X connect 2 2 0 0;
#X connect 3 0 2 0;
#X restore 150 116 pd delaytime;
#N canvas 22 22 450 300 ring1 0;
#X obj -99 72 nbx 5 14 -1e+037 1e+037 0 1 empty empty empty 0 -8 0
10 -262144 -1 -1 66 256;
#X obj -35 72 nbx 5 14 -1e+037 1e+037 0 1 empty empty empty 0 -8 0
10 -262144 -1 -1 2 256;
#X obj -99 48 t f b b;
#X obj -99 21 inlet;
#X obj -100 95 ctlout 98 10;
#X obj -16 94 ctlout 99 10;
#X obj 76 96 ctlout 6 10;
#X connect 0 0 4 0;
#X connect 1 0 5 0;
#X connect 2 0 6 0;
#X connect 2 1 1 0;
#X connect 2 2 0 0;
#X connect 3 0 2 0;
#X restore 240 116 pd ring1;
#N canvas 0 22 450 300 ring2 0;
#X obj -248 92 nbx 5 14 -1e+037 1e+037 0 1 empty empty empty 0 -8 0
10 -262144 -1 -1 67 256;
#X obj -184 92 nbx 5 14 -1e+037 1e+037 0 1 empty empty empty 0 -8 0
10 -262144 -1 -1 2 256;
#X obj -246 61 t f b b;
#X obj -246 34 inlet;
#X obj -245 119 ctlout 98 10;
#X obj -166 118 ctlout 99 10;
#X obj -82 120 ctlout 6 10;
#X connect 0 0 4 0;
#X connect 1 0 5 0;
#X connect 2 0 6 0;
#X connect 2 1 1 0;
#X connect 2 2 0 0;
#X connect 3 0 2 0;
#X restore 341 115 pd ring2;
#X connect 3 0 18 0;
#X connect 5 0 19 0;
#X connect 7 0 20 0;
#X connect 9 0 1 0;
#X connect 10 0 3 0;
#X connect 11 0 5 0;
#X connect 12 0 7 0;
#X restore 411 162 pd er1-global;
#X obj 7 273 kp3;
#X floatatom 51 241 5 0 127 0 - - -;
#X floatatom 96 241 5 0 127 0 - - -;
#X obj 7 240 tgl 15 0 empty empty empty 17 7 0 10 -262144 -1 -1 0 1
;
#X connect 1 0 3 0;
#X connect 2 0 3 1;
#X connect 3 0 4 0;
#X connect 3 1 5 0;
#X connect 6 0 1 0;
#X connect 7 0 10 0;
#X connect 7 1 8 0;
#X connect 7 2 8 2;
#X connect 10 0 9 0;
#X connect 11 0 14 0;
#X connect 11 1 12 2;
#X connect 11 2 12 0;
#X connect 11 3 12 6;
#X connect 14 0 13 0;
#X connect 15 0 18 0;
#X connect 18 0 17 0;
#X connect 19 0 22 0;
#X connect 22 0 21 0;
#X connect 25 0 24 1;
#X connect 26 0 24 2;
#X connect 27 0 24 0;
