#N canvas 1592 -8 1600 817 10;
#X text 114 -2 run/stop;
#X obj 96 0 tgl 15 0 empty empty empty 17 7 0 10 -262144 -1 -1 0 1
;
#X obj 177 0 nbx 5 14 1 1000 0 1 empty empty empty 0 -8 0 10 -262144
-1 -1 156 256;
#N canvas 646 341 450 300 transport 0;
#X obj 111 131 float;
#X obj 161 130 + 1;
#X floatatom 111 152 5 0 0 0 - - -, f 5;
#X obj 111 189 s count;
#X obj 58 215 sel 1;
#X obj 110 215 sel 0;
#X obj 111 100 metro;
#X obj 58 44 inlet;
#X obj 138 44 inlet;
#X obj 58 242 outlet;
#X obj 110 242 outlet;
#X text 57 32 comment;
#X obj 138 74 expr 15000 / $f1;
#X obj 246 192 s count_x4;
#X obj 246 107 metro;
#X obj 246 130 float;
#X obj 296 129 + 1;
#X obj 273 74 expr 3750 / $f1;
#X floatatom 246 151 5 0 0 0 - - -, f 5;
#X floatatom 151 215 5 0 0 0 - - -, f 5;
#X connect 0 0 1 0;
#X connect 0 0 2 0;
#X connect 1 0 0 1;
#X connect 2 0 3 0;
#X connect 4 0 9 0;
#X connect 5 0 10 0;
#X connect 5 0 19 0;
#X connect 6 0 0 0;
#X connect 7 0 4 0;
#X connect 7 0 5 0;
#X connect 7 0 6 0;
#X connect 7 0 14 0;
#X connect 8 0 12 0;
#X connect 8 0 17 0;
#X connect 12 0 6 1;
#X connect 14 0 15 0;
#X connect 15 0 16 0;
#X connect 15 0 18 0;
#X connect 16 0 15 1;
#X connect 17 0 14 1;
#X connect 18 0 13 0;
#X connect 19 0 0 1;
#X connect 19 0 15 1;
#X restore 4 19 pd transport;
#X obj 96 19 s start;
#X obj 152 19 s stop;
#N canvas 165 81 450 300 osc-input 0;
#X obj 24 72 unpackOSC;
#X obj 24 43 udpreceive 9001;
#X obj 145 140 routeOSC /str;
#X obj 24 138 outlet;
#X obj 23 9 import mrpeach;
#X obj 24 109 routeOSC /play /beat;
#X connect 0 0 5 0;
#X connect 1 0 0 0;
#X connect 5 0 3 0;
#X connect 5 2 2 0;
#X restore 4 2 pd osc-input;
#X obj 933 1088 kp3;
#X obj 916 1089 tgl 15 0 empty empty empty 17 7 0 10 -262144 -1 -1
0 1;
#X floatatom 6 95 5 0 100 0 - - -, f 5;
#X floatatom 39 95 5 0 100 0 - - -, f 5;
#X floatatom 72 95 5 0 100 0 - - -, f 5;
#X floatatom 105 95 5 0 100 0 - - -, f 5;
#X floatatom 147 95 5 0 100 0 - - -, f 5;
#X floatatom 180 95 5 0 100 0 - - -, f 5;
#X floatatom 213 95 5 0 100 0 - - -, f 5;
#X floatatom 246 95 5 0 100 0 - - -, f 5;
#X floatatom 289 95 5 0 100 0 - - -, f 5;
#X floatatom 322 95 5 0 100 0 - - -, f 5;
#X floatatom 355 95 5 0 100 0 - - -, f 5;
#X floatatom 388 95 5 0 100 0 - - -, f 5;
#X floatatom 430 95 5 0 100 0 - - -, f 5;
#X floatatom 463 95 5 0 100 0 - - -, f 5;
#X floatatom 496 95 5 0 100 0 - - -, f 5;
#X floatatom 529 95 5 0 100 0 - - -, f 5;
#X obj 4 41 r count;
#X obj 3 59 hradio 35 1 0 16 empty empty empty 0 -8 0 10 -262144 -1
-1 5;
#X obj 3 111 select 0 1 2 3 4 5 6 7 8 9 10 11 12 13 14 15;
#X obj 3 128 trg;
#X obj 40 128 trg;
#X obj 78 128 trg;
#X obj 114 128 trg;
#X obj 150 128 trg;
#X obj 185 128 trg;
#X obj 220 128 trg;
#X obj 256 128 trg;
#X obj 294 128 trg;
#X obj 331 128 trg;
#X obj 366 128 trg;
#X obj 401 128 trg;
#X obj 438 128 trg;
#X obj 474 128 trg;
#X obj 511 128 trg;
#X obj 546 128 trg;
#X obj 522 145 noteout;
#X msg 412 144 36 127 10;
#X obj 87 42 nbx 5 14 -1e+037 1e+037 0 1 empty empty empty 0 -8 0 10
-262144 -1 -1 16 256;
#X obj 58 42 mod;
#X obj 912 55 r count_x4;
#X obj 912 72 tabread cc1;
#X floatatom 912 89 5 0 0 0 - - -, f 5;
#X msg 1181 55 \; cc1 const 0 \;;
#X msg 1180 161 \; cc2 const 0 \;;
#X text 1178 36 clear cc;
#X text 1177 140 clear cc;
#X obj 1016 55 nbx 5 14 -1e+037 1e+037 0 1 empty empty empty 0 -8 0
10 -262144 -1 -1 64 256;
#X obj 989 55 mod;
#X obj 1096 41 vradio 10 1 1 10 empty empty empty 0 -8 0 10 -262144
-1 -1 9;
#X obj 478 145 spigot;
#X obj 238 42 tgl 15 1 empty empty empty 17 7 0 10 -262144 -1 -1 1
1;
#X text 257 40 midi on/off;
#N canvas 1685 211 854 500 er1-parameter-send 0;
#X obj -370 25 inlet;
#X obj -199 25 inlet;
#X obj -370 78 s pitch1;
#X obj -350 95 s moddepth1;
#X obj -330 114 s modspeed1;
#X obj -309 133 s modtype1;
#X obj -289 156 s decay1;
#X obj -269 175 s level1;
#X obj -248 192 s pan1;
#X obj -228 210 s lowboost1;
#X obj -208 228 s wave1;
#X obj -370 49 demultiplex 0 1 2 3 4 5 6 7 8 9;
#X connect 0 0 11 0;
#X connect 1 0 11 1;
#X connect 11 0 2 0;
#X connect 11 1 3 0;
#X connect 11 2 4 0;
#X connect 11 3 5 0;
#X connect 11 4 6 0;
#X connect 11 5 7 0;
#X connect 11 6 8 0;
#X connect 11 7 9 0;
#X connect 11 8 10 0;
#X restore 912 105 pd er1-parameter-send;
#N canvas 2185 140 751 542 er1-parameter-receive 0;
#N canvas 1691 214 697 322 er1-part-1 0;
#X obj 41 48 cnv 15 560 190 empty empty ER-1_controller 10 110 0 20
-191237 -258113 0;
#X text 40 47 pitch;
#X obj 47 66 cnv 15 80 60 empty empty empty 20 12 0 14 -260097 -66577
0;
#X floatatom 49 72 5 0 127 0 - - -, f 5;
#X obj 137 67 cnv 15 80 60 empty empty empty 20 12 0 14 -257985 -66577
0;
#X floatatom 140 71 5 0 127 0 - - -, f 5;
#X text 83 47 mod depth;
#X obj 228 66 cnv 15 80 60 empty empty empty 20 12 0 14 -4034 -66577
0;
#X text 151 47 mod speed;
#X floatatom 230 70 5 0 127 0 - - -, f 5;
#X obj 229 150 cnv 15 80 60 empty empty empty 20 12 0 14 -4032 -66577
0;
#X floatatom 232 156 5 0 5 0 - - -, f 5;
#X text 345 46 mod type;
#X text 225 47 decay;
#X obj 420 66 cnv 15 80 60 empty empty empty 20 12 0 14 -159808 -66577
0;
#X text 286 47 level;
#X obj 328 152 cnv 15 80 60 empty empty empty 20 12 0 14 -201290 -66577
0;
#X floatatom 332 156 5 0 127 0 - - -, f 5;
#X text 450 45 pan;
#X obj 421 151 cnv 15 80 60 empty empty empty 20 12 0 14 -26724 -66577
0;
#X floatatom 424 155 5 0 127 0 - - -, f 5;
#X text 502 47 low boost;
#N canvas 1027 180 450 300 pitch1 0;
#X obj 42 89 nbx 5 14 -1e+037 1e+037 0 1 empty empty empty 0 -8 0 10
-262144 -1 -1 2 256;
#X obj 139 87 t f b;
#X obj 139 64 inlet;
#X obj 42 116 ctlout 98 10;
#X obj 124 116 ctlout 99 10;
#X obj 208 115 ctlout 6 10;
#X connect 0 0 3 0;
#X connect 0 0 4 0;
#X connect 1 0 5 0;
#X connect 1 1 0 0;
#X connect 2 0 1 0;
#X restore 49 103 pd pitch1;
#N canvas 858 304 450 300 moddepth1 0;
#X obj 164 93 nbx 5 14 -1e+037 1e+037 0 1 empty empty empty 0 -8 0
10 -262144 -1 -1 6 256;
#X obj 228 94 nbx 5 14 -1e+037 1e+037 0 1 empty empty empty 0 -8 0
10 -262144 -1 -1 2 256;
#X obj 164 67 t f b b;
#X obj 164 42 inlet;
#X obj 145 119 ctlout 98 10;
#X obj 228 118 ctlout 99 10;
#X obj 315 118 ctlout 6 10;
#X connect 0 0 4 0;
#X connect 1 0 5 0;
#X connect 2 0 6 0;
#X connect 2 1 1 0;
#X connect 2 2 0 0;
#X connect 3 0 2 0;
#X restore 140 107 pd moddepth1;
#N canvas 0 50 450 300 modtype1 0;
#X obj -188 62 nbx 5 14 -1e+037 1e+037 0 1 empty empty empty 0 -8 0
10 -262144 -1 -1 4 256;
#X obj -124 62 nbx 5 14 -1e+037 1e+037 0 1 empty empty empty 0 -8 0
10 -262144 -1 -1 2 256;
#X obj -188 38 t f b b;
#X obj -187 12 inlet;
#X obj -188 85 ctlout 98 10;
#X obj -108 85 ctlout 99 10;
#X obj -30 85 ctlout 6 10;
#X connect 0 0 4 0;
#X connect 1 0 5 0;
#X connect 2 0 6 0;
#X connect 2 1 1 0;
#X connect 2 2 0 0;
#X connect 3 0 2 0;
#X restore 232 189 pd modtype1;
#N canvas 22 50 450 300 modspeed1 0;
#X obj -99 72 nbx 5 14 -1e+037 1e+037 0 1 empty empty empty 0 -8 0
10 -262144 -1 -1 5 256;
#X obj -35 72 nbx 5 14 -1e+037 1e+037 0 1 empty empty empty 0 -8 0
10 -262144 -1 -1 2 256;
#X obj -99 48 t f b b;
#X obj -99 21 inlet;
#X obj -100 95 ctlout 98 10;
#X obj -16 94 ctlout 99 10;
#X obj 76 96 ctlout 6 10;
#X connect 0 0 4 0;
#X connect 1 0 5 0;
#X connect 2 0 6 0;
#X connect 2 1 1 0;
#X connect 2 2 0 0;
#X connect 3 0 2 0;
#X restore 230 107 pd modspeed1;
#X obj 329 66 cnv 15 80 60 empty empty empty 20 12 0 14 -4160 -66577
0;
#X floatatom 333 71 5 0 127 0 - - -, f 5;
#N canvas 0 50 450 300 decay1 0;
#X obj -248 92 nbx 5 14 -1e+037 1e+037 0 1 empty empty empty 0 -8 0
10 -262144 -1 -1 8 256;
#X obj -184 92 nbx 5 14 -1e+037 1e+037 0 1 empty empty empty 0 -8 0
10 -262144 -1 -1 2 256;
#X obj -246 61 t f b b;
#X obj -246 34 inlet;
#X obj -245 119 ctlout 98 10;
#X obj -166 118 ctlout 99 10;
#X obj -82 120 ctlout 6 10;
#X connect 0 0 4 0;
#X connect 1 0 5 0;
#X connect 2 0 6 0;
#X connect 2 1 1 0;
#X connect 2 2 0 0;
#X connect 3 0 2 0;
#X restore 331 106 pd decay1;
#N canvas 0 50 450 300 pan1 0;
#X obj 7 66 nbx 5 14 -1e+037 1e+037 0 1 empty empty empty 0 -8 0 10
-262144 -1 -1 1 256;
#X obj 71 66 nbx 5 14 -1e+037 1e+037 0 1 empty empty empty 0 -8 0 10
-262144 -1 -1 2 256;
#X obj 7 39 t f b b;
#X obj 7 10 inlet;
#X obj 7 93 ctlout 98 10;
#X obj 88 93 ctlout 99 10;
#X obj 167 93 ctlout 6 10;
#X connect 0 0 4 0;
#X connect 1 0 5 0;
#X connect 2 0 6 0;
#X connect 2 1 1 0;
#X connect 2 2 0 0;
#X connect 3 0 2 0;
#X restore 332 190 pd pan1;
#N canvas 0 50 450 300 level1 0;
#X obj -336 -127 nbx 5 14 -1e+037 1e+037 0 1 empty empty empty 0 -8
0 10 -262144 -1 -1 7 256;
#X obj -272 -127 nbx 5 14 -1e+037 1e+037 0 1 empty empty empty 0 -8
0 10 -262144 -1 -1 2 256;
#X obj -336 -154 t f b b;
#X obj -336 -183 inlet;
#X obj -336 -100 ctlout 98 10;
#X obj -255 -100 ctlout 99 10;
#X obj -175 -101 ctlout 6 10;
#X connect 0 0 4 0;
#X connect 1 0 5 0;
#X connect 2 0 6 0;
#X connect 2 1 1 0;
#X connect 2 2 0 0;
#X connect 3 0 2 0;
#X restore 422 106 pd level1;
#X floatatom 422 69 5 0 127 0 - - -, f 5;
#X obj 40 163 cnv 1 1 1 empty empty sound_1 20 30 0 35 -228856 -66577
0;
#X text 64 85 pitch;
#X text 152 86 mod depth;
#X text 246 86 mod speed;
#X text 346 85 decay;
#X text 440 86 level;
#X text 248 171 mod type;
#X text 349 170 pan;
#X text 440 171 low boost;
#X obj 46 18 inlet;
#X obj 84 18 inlet;
#X obj 123 18 inlet;
#X obj 161 18 inlet;
#X obj 199 18 inlet;
#X obj 237 18 inlet;
#X obj 276 18 inlet;
#X obj 314 18 inlet;
#X obj 511 66 cnv 15 80 60 empty empty empty 20 12 0 14 -159808 -66577
0;
#X obj 352 18 inlet;
#X obj 514 71 nbx 1 14 0 1 0 0 empty empty empty 0 -8 0 10 -262144
-1 -1 0 256;
#X text 536 69 0:sine;
#X text 536 85 1:saw;
#X text 569 46 wave;
#N canvas 0 50 450 300 lowboost1 0;
#X obj -74 -41 nbx 5 14 -1e+037 1e+037 0 1 empty empty empty 0 -8 0
10 -262144 -1 -1 0 256;
#X obj -10 -41 nbx 5 14 -1e+037 1e+037 0 1 empty empty empty 0 -8 0
10 -262144 -1 -1 2 256;
#X obj -74 -68 t f b b;
#X obj -74 -97 inlet;
#X obj -74 -14 ctlout 98 10;
#X obj 8 -14 ctlout 99 10;
#X obj 90 -14 ctlout 6 10;
#X connect 0 0 4 0;
#X connect 1 0 5 0;
#X connect 2 0 6 0;
#X connect 2 1 1 0;
#X connect 2 2 0 0;
#X connect 3 0 2 0;
#X restore 426 188 pd lowboost1;
#N canvas 221 254 450 300 wave1 0;
#X obj -336 -127 nbx 5 14 -1e+037 1e+037 0 1 empty empty empty 0 -8
0 10 -262144 -1 -1 3 256;
#X obj -272 -127 nbx 5 14 -1e+037 1e+037 0 1 empty empty empty 0 -8
0 10 -262144 -1 -1 2 256;
#X obj -336 -154 t f b b;
#X obj -336 -183 inlet;
#X obj -214 -171 select 0;
#X obj -154 -171 select 1;
#X obj -209 -127 nbx 5 14 -1e+037 1e+037 0 1 empty empty empty 0 -8
0 10 -262144 -1 -1 0 256;
#X obj -145 -127 nbx 5 14 -1e+037 1e+037 0 1 empty empty empty 0 -8
0 10 -262144 -1 -1 127 256;
#X obj -336 -100 ctlout 98 10;
#X obj -239 -102 ctlout 99 10;
#X obj -140 -98 ctlout 6 10;
#X connect 0 0 8 0;
#X connect 1 0 9 0;
#X connect 2 0 4 0;
#X connect 2 0 5 0;
#X connect 2 1 1 0;
#X connect 2 2 0 0;
#X connect 3 0 2 0;
#X connect 4 0 6 0;
#X connect 5 0 7 0;
#X connect 6 0 10 0;
#X connect 7 0 10 0;
#X restore 514 106 pd wave1;
#X connect 3 0 22 0;
#X connect 5 0 23 0;
#X connect 9 0 25 0;
#X connect 11 0 24 0;
#X connect 17 0 29 0;
#X connect 20 0 55 0;
#X connect 27 0 28 0;
#X connect 31 0 30 0;
#X connect 41 0 3 0;
#X connect 42 0 5 0;
#X connect 43 0 9 0;
#X connect 44 0 11 0;
#X connect 45 0 27 0;
#X connect 46 0 31 0;
#X connect 47 0 17 0;
#X connect 48 0 20 0;
#X connect 50 0 51 0;
#X connect 51 0 56 0;
#X restore -2751 -1060 pd er1-part-1;
#X obj -2751 -1219 r pitch1;
#X obj -2742 -1202 r moddepth1;
#X obj -2733 -1185 r modspeed1;
#X obj -2723 -1168 r modtype1;
#X obj -2714 -1152 r decay1;
#X obj -2705 -1135 r level1;
#X obj -2695 -1118 r pan1;
#X obj -2686 -1100 r lowboost1;
#X obj -2676 -1083 r wave1;
#N canvas 630 132 1280 699 er1-part-2 0;
#X obj 41 48 cnv 15 560 190 empty empty ER-1_controller 10 110 0 20
-191237 -258113 0;
#X text 40 47 pitch;
#X obj 47 66 cnv 15 80 60 empty empty empty 20 12 0 14 -260097 -66577
0;
#X floatatom 49 72 5 0 127 0 - - -, f 5;
#X obj 137 67 cnv 15 80 60 empty empty empty 20 12 0 14 -257985 -66577
0;
#X floatatom 140 71 5 0 127 0 - - -, f 5;
#X text 83 47 mod depth;
#X obj 228 66 cnv 15 80 60 empty empty empty 20 12 0 14 -4034 -66577
0;
#X text 151 47 mod speed;
#X floatatom 230 70 5 0 127 0 - - -, f 5;
#X obj 229 150 cnv 15 80 60 empty empty empty 20 12 0 14 -4032 -66577
0;
#X floatatom 232 156 5 0 5 0 - - -, f 5;
#X text 345 46 mod type;
#X text 225 47 decay;
#X obj 420 66 cnv 15 80 60 empty empty empty 20 12 0 14 -159808 -66577
0;
#X text 286 47 level;
#X obj 328 152 cnv 15 80 60 empty empty empty 20 12 0 14 -201290 -66577
0;
#X floatatom 332 156 5 0 127 0 - - -, f 5;
#X text 450 45 pan;
#X obj 421 151 cnv 15 80 60 empty empty empty 20 12 0 14 -26724 -66577
0;
#X floatatom 424 155 5 0 127 0 - - -, f 5;
#X text 502 47 low boost;
#X obj 329 66 cnv 15 80 60 empty empty empty 20 12 0 14 -4160 -66577
0;
#X floatatom 331 70 5 0 127 0 - - -, f 5;
#X floatatom 422 69 5 0 127 0 - - -, f 5;
#X obj 40 163 cnv 1 1 1 empty empty sound_2 20 30 0 35 -228856 -66577
0;
#X text 64 85 pitch;
#X text 152 86 mod depth;
#X text 246 86 mod speed;
#X text 346 85 decay;
#X text 440 86 level;
#X text 248 171 mod type;
#X text 349 170 pan;
#X text 440 171 low boost;
#X obj 46 18 inlet;
#X obj 84 18 inlet;
#X obj 123 18 inlet;
#X obj 161 18 inlet;
#X obj 199 18 inlet;
#X obj 237 18 inlet;
#X obj 276 18 inlet;
#X obj 314 18 inlet;
#X obj 511 66 cnv 15 80 60 empty empty empty 20 12 0 14 -159808 -66577
0;
#X obj 352 18 inlet;
#X obj 514 71 nbx 1 14 0 1 0 0 empty empty empty 0 -8 0 10 -262144
-1 -1 0 256;
#X text 536 69 0:sine;
#X text 536 85 1:saw;
#X text 569 46 wave;
#N canvas 1905 269 450 300 pitch2 0;
#X obj 26 155 nbx 5 14 -1e+037 1e+037 0 1 empty empty empty 0 -8 0
10 -262144 -1 -1 12 256;
#X obj 90 156 nbx 5 14 -1e+037 1e+037 0 1 empty empty empty 0 -8 0
10 -262144 -1 -1 2 256;
#X obj 28 67 t f b b;
#X obj 28 42 inlet;
#X obj 26 180 ctlout 98 10;
#X obj 116 179 ctlout 99 10;
#X obj 223 179 ctlout 6 10;
#X connect 0 0 4 0;
#X connect 1 0 5 0;
#X connect 2 0 6 0;
#X connect 2 1 1 0;
#X connect 2 2 0 0;
#X connect 3 0 2 0;
#X restore 49 103 pd pitch2;
#N canvas 0 50 450 300 moddepth2 0;
#X obj 164 93 nbx 5 14 -1e+037 1e+037 0 1 empty empty empty 0 -8 0
10 -262144 -1 -1 16 256;
#X obj 228 94 nbx 5 14 -1e+037 1e+037 0 1 empty empty empty 0 -8 0
10 -262144 -1 -1 2 256;
#X obj 164 67 t f b b;
#X obj 164 42 inlet;
#X obj 168 118 ctlout 98 10;
#X obj 246 118 ctlout 99 10;
#X obj 338 119 ctlout 6 10;
#X connect 0 0 4 0;
#X connect 1 0 5 0;
#X connect 2 0 6 0;
#X connect 2 1 1 0;
#X connect 2 2 0 0;
#X connect 3 0 2 0;
#X restore 140 107 pd moddepth2;
#N canvas 477 70 450 300 modspeed2 0;
#X obj -99 72 nbx 5 14 -1e+037 1e+037 0 1 empty empty empty 0 -8 0
10 -262144 -1 -1 15 256;
#X obj -35 72 nbx 5 14 -1e+037 1e+037 0 1 empty empty empty 0 -8 0
10 -262144 -1 -1 2 256;
#X obj -99 48 t f b b;
#X obj -99 21 inlet;
#X obj -86 114 ctlout 98 10;
#X obj 4 99 ctlout 99 10;
#X obj 96 96 ctlout 6 10;
#X connect 0 0 4 0;
#X connect 1 0 5 0;
#X connect 2 0 6 0;
#X connect 2 1 1 0;
#X connect 2 2 0 0;
#X connect 3 0 2 0;
#X restore 230 107 pd modspeed2;
#N canvas 0 50 450 300 decay2 0;
#X obj -248 92 nbx 5 14 -1e+037 1e+037 0 1 empty empty empty 0 -8 0
10 -262144 -1 -1 18 256;
#X obj -184 92 nbx 5 14 -1e+037 1e+037 0 1 empty empty empty 0 -8 0
10 -262144 -1 -1 2 256;
#X obj -246 61 t f b b;
#X obj -246 34 inlet;
#X obj -248 119 ctlout 98 10;
#X obj -142 114 ctlout 99 10;
#X obj -39 115 ctlout 6 10;
#X connect 0 0 4 0;
#X connect 1 0 5 0;
#X connect 2 0 6 0;
#X connect 2 1 1 0;
#X connect 2 2 0 0;
#X connect 3 0 2 0;
#X restore 331 106 pd decay2;
#N canvas 0 50 450 300 level2 0;
#X obj -336 -127 nbx 5 14 -1e+037 1e+037 0 1 empty empty empty 0 -8
0 10 -262144 -1 -1 17 256;
#X obj -272 -127 nbx 5 14 -1e+037 1e+037 0 1 empty empty empty 0 -8
0 10 -262144 -1 -1 2 256;
#X obj -336 -154 t f b b;
#X obj -336 -183 inlet;
#X obj -336 -100 ctlout 98 10;
#X obj -213 -100 ctlout 99 10;
#X obj -105 -99 ctlout 6 10;
#X connect 0 0 4 0;
#X connect 1 0 5 0;
#X connect 2 0 6 0;
#X connect 2 1 1 0;
#X connect 2 2 0 0;
#X connect 3 0 2 0;
#X restore 422 106 pd level2;
#N canvas 0 50 450 300 lowbost2 0;
#X obj -74 -41 nbx 5 14 -1e+037 1e+037 0 1 empty empty empty 0 -8 0
10 -262144 -1 -1 10 256;
#X obj -10 -41 nbx 5 14 -1e+037 1e+037 0 1 empty empty empty 0 -8 0
10 -262144 -1 -1 2 256;
#X obj -74 -68 t f b b;
#X obj -74 -97 inlet;
#X obj -73 -15 ctlout 98 10;
#X obj 26 -6 ctlout 99 10;
#X obj 125 12 ctlout 6 10;
#X connect 0 0 4 0;
#X connect 1 0 5 0;
#X connect 2 0 6 0;
#X connect 2 1 1 0;
#X connect 2 2 0 0;
#X connect 3 0 2 0;
#X restore 424 189 pd lowbost2;
#N canvas 0 50 450 300 pan2 0;
#X obj 7 66 nbx 5 14 -1e+037 1e+037 0 1 empty empty empty 0 -8 0 10
-262144 -1 -1 11 256;
#X obj 71 66 nbx 5 14 -1e+037 1e+037 0 1 empty empty empty 0 -8 0 10
-262144 -1 -1 2 256;
#X obj 7 39 t f b b;
#X obj 7 10 inlet;
#X obj 7 93 ctlout 98 10;
#X obj 93 95 ctlout 99 10;
#X obj 225 105 ctlout 6 10;
#X connect 0 0 4 0;
#X connect 1 0 5 0;
#X connect 2 0 6 0;
#X connect 2 1 1 0;
#X connect 2 2 0 0;
#X connect 3 0 2 0;
#X restore 332 190 pd pan2;
#N canvas 0 50 450 300 modtype2 0;
#X obj -188 62 nbx 5 14 -1e+037 1e+037 0 1 empty empty empty 0 -8 0
10 -262144 -1 -1 14 256;
#X obj -124 62 nbx 5 14 -1e+037 1e+037 0 1 empty empty empty 0 -8 0
10 -262144 -1 -1 2 256;
#X obj -188 38 t f b b;
#X obj -187 12 inlet;
#X obj -188 85 ctlout 98 10;
#X obj -97 91 ctlout 99 10;
#X obj 9 98 ctlout 6 10;
#X connect 0 0 4 0;
#X connect 1 0 5 0;
#X connect 2 0 6 0;
#X connect 2 1 1 0;
#X connect 2 2 0 0;
#X connect 3 0 2 0;
#X restore 232 189 pd modtype2;
#N canvas 695 348 450 300 wave2 0;
#X obj -336 -127 nbx 5 14 -1e+037 1e+037 0 1 empty empty empty 0 -8
0 10 -262144 -1 -1 13 256;
#X obj -272 -127 nbx 5 14 -1e+037 1e+037 0 1 empty empty empty 0 -8
0 10 -262144 -1 -1 2 256;
#X obj -336 -154 t f b b;
#X obj -336 -183 inlet;
#X obj -214 -171 select 0;
#X obj -154 -171 select 1;
#X obj -209 -127 nbx 5 14 -1e+037 1e+037 0 1 empty empty empty 0 -8
0 10 -262144 -1 -1 0 256;
#X obj -145 -127 nbx 5 14 -1e+037 1e+037 0 1 empty empty empty 0 -8
0 10 -262144 -1 -1 127 256;
#X obj -336 -100 ctlout 98 10;
#X obj -241 -98 ctlout 99 10;
#X obj -138 -95 ctlout 6 10;
#X connect 0 0 8 0;
#X connect 1 0 9 0;
#X connect 2 0 4 0;
#X connect 2 0 5 0;
#X connect 2 1 1 0;
#X connect 2 2 0 0;
#X connect 3 0 2 0;
#X connect 4 0 6 0;
#X connect 5 0 7 0;
#X connect 6 0 10 0;
#X connect 7 0 10 0;
#X restore 514 106 pd wave2;
#X connect 3 0 48 0;
#X connect 5 0 49 0;
#X connect 9 0 50 0;
#X connect 11 0 55 0;
#X connect 17 0 54 0;
#X connect 20 0 53 0;
#X connect 23 0 51 0;
#X connect 24 0 52 0;
#X connect 34 0 3 0;
#X connect 35 0 5 0;
#X connect 36 0 9 0;
#X connect 37 0 11 0;
#X connect 38 0 23 0;
#X connect 39 0 24 0;
#X connect 40 0 17 0;
#X connect 41 0 20 0;
#X connect 43 0 44 0;
#X connect 44 0 56 0;
#X restore -2612 -1060 pd er1-part-2;
#N canvas 0 50 798 699 er1-part-3 0;
#X obj 41 48 cnv 15 560 190 empty empty ER-1_controller 10 110 0 20
-191237 -258113 0;
#X text 40 47 pitch;
#X obj 47 66 cnv 15 80 60 empty empty empty 20 12 0 14 -260097 -66577
0;
#X floatatom 49 72 5 0 127 0 - - -, f 5;
#X obj 137 67 cnv 15 80 60 empty empty empty 20 12 0 14 -257985 -66577
0;
#X floatatom 140 71 5 0 127 0 - - -, f 5;
#X text 83 47 mod depth;
#X obj 228 66 cnv 15 80 60 empty empty empty 20 12 0 14 -4034 -66577
0;
#X text 151 47 mod speed;
#X floatatom 230 70 5 0 127 0 - - -, f 5;
#X obj 229 150 cnv 15 80 60 empty empty empty 20 12 0 14 -4032 -66577
0;
#X floatatom 232 156 5 0 5 0 - - -, f 5;
#X text 345 46 mod type;
#X text 225 47 decay;
#X obj 420 66 cnv 15 80 60 empty empty empty 20 12 0 14 -159808 -66577
0;
#X text 286 47 level;
#X obj 328 152 cnv 15 80 60 empty empty empty 20 12 0 14 -201290 -66577
0;
#X floatatom 332 156 5 0 127 0 - - -, f 5;
#X text 450 45 pan;
#X obj 421 151 cnv 15 80 60 empty empty empty 20 12 0 14 -26724 -66577
0;
#X floatatom 424 155 5 0 127 0 - - -, f 5;
#X text 502 47 low boost;
#X obj 329 66 cnv 15 80 60 empty empty empty 20 12 0 14 -4160 -66577
0;
#X floatatom 331 70 5 0 127 0 - - -, f 5;
#X floatatom 422 69 5 0 127 0 - - -, f 5;
#X obj 40 163 cnv 1 1 1 empty empty sound_3 20 30 0 35 -228856 -66577
0;
#X text 64 85 pitch;
#X text 152 86 mod depth;
#X text 246 86 mod speed;
#X text 346 85 decay;
#X text 440 86 level;
#X text 248 171 mod type;
#X text 349 170 pan;
#X text 440 171 low boost;
#X obj 46 18 inlet;
#X obj 84 18 inlet;
#X obj 123 18 inlet;
#X obj 161 18 inlet;
#X obj 199 18 inlet;
#X obj 237 18 inlet;
#X obj 276 18 inlet;
#X obj 314 18 inlet;
#X obj 511 66 cnv 15 80 60 empty empty empty 20 12 0 14 -159808 -66577
0;
#X obj 352 18 inlet;
#X obj 514 71 nbx 1 14 0 1 0 0 empty empty empty 0 -8 0 10 -262144
-1 -1 0 256;
#X text 536 69 0:sine;
#X text 536 85 1:saw;
#X text 569 46 wave;
#N canvas 2331 254 450 300 pitch3 0;
#X obj 76 148 nbx 5 14 -1e+037 1e+037 0 1 empty empty empty 0 -8 0
10 -262144 -1 -1 22 256;
#X obj 140 149 nbx 5 14 -1e+037 1e+037 0 1 empty empty empty 0 -8 0
10 -262144 -1 -1 2 256;
#X obj 77 72 t f b b;
#X obj 77 47 inlet;
#X obj 76 173 ctlout 98 10;
#X obj 182 174 ctlout 99 10;
#X obj 280 173 ctlout 6 10;
#X connect 0 0 4 0;
#X connect 1 0 5 0;
#X connect 2 0 6 0;
#X connect 2 1 1 0;
#X connect 2 2 0 0;
#X connect 3 0 2 0;
#X restore 49 103 pd pitch3;
#N canvas 0 50 450 300 moddepth3 0;
#X obj 164 93 nbx 5 14 -1e+037 1e+037 0 1 empty empty empty 0 -8 0
10 -262144 -1 -1 26 256;
#X obj 228 94 nbx 5 14 -1e+037 1e+037 0 1 empty empty empty 0 -8 0
10 -262144 -1 -1 2 256;
#X obj 164 67 t f b b;
#X obj 164 42 inlet;
#X obj 164 118 ctlout 98 10;
#X obj 242 118 ctlout 99 10;
#X obj 321 118 ctlout 6 10;
#X connect 0 0 4 0;
#X connect 1 0 5 0;
#X connect 2 0 6 0;
#X connect 2 1 1 0;
#X connect 2 2 0 0;
#X connect 3 0 2 0;
#X restore 140 107 pd moddepth3;
#N canvas 0 50 450 300 modspeed3 0;
#X obj -99 72 nbx 5 14 -1e+037 1e+037 0 1 empty empty empty 0 -8 0
10 -262144 -1 -1 25 256;
#X obj -35 72 nbx 5 14 -1e+037 1e+037 0 1 empty empty empty 0 -8 0
10 -262144 -1 -1 2 256;
#X obj -99 48 t f b b;
#X obj -99 21 inlet;
#X obj 65 135 ctlout 6 10;
#X obj -15 93 ctlout 99 10;
#X obj -99 95 ctlout 98 10;
#X connect 0 0 6 0;
#X connect 1 0 5 0;
#X connect 2 0 4 0;
#X connect 2 1 1 0;
#X connect 2 2 0 0;
#X connect 3 0 2 0;
#X restore 230 107 pd modspeed3;
#N canvas 0 50 450 300 decay3 0;
#X obj -248 92 nbx 5 14 -1e+037 1e+037 0 1 empty empty empty 0 -8 0
10 -262144 -1 -1 28 256;
#X obj -184 92 nbx 5 14 -1e+037 1e+037 0 1 empty empty empty 0 -8 0
10 -262144 -1 -1 2 256;
#X obj -246 61 t f b b;
#X obj -246 34 inlet;
#X obj -248 119 ctlout 98 10;
#X obj -148 127 ctlout 99 10;
#X obj -41 132 ctlout 6 10;
#X connect 0 0 4 0;
#X connect 1 0 5 0;
#X connect 2 0 6 0;
#X connect 2 1 1 0;
#X connect 2 2 0 0;
#X connect 3 0 2 0;
#X restore 331 106 pd decay3;
#N canvas 0 50 450 300 level3 0;
#X obj -336 -127 nbx 5 14 -1e+037 1e+037 0 1 empty empty empty 0 -8
0 10 -262144 -1 -1 27 256;
#X obj -272 -127 nbx 5 14 -1e+037 1e+037 0 1 empty empty empty 0 -8
0 10 -262144 -1 -1 2 256;
#X obj -336 -154 t f b b;
#X obj -336 -183 inlet;
#X obj -336 -100 ctlout 98 10;
#X obj -239 -102 ctlout 99 10;
#X obj -141 -94 ctlout 6 10;
#X connect 0 0 4 0;
#X connect 1 0 5 0;
#X connect 2 0 6 0;
#X connect 2 1 1 0;
#X connect 2 2 0 0;
#X connect 3 0 2 0;
#X restore 422 106 pd level3;
#N canvas 695 348 450 300 wave3 0;
#X obj -336 -127 nbx 5 14 -1e+037 1e+037 0 1 empty empty empty 0 -8
0 10 -262144 -1 -1 23 256;
#X obj -272 -127 nbx 5 14 -1e+037 1e+037 0 1 empty empty empty 0 -8
0 10 -262144 -1 -1 2 256;
#X obj -336 -154 t f b b;
#X obj -336 -183 inlet;
#X obj -214 -171 select 0;
#X obj -154 -171 select 1;
#X obj -209 -127 nbx 5 14 -1e+037 1e+037 0 1 empty empty empty 0 -8
0 10 -262144 -1 -1 0 256;
#X obj -145 -127 nbx 5 14 -1e+037 1e+037 0 1 empty empty empty 0 -8
0 10 -262144 -1 -1 127 256;
#X obj -330 -99 ctlout 98 10;
#X obj -216 -98 ctlout 99 10;
#X obj -111 -92 ctlout 6 10;
#X connect 0 0 8 0;
#X connect 1 0 9 0;
#X connect 2 0 4 0;
#X connect 2 0 5 0;
#X connect 2 1 1 0;
#X connect 2 2 0 0;
#X connect 3 0 2 0;
#X connect 4 0 6 0;
#X connect 5 0 7 0;
#X connect 6 0 10 0;
#X connect 7 0 10 0;
#X restore 515 105 pd wave3;
#N canvas 0 50 450 300 modtype3 0;
#X obj -188 62 nbx 5 14 -1e+037 1e+037 0 1 empty empty empty 0 -8 0
10 -262144 -1 -1 24 256;
#X obj -124 62 nbx 5 14 -1e+037 1e+037 0 1 empty empty empty 0 -8 0
10 -262144 -1 -1 2 256;
#X obj -188 38 t f b b;
#X obj -187 12 inlet;
#X obj -186 85 ctlout 98 10;
#X obj -67 102 ctlout 99 10;
#X obj 48 118 ctlout 6 10;
#X connect 0 0 4 0;
#X connect 1 0 5 0;
#X connect 2 0 6 0;
#X connect 2 1 1 0;
#X connect 2 2 0 0;
#X connect 3 0 2 0;
#X restore 232 189 pd modtype3;
#N canvas 0 50 450 300 pan3 0;
#X obj 7 66 nbx 5 14 -1e+037 1e+037 0 1 empty empty empty 0 -8 0 10
-262144 -1 -1 21 256;
#X obj 71 66 nbx 5 14 -1e+037 1e+037 0 1 empty empty empty 0 -8 0 10
-262144 -1 -1 2 256;
#X obj 7 39 t f b b;
#X obj 7 10 inlet;
#X obj 7 93 ctlout 98 10;
#X obj 114 94 ctlout 99 10;
#X obj 226 110 ctlout 6 10;
#X connect 0 0 4 0;
#X connect 1 0 5 0;
#X connect 2 0 6 0;
#X connect 2 1 1 0;
#X connect 2 2 0 0;
#X connect 3 0 2 0;
#X restore 332 190 pd pan3;
#N canvas 0 50 450 300 lowboost3 0;
#X obj -74 -41 nbx 5 14 -1e+037 1e+037 0 1 empty empty empty 0 -8 0
10 -262144 -1 -1 20 256;
#X obj -10 -41 nbx 5 14 -1e+037 1e+037 0 1 empty empty empty 0 -8 0
10 -262144 -1 -1 2 256;
#X obj -74 -68 t f b b;
#X obj -74 -97 inlet;
#X obj -72 -14 ctlout 98 10;
#X obj 19 -8 ctlout 99 10;
#X obj 110 9 ctlout 6 10;
#X connect 0 0 4 0;
#X connect 1 0 5 0;
#X connect 2 0 6 0;
#X connect 2 1 1 0;
#X connect 2 2 0 0;
#X connect 3 0 2 0;
#X restore 424 189 pd lowboost3;
#X connect 3 0 48 0;
#X connect 5 0 49 0;
#X connect 9 0 50 0;
#X connect 11 0 54 0;
#X connect 17 0 55 0;
#X connect 20 0 56 0;
#X connect 23 0 51 0;
#X connect 24 0 52 0;
#X connect 34 0 3 0;
#X connect 35 0 5 0;
#X connect 36 0 9 0;
#X connect 37 0 11 0;
#X connect 38 0 23 0;
#X connect 39 0 24 0;
#X connect 40 0 17 0;
#X connect 41 0 20 0;
#X connect 43 0 44 0;
#X connect 44 0 53 0;
#X restore -2473 -1060 pd er1-part-3;
#N canvas 313 50 798 699 er1-part-4 0;
#X obj 41 48 cnv 15 560 190 empty empty ER-1_controller 10 110 0 20
-191237 -258113 0;
#X text 40 47 pitch;
#X obj 47 66 cnv 15 80 60 empty empty empty 20 12 0 14 -260097 -66577
0;
#X floatatom 49 72 5 0 127 0 - - -, f 5;
#X obj 137 67 cnv 15 80 60 empty empty empty 20 12 0 14 -257985 -66577
0;
#X floatatom 140 71 5 0 127 0 - - -, f 5;
#X text 83 47 mod depth;
#X obj 228 66 cnv 15 80 60 empty empty empty 20 12 0 14 -4034 -66577
0;
#X text 151 47 mod speed;
#X floatatom 230 70 5 0 127 0 - - -, f 5;
#X obj 229 150 cnv 15 80 60 empty empty empty 20 12 0 14 -4032 -66577
0;
#X floatatom 232 156 5 0 5 0 - - -, f 5;
#X text 345 46 mod type;
#X text 225 47 decay;
#X obj 420 66 cnv 15 80 60 empty empty empty 20 12 0 14 -159808 -66577
0;
#X text 286 47 level;
#X obj 328 152 cnv 15 80 60 empty empty empty 20 12 0 14 -201290 -66577
0;
#X floatatom 332 156 5 0 127 0 - - -, f 5;
#X text 450 45 pan;
#X obj 421 151 cnv 15 80 60 empty empty empty 20 12 0 14 -26724 -66577
0;
#X floatatom 424 155 5 0 127 0 - - -, f 5;
#X text 502 47 low boost;
#X obj 329 66 cnv 15 80 60 empty empty empty 20 12 0 14 -4160 -66577
0;
#X floatatom 331 70 5 0 127 0 - - -, f 5;
#X floatatom 422 69 5 0 127 0 - - -, f 5;
#X obj 40 163 cnv 1 1 1 empty empty sound_4 20 30 0 35 -228856 -66577
0;
#X text 64 85 pitch;
#X text 152 86 mod depth;
#X text 246 86 mod speed;
#X text 346 85 decay;
#X text 440 86 level;
#X text 248 171 mod type;
#X text 349 170 pan;
#X text 438 171 low boost;
#X obj 46 18 inlet;
#X obj 84 18 inlet;
#X obj 123 18 inlet;
#X obj 161 18 inlet;
#X obj 199 18 inlet;
#X obj 237 18 inlet;
#X obj 276 18 inlet;
#X obj 314 18 inlet;
#X obj 511 66 cnv 15 80 60 empty empty empty 20 12 0 14 -159808 -66577
0;
#X obj 352 18 inlet;
#X obj 514 71 nbx 1 14 0 1 0 0 empty empty empty 0 -8 0 10 -262144
-1 -1 0 256;
#X text 536 69 0:sine;
#X text 536 85 1:saw;
#X text 569 46 wave;
#N canvas 0 50 450 300 pitch4 0;
#X obj 67 88 nbx 5 14 -1e+037 1e+037 0 1 empty empty empty 0 -8 0 10
-262144 -1 -1 32 256;
#X obj 131 89 nbx 5 14 -1e+037 1e+037 0 1 empty empty empty 0 -8 0
10 -262144 -1 -1 2 256;
#X obj 67 62 t f b b;
#X obj 67 37 inlet;
#X obj 67 113 ctlout 98 10;
#X obj 173 114 ctlout 99 10;
#X obj 271 113 ctlout 6 10;
#X connect 0 0 4 0;
#X connect 1 0 5 0;
#X connect 2 0 6 0;
#X connect 2 1 1 0;
#X connect 2 2 0 0;
#X connect 3 0 2 0;
#X restore 49 103 pd pitch4;
#N canvas 0 50 450 300 moddepth4 0;
#X obj 164 93 nbx 5 14 -1e+037 1e+037 0 1 empty empty empty 0 -8 0
10 -262144 -1 -1 36 256;
#X obj 228 94 nbx 5 14 -1e+037 1e+037 0 1 empty empty empty 0 -8 0
10 -262144 -1 -1 2 256;
#X obj 164 67 t f b b;
#X obj 164 42 inlet;
#X obj 164 118 ctlout 98 10;
#X obj 248 121 ctlout 99 10;
#X obj 340 128 ctlout 6 10;
#X connect 0 0 4 0;
#X connect 1 0 5 0;
#X connect 2 0 6 0;
#X connect 2 1 1 0;
#X connect 2 2 0 0;
#X connect 3 0 2 0;
#X restore 140 107 pd moddepth4;
#N canvas 0 50 450 300 modspeed4 0;
#X obj -99 72 nbx 5 14 -1e+037 1e+037 0 1 empty empty empty 0 -8 0
10 -262144 -1 -1 35 256;
#X obj -35 72 nbx 5 14 -1e+037 1e+037 0 1 empty empty empty 0 -8 0
10 -262144 -1 -1 2 256;
#X obj -99 48 t f b b;
#X obj -99 21 inlet;
#X obj -99 95 ctlout 98 10;
#X obj 3 102 ctlout 99 10;
#X obj 109 106 ctlout 6 10;
#X connect 0 0 4 0;
#X connect 1 0 5 0;
#X connect 2 0 6 0;
#X connect 2 1 1 0;
#X connect 2 2 0 0;
#X connect 3 0 2 0;
#X restore 230 107 pd modspeed4;
#N canvas 0 50 450 300 decay4 0;
#X obj -248 92 nbx 5 14 -1e+037 1e+037 0 1 empty empty empty 0 -8 0
10 -262144 -1 -1 38 256;
#X obj -184 92 nbx 5 14 -1e+037 1e+037 0 1 empty empty empty 0 -8 0
10 -262144 -1 -1 2 256;
#X obj -246 61 t f b b;
#X obj -246 34 inlet;
#X obj -249 119 ctlout 98 10;
#X obj -140 147 ctlout 99 10;
#X obj -39 158 ctlout 6 10;
#X connect 0 0 4 0;
#X connect 1 0 5 0;
#X connect 2 0 6 0;
#X connect 2 1 1 0;
#X connect 2 2 0 0;
#X connect 3 0 2 0;
#X restore 331 106 pd decay4;
#N canvas 0 50 450 300 level4 0;
#X obj -336 -127 nbx 5 14 -1e+037 1e+037 0 1 empty empty empty 0 -8
0 10 -262144 -1 -1 37 256;
#X obj -272 -127 nbx 5 14 -1e+037 1e+037 0 1 empty empty empty 0 -8
0 10 -262144 -1 -1 2 256;
#X obj -336 -154 t f b b;
#X obj -336 -183 inlet;
#X obj -336 -100 ctlout 98 10;
#X obj -241 -98 ctlout 99 10;
#X obj -135 -88 ctlout 6 10;
#X connect 0 0 4 0;
#X connect 1 0 5 0;
#X connect 2 0 6 0;
#X connect 2 1 1 0;
#X connect 2 2 0 0;
#X connect 3 0 2 0;
#X restore 422 106 pd level4;
#N canvas 695 348 450 300 wave4 0;
#X obj -336 -127 nbx 5 14 -1e+037 1e+037 0 1 empty empty empty 0 -8
0 10 -262144 -1 -1 33 256;
#X obj -272 -127 nbx 5 14 -1e+037 1e+037 0 1 empty empty empty 0 -8
0 10 -262144 -1 -1 2 256;
#X obj -336 -154 t f b b;
#X obj -336 -183 inlet;
#X obj -214 -171 select 0;
#X obj -154 -171 select 1;
#X obj -209 -127 nbx 5 14 -1e+037 1e+037 0 1 empty empty empty 0 -8
0 10 -262144 -1 -1 0 256;
#X obj -145 -127 nbx 5 14 -1e+037 1e+037 0 1 empty empty empty 0 -8
0 10 -262144 -1 -1 127 256;
#X obj -328 -100 ctlout 98 10;
#X obj -234 -87 ctlout 99 10;
#X obj -128 -85 ctlout 6 10;
#X connect 0 0 8 0;
#X connect 1 0 9 0;
#X connect 2 0 4 0;
#X connect 2 0 5 0;
#X connect 2 1 1 0;
#X connect 2 2 0 0;
#X connect 3 0 2 0;
#X connect 4 0 6 0;
#X connect 5 0 7 0;
#X connect 6 0 10 0;
#X connect 7 0 10 0;
#X restore 514 106 pd wave4;
#N canvas 0 50 450 300 lowboost4 0;
#X obj -74 -41 nbx 5 14 -1e+037 1e+037 0 1 empty empty empty 0 -8 0
10 -262144 -1 -1 30 256;
#X obj -10 -41 nbx 5 14 -1e+037 1e+037 0 1 empty empty empty 0 -8 0
10 -262144 -1 -1 2 256;
#X obj -74 -68 t f b b;
#X obj -74 -97 inlet;
#X obj -74 -14 ctlout 98 10;
#X obj 23 -1 ctlout 99 10;
#X obj 123 -6 ctlout 6 10;
#X connect 0 0 4 0;
#X connect 1 0 5 0;
#X connect 2 0 6 0;
#X connect 2 1 1 0;
#X connect 2 2 0 0;
#X connect 3 0 2 0;
#X restore 424 189 pd lowboost4;
#N canvas 0 50 450 300 pan4 0;
#X obj 7 66 nbx 5 14 -1e+037 1e+037 0 1 empty empty empty 0 -8 0 10
-262144 -1 -1 31 256;
#X obj 71 66 nbx 5 14 -1e+037 1e+037 0 1 empty empty empty 0 -8 0 10
-262144 -1 -1 2 256;
#X obj 7 39 t f b b;
#X obj 7 10 inlet;
#X obj 10 92 ctlout 98 10;
#X obj 95 93 ctlout 99 10;
#X obj 202 95 ctlout 6 10;
#X connect 0 0 4 0;
#X connect 1 0 5 0;
#X connect 2 0 6 0;
#X connect 2 1 1 0;
#X connect 2 2 0 0;
#X connect 3 0 2 0;
#X restore 332 190 pd pan4;
#N canvas 0 50 450 300 modtype4 0;
#X obj -188 62 nbx 5 14 -1e+037 1e+037 0 1 empty empty empty 0 -8 0
10 -262144 -1 -1 34 256;
#X obj -124 62 nbx 5 14 -1e+037 1e+037 0 1 empty empty empty 0 -8 0
10 -262144 -1 -1 2 256;
#X obj -188 38 t f b b;
#X obj -187 12 inlet;
#X obj -188 85 ctlout 98 10;
#X obj -83 90 ctlout 99 10;
#X obj 21 91 ctlout 6 10;
#X connect 0 0 4 0;
#X connect 1 0 5 0;
#X connect 2 0 6 0;
#X connect 2 1 1 0;
#X connect 2 2 0 0;
#X connect 3 0 2 0;
#X restore 232 189 pd modtype4;
#X connect 3 0 48 0;
#X connect 5 0 49 0;
#X connect 9 0 50 0;
#X connect 11 0 56 0;
#X connect 17 0 55 0;
#X connect 20 0 54 0;
#X connect 23 0 51 0;
#X connect 24 0 52 0;
#X connect 34 0 3 0;
#X connect 35 0 5 0;
#X connect 36 0 9 0;
#X connect 37 0 11 0;
#X connect 38 0 23 0;
#X connect 39 0 24 0;
#X connect 40 0 17 0;
#X connect 41 0 20 0;
#X connect 43 0 44 0;
#X connect 44 0 53 0;
#X restore -2332 -1060 pd er1-part-4;
#N canvas 1888 281 652 300 er1-global 0;
#X obj 57 75 cnv 15 80 60 empty empty empty 20 12 0 14 -260097 -66577
0;
#X floatatom 59 81 5 0 127 0 - - -, f 5;
#X obj 147 76 cnv 15 80 60 empty empty empty 20 12 0 14 -257985 -66577
0;
#X floatatom 150 80 5 0 127 0 - - -, f 5;
#X obj 238 75 cnv 15 80 60 empty empty empty 20 12 0 14 -4034 -66577
0;
#X floatatom 240 79 5 0 127 0 - - -, f 5;
#X obj 339 75 cnv 15 80 60 empty empty empty 20 12 0 14 -4160 -66577
0;
#X floatatom 343 80 5 0 127 0 - - -, f 5;
#X obj 50 173 cnv 1 1 1 empty empty global 20 30 0 35 -228856 -66577
0;
#X obj 56 28 inlet;
#X obj 94 28 inlet;
#X obj 133 28 inlet;
#X obj 172 28 inlet;
#X text 63 94 delay depth;
#X text 155 95 delay time;
#X text 256 95 ring1;
#X text 356 94 ring2;
#N canvas 1027 180 450 300 delaydepth 0;
#X obj 22 130 nbx 5 14 -1e+037 1e+037 0 1 empty empty empty 0 -8 0
10 -262144 -1 -1 64 256;
#X obj 86 131 nbx 5 14 -1e+037 1e+037 0 1 empty empty empty 0 -8 0
10 -262144 -1 -1 2 256;
#X obj 24 42 t f b b;
#X obj 24 17 inlet;
#X obj 22 155 ctlout 98 10;
#X obj 112 154 ctlout 99 10;
#X obj 219 154 ctlout 6 10;
#X connect 0 0 4 0;
#X connect 1 0 5 0;
#X connect 2 0 6 0;
#X connect 2 1 1 0;
#X connect 2 2 0 0;
#X connect 3 0 2 0;
#X restore 59 115 pd delaydepth;
#N canvas 858 304 450 300 delaytime 0;
#X obj 164 93 nbx 5 14 -1e+037 1e+037 0 1 empty empty empty 0 -8 0
10 -262144 -1 -1 65 256;
#X obj 228 94 nbx 5 14 -1e+037 1e+037 0 1 empty empty empty 0 -8 0
10 -262144 -1 -1 2 256;
#X obj 164 67 t f b b;
#X obj 164 42 inlet;
#X obj 145 119 ctlout 98 10;
#X obj 228 118 ctlout 99 10;
#X obj 315 118 ctlout 6 10;
#X connect 0 0 4 0;
#X connect 1 0 5 0;
#X connect 2 0 6 0;
#X connect 2 1 1 0;
#X connect 2 2 0 0;
#X connect 3 0 2 0;
#X restore 150 116 pd delaytime;
#N canvas 22 50 450 300 ring1 0;
#X obj -99 72 nbx 5 14 -1e+037 1e+037 0 1 empty empty empty 0 -8 0
10 -262144 -1 -1 66 256;
#X obj -35 72 nbx 5 14 -1e+037 1e+037 0 1 empty empty empty 0 -8 0
10 -262144 -1 -1 2 256;
#X obj -99 48 t f b b;
#X obj -99 21 inlet;
#X obj -100 95 ctlout 98 10;
#X obj -16 94 ctlout 99 10;
#X obj 76 96 ctlout 6 10;
#X connect 0 0 4 0;
#X connect 1 0 5 0;
#X connect 2 0 6 0;
#X connect 2 1 1 0;
#X connect 2 2 0 0;
#X connect 3 0 2 0;
#X restore 240 116 pd ring1;
#N canvas 0 50 450 300 ring2 0;
#X obj -248 92 nbx 5 14 -1e+037 1e+037 0 1 empty empty empty 0 -8 0
10 -262144 -1 -1 67 256;
#X obj -184 92 nbx 5 14 -1e+037 1e+037 0 1 empty empty empty 0 -8 0
10 -262144 -1 -1 2 256;
#X obj -246 61 t f b b;
#X obj -246 34 inlet;
#X obj -245 119 ctlout 98 10;
#X obj -166 118 ctlout 99 10;
#X obj -82 120 ctlout 6 10;
#X connect 0 0 4 0;
#X connect 1 0 5 0;
#X connect 2 0 6 0;
#X connect 2 1 1 0;
#X connect 2 2 0 0;
#X connect 3 0 2 0;
#X restore 341 115 pd ring2;
#X connect 3 0 18 0;
#X connect 5 0 19 0;
#X connect 7 0 20 0;
#X connect 9 0 1 0;
#X connect 10 0 3 0;
#X connect 11 0 5 0;
#X connect 12 0 7 0;
#X restore -2186 -1060 pd er1-global;
#X obj -2612 -1220 r pitch2;
#X obj -2603 -1203 r moddepth2;
#X obj -2594 -1186 r modspeed2;
#X obj -2584 -1169 r modtype2;
#X obj -2575 -1153 r decay2;
#X obj -2566 -1136 r level2;
#X obj -2556 -1119 r pan2;
#X obj -2547 -1101 r lowboost2;
#X obj -2537 -1084 r wave2;
#X obj -2473 -1220 r pitch3;
#X obj -2464 -1203 r moddepth3;
#X obj -2455 -1186 r modspeed3;
#X obj -2445 -1169 r modtype3;
#X obj -2436 -1153 r decay3;
#X obj -2427 -1136 r level3;
#X obj -2417 -1119 r pan3;
#X obj -2408 -1101 r lowboost3;
#X obj -2398 -1084 r wave3;
#X obj -2332 -1220 r pitch4;
#X obj -2323 -1203 r moddepth4;
#X obj -2314 -1186 r modspeed4;
#X obj -2304 -1169 r modtype4;
#X obj -2295 -1153 r decay4;
#X obj -2286 -1136 r level4;
#X obj -2276 -1119 r pan4;
#X obj -2267 -1101 r lowboost4;
#X obj -2257 -1084 r wave4;
#X connect 1 0 0 0;
#X connect 2 0 0 1;
#X connect 3 0 0 2;
#X connect 4 0 0 3;
#X connect 5 0 0 4;
#X connect 6 0 0 5;
#X connect 7 0 0 6;
#X connect 8 0 0 7;
#X connect 9 0 0 8;
#X connect 14 0 10 0;
#X connect 15 0 10 1;
#X connect 16 0 10 2;
#X connect 17 0 10 3;
#X connect 18 0 10 4;
#X connect 19 0 10 5;
#X connect 20 0 10 6;
#X connect 21 0 10 7;
#X connect 22 0 10 8;
#X connect 23 0 11 0;
#X connect 24 0 11 1;
#X connect 25 0 11 2;
#X connect 26 0 11 3;
#X connect 27 0 11 4;
#X connect 28 0 11 5;
#X connect 29 0 11 6;
#X connect 30 0 11 7;
#X connect 31 0 11 8;
#X connect 32 0 12 0;
#X connect 33 0 12 1;
#X connect 34 0 12 2;
#X connect 35 0 12 3;
#X connect 36 0 12 4;
#X connect 37 0 12 5;
#X connect 38 0 12 6;
#X connect 39 0 12 7;
#X connect 40 0 12 8;
#X restore 201 19 pd er1-parameter-receive;
#X text 1109 36 pitch;
#X text 1109 47 mod depth;
#X text 1109 57 mod speed;
#X text 1109 67 mod type;
#X text 1108 77 decay;
#X text 1108 88 level;
#X text 1109 97 pan;
#X text 1108 108 low boost;
#X text 1109 117 wave;
#N canvas 0 50 450 300 (subpatch) 0;
#X array cc1 64 float 3;
#A 0 0 0 0 0 0 0 0 0 0 0 0 0 0 0 0 0 0 0 0 0 0 0 0 0 0 0 0 0 0 0 0
0 0 0 0 0 0 0 0 0 0 0 0 0 0 0 0 0 0 0 0 0 0 0 0 0 0 0 0 0 0 0 0 0;
#X coords 0 127 64 0 330 70 1 0 0;
#X restore 576 55 graph;
#N canvas 0 50 450 300 (subpatch) 0;
#X array cc2 64 float 3;
#A 0 0 0 0 0 0 0 0 0 0 0 0 0 0 0 0 0 0 0 0 0 0 0 0 0 0 0 0 0 0 0 0
0 0 0 0 0 0 0 0 0 0 0 0 0 0 0 0 0 0 0 0 0 0 0 0 0 0 0 0 0 0 0 0 0;
#X coords 0 127 64 0 330 70 1 0 0;
#X restore 576 159 graph;
#X obj 912 159 r count_x4;
#X floatatom 912 193 5 0 0 0 - - -, f 5;
#X obj 1016 159 nbx 5 14 -1e+037 1e+037 0 1 empty empty empty 0 -8
0 10 -262144 -1 -1 64 256;
#X obj 989 159 mod;
#N canvas 548 143 854 500 er1-parameter-send 0;
#X obj -360 35 inlet;
#X obj -189 35 inlet;
#X obj -360 88 s pitch1;
#X obj -340 105 s moddepth1;
#X obj -320 124 s modspeed1;
#X obj -299 143 s modtype1;
#X obj -279 166 s decay1;
#X obj -259 185 s level1;
#X obj -238 202 s pan1;
#X obj -218 220 s lowboost1;
#X obj -198 238 s wave1;
#X obj -360 59 demultiplex 0 1 2 3 4 5 6 7 8 9;
#X connect 0 0 11 0;
#X connect 1 0 11 1;
#X connect 11 0 2 0;
#X connect 11 1 3 0;
#X connect 11 2 4 0;
#X connect 11 3 5 0;
#X connect 11 4 6 0;
#X connect 11 5 7 0;
#X connect 11 6 8 0;
#X connect 11 7 9 0;
#X connect 11 8 10 0;
#X restore 912 209 pd er1-parameter-send;
#X obj 912 176 tabread cc2;
#X obj 4 169 vsl 15 50 0 127 0 0 empty empty pitch 0 -9 0 10 -262144
-1 -1 0 1;
#X obj 40 169 vsl 15 50 0 127 0 0 empty empty md_dep 0 -9 0 10 -262144
-1 -1 0 1;
#X obj 78 169 vsl 15 50 0 127 0 0 empty empty md_spd 0 -9 0 10 -262144
-1 -1 0 1;
#X obj 118 169 vsl 15 50 0 127 0 0 empty empty md_typ 0 -9 0 10 -262144
-1 -1 0 1;
#X obj 157 169 vsl 15 50 0 127 0 0 empty empty decay 0 -9 0 10 -262144
-1 -1 0 1;
#X obj 194 169 vsl 15 50 0 127 0 0 empty empty level 0 -9 0 10 -262144
-1 -1 0 1;
#X obj 234 169 vsl 15 50 0 127 0 0 empty empty pan 0 -9 0 10 -262144
-1 -1 0 1;
#X obj 273 169 vsl 15 50 0 127 0 0 empty empty boost 0 -9 0 10 -262144
-1 -1 0 1;
#X obj 314 169 vsl 15 50 0 127 0 0 empty empty wave 0 -9 0 10 -262144
-1 -1 0 1;
#X text 1108 127 off;
#X obj 1096 145 vradio 10 1 1 10 empty empty empty 0 -8 0 10 -262144
-1 -1 9;
#X text 1109 140 pitch;
#X text 1109 151 mod depth;
#X text 1109 161 mod speed;
#X text 1109 171 mod type;
#X text 1108 181 decay;
#X text 1108 192 level;
#X text 1109 201 pan;
#X text 1108 212 low boost;
#X text 1109 221 wave;
#X text 1108 231 off;
#N canvas 548 143 854 500 er1-parameter-send 0;
#X obj -370 25 inlet;
#X obj -331 25 inlet;
#X obj -370 78 s pitch1;
#X obj -331 96 s moddepth1;
#X obj -293 114 s modspeed1;
#X obj -253 132 s modtype1;
#X obj -215 150 s decay1;
#X obj -177 168 s level1;
#X obj -139 189 s pan1;
#X obj -99 208 s lowboost1;
#X obj -60 231 s wave1;
#X obj -293 25 inlet;
#X obj -253 25 inlet;
#X obj -215 25 inlet;
#X obj -177 25 inlet;
#X obj -139 25 inlet;
#X obj -99 25 inlet;
#X obj -60 25 inlet;
#X connect 0 0 2 0;
#X connect 1 0 3 0;
#X connect 11 0 4 0;
#X connect 12 0 5 0;
#X connect 13 0 6 0;
#X connect 14 0 7 0;
#X connect 15 0 8 0;
#X connect 16 0 9 0;
#X connect 17 0 10 0;
#X restore 199 222 pd er1-parameter-send;
#X floatatom 6 304 5 0 100 0 - - -, f 5;
#X floatatom 39 304 5 0 100 0 - - -, f 5;
#X floatatom 72 304 5 0 100 0 - - -, f 5;
#X floatatom 105 304 5 0 100 0 - - -, f 5;
#X floatatom 147 304 5 0 100 0 - - -, f 5;
#X floatatom 180 304 5 0 100 0 - - -, f 5;
#X floatatom 213 304 5 0 100 0 - - -, f 5;
#X floatatom 246 304 5 0 100 0 - - -, f 5;
#X floatatom 289 304 5 0 100 0 - - -, f 5;
#X floatatom 322 304 5 0 100 0 - - -, f 5;
#X floatatom 355 304 5 0 100 0 - - -, f 5;
#X floatatom 388 304 5 0 100 0 - - -, f 5;
#X floatatom 430 304 5 0 100 0 - - -, f 5;
#X floatatom 463 304 5 0 100 0 - - -, f 5;
#X floatatom 496 304 5 0 100 0 - - -, f 5;
#X floatatom 529 304 5 0 100 0 - - -, f 5;
#X obj 4 250 r count;
#X obj 3 268 hradio 35 1 0 16 empty empty empty 0 -8 0 10 -262144 -1
-1 5;
#X obj 3 320 select 0 1 2 3 4 5 6 7 8 9 10 11 12 13 14 15;
#X obj 3 337 trg;
#X obj 40 337 trg;
#X obj 78 337 trg;
#X obj 114 337 trg;
#X obj 150 337 trg;
#X obj 185 337 trg;
#X obj 220 337 trg;
#X obj 256 337 trg;
#X obj 294 337 trg;
#X obj 331 337 trg;
#X obj 366 337 trg;
#X obj 401 337 trg;
#X obj 438 337 trg;
#X obj 474 337 trg;
#X obj 511 337 trg;
#X obj 546 337 trg;
#X obj 522 355 noteout;
#X obj 87 251 nbx 5 14 -1e+037 1e+037 0 1 empty empty empty 0 -8 0
10 -262144 -1 -1 16 256;
#X obj 58 251 mod;
#X obj 912 264 r count_x4;
#X floatatom 912 298 5 0 0 0 - - -, f 5;
#X text 1178 245 clear cc;
#X text 1177 349 clear cc;
#X obj 1016 264 nbx 5 14 -1e+037 1e+037 0 1 empty empty empty 0 -8
0 10 -262144 -1 -1 64 256;
#X obj 989 264 mod;
#X obj 1096 250 vradio 10 1 1 10 empty empty empty 0 -8 0 10 -262144
-1 -1 9;
#X obj 478 355 spigot;
#X obj 238 251 tgl 15 1 empty empty empty 17 7 0 10 -262144 -1 -1 1
1;
#X text 257 249 midi on/off;
#N canvas 1772 126 854 500 er1-parameter-send 0;
#X obj -370 25 inlet;
#X obj -199 25 inlet;
#X obj -370 78 s pitch2;
#X obj -348 95 s moddepth2;
#X obj -328 114 s modspeed2;
#X obj -306 133 s modtype2;
#X obj -285 156 s decay2;
#X obj -265 175 s level2;
#X obj -242 194 s pan2;
#X obj -221 210 s lowboost2;
#X obj -199 228 s wave2;
#X obj -370 49 demultiplex 0 1 2 3 4 5 6 7 8 9;
#X connect 0 0 11 0;
#X connect 1 0 11 1;
#X connect 11 0 2 0;
#X connect 11 1 3 0;
#X connect 11 2 4 0;
#X connect 11 3 5 0;
#X connect 11 4 6 0;
#X connect 11 5 7 0;
#X connect 11 6 8 0;
#X connect 11 7 9 0;
#X connect 11 8 10 0;
#X restore 912 314 pd er1-parameter-send;
#X text 1109 245 pitch;
#X text 1109 256 mod depth;
#X text 1109 266 mod speed;
#X text 1109 276 mod type;
#X text 1108 286 decay;
#X text 1108 297 level;
#X text 1109 306 pan;
#X text 1108 317 low boost;
#X text 1109 326 wave;
#N canvas 0 50 450 300 (subpatch) 0;
#X array cc3 64 float 3;
#A 0 0 0 0 0 0 0 0 0 0 0 0 0 0 0 0 0 0 0 0 0 0 0 0 0 0 0 0 0 0 0 0
0 0 0 0 0 0 0 0 0 0 0 0 0 0 0 0 0 0 0 0 0 0 0 0 0 0 0 0 0 0 0 0 0;
#X coords 0 127 64 0 330 70 1 0 0;
#X restore 576 264 graph;
#N canvas 0 50 450 300 (subpatch) 0;
#X array cc4 64 float 3;
#A 0 0 0 0 0 0 0 0 0 0 0 0 0 0 0 0 0 0 0 0 0 0 0 0 0 0 0 0 0 0 0 0
0 0 0 0 0 0 0 0 0 0 0 0 0 0 0 0 0 0 0 0 0 0 0 0 0 0 0 0 0 0 0 0 0;
#X coords 0 127 64 0 330 70 1 0 0;
#X restore 576 368 graph;
#X obj 912 368 r count_x4;
#X floatatom 912 402 5 0 0 0 - - -, f 5;
#X obj 1016 368 nbx 5 14 -1e+037 1e+037 0 1 empty empty empty 0 -8
0 10 -262144 -1 -1 64 256;
#X obj 989 368 mod;
#N canvas 548 143 854 500 er1-parameter-send 0;
#X obj -370 25 inlet;
#X obj -199 25 inlet;
#X obj -370 78 s pitch2;
#X obj -348 95 s moddepth2;
#X obj -328 114 s modspeed2;
#X obj -306 133 s modtype2;
#X obj -285 156 s decay2;
#X obj -265 175 s level2;
#X obj -242 194 s pan2;
#X obj -221 210 s lowboost2;
#X obj -199 228 s wave2;
#X obj -368 49 demultiplex 0 1 2 3 4 5 6 7 8 9;
#X connect 0 0 11 0;
#X connect 1 0 11 1;
#X connect 11 0 2 0;
#X connect 11 1 3 0;
#X connect 11 2 4 0;
#X connect 11 3 5 0;
#X connect 11 4 6 0;
#X connect 11 5 7 0;
#X connect 11 6 8 0;
#X connect 11 7 9 0;
#X connect 11 8 10 0;
#X restore 912 418 pd er1-parameter-send;
#X obj 4 378 vsl 15 50 0 127 0 0 empty empty pitch 0 -9 0 10 -262144
-1 -1 0 1;
#X obj 40 378 vsl 15 50 0 127 0 0 empty empty md_dep 0 -9 0 10 -262144
-1 -1 0 1;
#X obj 78 378 vsl 15 50 0 127 0 0 empty empty md_spd 0 -9 0 10 -262144
-1 -1 0 1;
#X obj 118 378 vsl 15 50 0 127 0 0 empty empty md_typ 0 -9 0 10 -262144
-1 -1 0 1;
#X obj 157 378 vsl 15 50 0 127 0 0 empty empty decay 0 -9 0 10 -262144
-1 -1 0 1;
#X obj 194 378 vsl 15 50 0 127 0 0 empty empty level 0 -9 0 10 -262144
-1 -1 0 1;
#X obj 234 378 vsl 15 50 0 127 0 0 empty empty pan 0 -9 0 10 -262144
-1 -1 0 1;
#X obj 273 378 vsl 15 50 0 127 0 0 empty empty boost 0 -9 0 10 -262144
-1 -1 0 1;
#X obj 314 378 vsl 15 50 0 127 0 0 empty empty wave 0 -9 0 10 -262144
-1 -1 0 1;
#X text 1108 336 off;
#X obj 1096 354 vradio 10 1 1 10 empty empty empty 0 -8 0 10 -262144
-1 -1 9;
#X text 1109 349 pitch;
#X text 1109 360 mod depth;
#X text 1109 370 mod speed;
#X text 1109 380 mod type;
#X text 1108 390 decay;
#X text 1108 401 level;
#X text 1109 410 pan;
#X text 1108 421 low boost;
#X text 1109 430 wave;
#X text 1108 440 off;
#N canvas 548 143 854 500 er1-parameter-send 0;
#X obj -370 25 inlet;
#X obj -331 25 inlet;
#X obj -293 25 inlet;
#X obj -253 25 inlet;
#X obj -215 25 inlet;
#X obj -177 25 inlet;
#X obj -139 25 inlet;
#X obj -99 25 inlet;
#X obj -60 25 inlet;
#X obj -370 78 s pitch2;
#X obj -331 96 s moddepth2;
#X obj -293 114 s modspeed2;
#X obj -253 132 s modtype2;
#X obj -215 150 s decay2;
#X obj -177 168 s level2;
#X obj -139 189 s pan2;
#X obj -99 208 s lowboost2;
#X obj -60 231 s wave2;
#X connect 0 0 9 0;
#X connect 1 0 10 0;
#X connect 2 0 11 0;
#X connect 3 0 12 0;
#X connect 4 0 13 0;
#X connect 5 0 14 0;
#X connect 6 0 15 0;
#X connect 7 0 16 0;
#X connect 8 0 17 0;
#X restore 199 431 pd er1-parameter-send;
#X msg 412 354 38 127 10;
#X obj 912 281 tabread cc3;
#X obj 912 385 tabread cc4;
#X msg 1181 264 \; cc3 const 0 \;;
#X msg 1180 370 \; cc4 const 0 \;;
#X floatatom 6 512 5 0 100 0 - - -, f 5;
#X floatatom 39 512 5 0 100 0 - - -, f 5;
#X floatatom 72 512 5 0 100 0 - - -, f 5;
#X floatatom 105 512 5 0 100 0 - - -, f 5;
#X floatatom 147 512 5 0 100 0 - - -, f 5;
#X floatatom 180 512 5 0 100 0 - - -, f 5;
#X floatatom 213 512 5 0 100 0 - - -, f 5;
#X floatatom 246 512 5 0 100 0 - - -, f 5;
#X floatatom 289 512 5 0 100 0 - - -, f 5;
#X floatatom 322 512 5 0 100 0 - - -, f 5;
#X floatatom 355 512 5 0 100 0 - - -, f 5;
#X floatatom 388 512 5 0 100 0 - - -, f 5;
#X floatatom 430 512 5 0 100 0 - - -, f 5;
#X floatatom 463 512 5 0 100 0 - - -, f 5;
#X floatatom 496 512 5 0 100 0 - - -, f 5;
#X floatatom 529 512 5 0 100 0 - - -, f 5;
#X obj 4 458 r count;
#X obj 3 476 hradio 35 1 0 16 empty empty empty 0 -8 0 10 -262144 -1
-1 5;
#X obj 3 528 select 0 1 2 3 4 5 6 7 8 9 10 11 12 13 14 15;
#X obj 3 545 trg;
#X obj 40 545 trg;
#X obj 78 545 trg;
#X obj 114 545 trg;
#X obj 150 545 trg;
#X obj 185 545 trg;
#X obj 220 545 trg;
#X obj 256 545 trg;
#X obj 294 545 trg;
#X obj 331 545 trg;
#X obj 366 545 trg;
#X obj 401 545 trg;
#X obj 438 545 trg;
#X obj 474 545 trg;
#X obj 511 545 trg;
#X obj 546 545 trg;
#X obj 522 563 noteout;
#X obj 87 459 nbx 5 14 -1e+037 1e+037 0 1 empty empty empty 0 -8 0
10 -262144 -1 -1 16 256;
#X obj 58 459 mod;
#X obj 912 472 r count_x4;
#X floatatom 912 506 5 0 0 0 - - -, f 5;
#X text 1178 453 clear cc;
#X text 1177 557 clear cc;
#X obj 1016 472 nbx 5 14 -1e+037 1e+037 0 1 empty empty empty 0 -8
0 10 -262144 -1 -1 64 256;
#X obj 989 472 mod;
#X obj 1096 458 vradio 10 1 1 10 empty empty empty 0 -8 0 10 -262144
-1 -1 9;
#X obj 478 563 spigot;
#X obj 238 459 tgl 15 1 empty empty empty 17 7 0 10 -262144 -1 -1 1
1;
#X text 257 457 midi on/off;
#N canvas 548 143 854 500 er1-parameter-send 0;
#X obj -370 25 inlet;
#X obj -199 25 inlet;
#X obj -370 78 s pitch3;
#X obj -349 95 s moddepth3;
#X obj -328 114 s modspeed3;
#X obj -306 133 s modtype3;
#X obj -285 156 s decay3;
#X obj -265 175 s level3;
#X obj -242 194 s pan3;
#X obj -222 209 s lowboost3;
#X obj -199 228 s wave3;
#X obj -370 49 demultiplex 0 1 2 3 4 5 6 7 8 9;
#X connect 0 0 11 0;
#X connect 1 0 11 1;
#X connect 11 0 2 0;
#X connect 11 1 3 0;
#X connect 11 2 4 0;
#X connect 11 3 5 0;
#X connect 11 4 6 0;
#X connect 11 5 7 0;
#X connect 11 6 8 0;
#X connect 11 7 9 0;
#X connect 11 8 10 0;
#X restore 912 523 pd er1-parameter-send;
#X text 1109 453 pitch;
#X text 1109 464 mod depth;
#X text 1109 474 mod speed;
#X text 1109 484 mod type;
#X text 1108 494 decay;
#X text 1108 505 level;
#X text 1109 514 pan;
#X text 1108 525 low boost;
#X text 1109 534 wave;
#N canvas 0 50 450 300 (subpatch) 0;
#X array cc5 64 float 3;
#A 0 0 0 0 0 0 0 0 0 0 0 0 0 0 0 0 0 0 0 0 0 0 0 0 0 0 0 0 0 0 0 0
0 0 0 0 0 0 0 0 0 0 0 0 0 0 0 0 0 0 0 0 0 0 0 0 0 0 0 0 0 0 0 0 0;
#X coords 0 127 64 0 330 70 1 0 0;
#X restore 576 472 graph;
#N canvas 0 50 450 300 (subpatch) 0;
#X array cc6 64 float 3;
#A 0 0 0 0 0 0 0 0 0 0 0 0 0 0 0 0 0 0 0 0 0 0 0 0 0 0 0 0 0 0 0 0
0 0 0 0 0 0 0 0 0 0 0 0 0 0 0 0 0 0 0 0 0 0 0 0 0 0 0 0 0 0 0 0 0;
#X coords 0 127 64 0 330 70 1 0 0;
#X restore 576 576 graph;
#X obj 912 576 r count_x4;
#X floatatom 912 610 5 0 0 0 - - -, f 5;
#X obj 1016 576 nbx 5 14 -1e+037 1e+037 0 1 empty empty empty 0 -8
0 10 -262144 -1 -1 64 256;
#X obj 989 576 mod;
#N canvas 548 143 854 500 er1-parameter-send 0;
#X obj -370 25 inlet;
#X obj -199 25 inlet;
#X obj -370 78 s pitch3;
#X obj -348 95 s moddepth3;
#X obj -328 114 s modspeed3;
#X obj -306 133 s modtype3;
#X obj -285 156 s decay3;
#X obj -265 175 s level3;
#X obj -242 194 s pan3;
#X obj -221 210 s lowboost3;
#X obj -199 228 s wave3;
#X obj -370 49 demultiplex 0 1 2 3 4 5 6 7 8 9;
#X connect 0 0 11 0;
#X connect 1 0 11 1;
#X connect 11 0 2 0;
#X connect 11 1 3 0;
#X connect 11 2 4 0;
#X connect 11 3 5 0;
#X connect 11 4 6 0;
#X connect 11 5 7 0;
#X connect 11 6 8 0;
#X connect 11 7 9 0;
#X connect 11 8 10 0;
#X restore 912 627 pd er1-parameter-send;
#X obj 4 586 vsl 15 50 0 127 0 0 empty empty pitch 0 -9 0 10 -262144
-1 -1 0 1;
#X obj 40 586 vsl 15 50 0 127 0 0 empty empty md_dep 0 -9 0 10 -262144
-1 -1 0 1;
#X obj 78 586 vsl 15 50 0 127 0 0 empty empty md_spd 0 -9 0 10 -262144
-1 -1 0 1;
#X obj 118 586 vsl 15 50 0 127 0 0 empty empty md_typ 0 -9 0 10 -262144
-1 -1 0 1;
#X obj 157 586 vsl 15 50 0 127 0 0 empty empty decay 0 -9 0 10 -262144
-1 -1 0 1;
#X obj 194 586 vsl 15 50 0 127 0 0 empty empty level 0 -9 0 10 -262144
-1 -1 0 1;
#X obj 234 586 vsl 15 50 0 127 0 0 empty empty pan 0 -9 0 10 -262144
-1 -1 0 1;
#X obj 273 586 vsl 15 50 0 127 0 0 empty empty boost 0 -9 0 10 -262144
-1 -1 0 1;
#X obj 314 586 vsl 15 50 0 127 0 0 empty empty wave 0 -9 0 10 -262144
-1 -1 0 1;
#X text 1108 544 off;
#X obj 1096 562 vradio 10 1 1 10 empty empty empty 0 -8 0 10 -262144
-1 -1 9;
#X text 1109 557 pitch;
#X text 1109 568 mod depth;
#X text 1109 578 mod speed;
#X text 1109 588 mod type;
#X text 1108 598 decay;
#X text 1108 609 level;
#X text 1109 618 pan;
#X text 1108 629 low boost;
#X text 1109 638 wave;
#X text 1108 648 off;
#N canvas 548 143 854 500 er1-parameter-send 0;
#X obj -370 25 inlet;
#X obj -331 25 inlet;
#X obj -293 25 inlet;
#X obj -253 25 inlet;
#X obj -215 25 inlet;
#X obj -177 25 inlet;
#X obj -139 25 inlet;
#X obj -99 25 inlet;
#X obj -60 25 inlet;
#X obj -370 78 s pitch3;
#X obj -331 96 s moddepth3;
#X obj -293 114 s modspeed3;
#X obj -253 132 s modtype3;
#X obj -215 150 s decay3;
#X obj -177 168 s level3;
#X obj -139 189 s pan3;
#X obj -99 208 s lowboost3;
#X obj -60 231 s wave3;
#X connect 0 0 9 0;
#X connect 1 0 10 0;
#X connect 2 0 11 0;
#X connect 3 0 12 0;
#X connect 4 0 13 0;
#X connect 5 0 14 0;
#X connect 6 0 15 0;
#X connect 7 0 16 0;
#X connect 8 0 17 0;
#X restore 199 639 pd er1-parameter-send;
#X obj 912 489 tabread cc5;
#X msg 1181 472 \; cc5 const 0 \;;
#X obj 912 593 tabread cc6;
#X msg 1180 578 \; cc6 const 0 \;;
#X msg 412 562 40 127 10;
#X text 235 -1 bpm;
#X floatatom 6 720 5 0 100 0 - - -, f 5;
#X floatatom 39 720 5 0 100 0 - - -, f 5;
#X floatatom 72 720 5 0 100 0 - - -, f 5;
#X floatatom 105 720 5 0 100 0 - - -, f 5;
#X floatatom 147 720 5 0 100 0 - - -, f 5;
#X floatatom 180 720 5 0 100 0 - - -, f 5;
#X floatatom 213 720 5 0 100 0 - - -, f 5;
#X floatatom 246 720 5 0 100 0 - - -, f 5;
#X floatatom 289 720 5 0 100 0 - - -, f 5;
#X floatatom 322 720 5 0 100 0 - - -, f 5;
#X floatatom 355 720 5 0 100 0 - - -, f 5;
#X floatatom 388 720 5 0 100 0 - - -, f 5;
#X floatatom 430 720 5 0 100 0 - - -, f 5;
#X floatatom 463 720 5 0 100 0 - - -, f 5;
#X floatatom 496 720 5 0 100 0 - - -, f 5;
#X floatatom 529 720 5 0 100 0 - - -, f 5;
#X obj 4 666 r count;
#X obj 3 684 hradio 35 1 0 16 empty empty empty 0 -8 0 10 -262144 -1
-1 5;
#X obj 3 736 select 0 1 2 3 4 5 6 7 8 9 10 11 12 13 14 15;
#X obj 3 753 trg;
#X obj 40 753 trg;
#X obj 78 753 trg;
#X obj 114 753 trg;
#X obj 150 753 trg;
#X obj 185 753 trg;
#X obj 220 753 trg;
#X obj 256 753 trg;
#X obj 294 753 trg;
#X obj 331 753 trg;
#X obj 366 753 trg;
#X obj 401 753 trg;
#X obj 438 753 trg;
#X obj 474 753 trg;
#X obj 511 753 trg;
#X obj 546 753 trg;
#X obj 522 771 noteout;
#X obj 87 667 nbx 5 14 -1e+037 1e+037 0 1 empty empty empty 0 -8 0
10 -262144 -1 -1 16 256;
#X obj 58 667 mod;
#X obj 912 680 r count_x4;
#X floatatom 912 714 5 0 0 0 - - -, f 5;
#X text 1178 661 clear cc;
#X text 1177 765 clear cc;
#X obj 1016 680 nbx 5 14 -1e+037 1e+037 0 1 empty empty empty 0 -8
0 10 -262144 -1 -1 64 256;
#X obj 989 680 mod;
#X obj 1096 666 vradio 10 1 1 10 empty empty empty 0 -8 0 10 -262144
-1 -1 2;
#X obj 478 771 spigot;
#X obj 238 667 tgl 15 1 empty empty empty 17 7 0 10 -262144 -1 -1 1
1;
#X text 257 665 midi on/off;
#N canvas 548 143 854 500 er1-parameter-send 0;
#X obj -370 25 inlet;
#X obj -199 25 inlet;
#X obj -370 78 s pitch4;
#X obj -349 95 s moddepth4;
#X obj -328 114 s modspeed4;
#X obj -306 133 s modtype4;
#X obj -285 156 s decay4;
#X obj -265 175 s level4;
#X obj -242 195 s pan4;
#X obj -221 209 s lowboost4;
#X obj -199 228 s wave4;
#X obj -377 49 demultiplex 0 1 2 3 4 5 6 7 8 9;
#X connect 0 0 11 0;
#X connect 1 0 11 1;
#X connect 11 0 2 0;
#X connect 11 1 3 0;
#X connect 11 2 4 0;
#X connect 11 3 5 0;
#X connect 11 4 6 0;
#X connect 11 5 7 0;
#X connect 11 6 8 0;
#X connect 11 7 9 0;
#X connect 11 8 10 0;
#X restore 912 731 pd er1-parameter-send;
#X text 1109 661 pitch;
#X text 1109 672 mod depth;
#X text 1109 682 mod speed;
#X text 1109 692 mod type;
#X text 1108 702 decay;
#X text 1108 713 level;
#X text 1109 722 pan;
#X text 1108 733 low boost;
#X text 1109 742 wave;
#N canvas 0 50 450 300 (subpatch) 0;
#X array cc7 64 float 3;
#A 0 0 0 0 0 0 0 0 0 0 1.81426 7.25705 10.8856 12.6998 14.5141 16.3284
19.9569 23.5854 29.0282 32.6567 32.6567 36.2852 38.0995 43.5423 45.3565
47.1708 48.9851 48.9851 48.9851 48.9851 48.9851 47.1708 47.1708 47.1708
47.1708 45.3565 43.5423 43.5423 41.728 39.9137 38.0995 38.0995 38.0995
38.0995 38.0995 38.0995 38.0995 39.9137 41.728 47.1708 50.7993 59.8706
67.1277 72.5705 78.0132 81.6418 81.6418 81.6418 81.6418 81.6418 81.6418
81.6418 85.2703 85.2703 0;
#X coords 0 127 64 0 330 70 1 0 0;
#X restore 576 680 graph;
#N canvas 0 50 450 300 (subpatch) 0;
#X array cc8 64 float 3;
#A 0 0 0 0 0 0 0 0 0 0 0 0 0 0 0 0 0 5.44292 9.07153 12.7001 14.5145
16.3288 17.2359 18.1431 19.9574 19.9574 19.9574 19.9574 19.9574 19.9574
19.9574 19.9574 19.9574 19.9574 19.9574 19.9574 21.7717 23.586 25.4003
25.4003 29.0289 30.8432 34.4718 36.2861 39.9147 43.5434 45.3577 50.8006
52.6149 58.0578 63.5007 68.9437 68.9437 74.3866 78.0152 81.6438 85.2724
88.9011 90.7154 96.1583 99.7869 99.7869 103.416 103.416 107.044;
#X coords 0 127 64 0 330 70 1 0 0;
#X restore 576 784 graph;
#X obj 912 784 r count_x4;
#X floatatom 912 818 5 0 0 0 - - -, f 5;
#X obj 1016 784 nbx 5 14 -1e+037 1e+037 0 0 empty empty empty 0 -8
0 10 -262144 -1 -1 0 256;
#X obj 989 784 mod;
#N canvas 548 143 854 500 er1-parameter-send 0;
#X obj -370 25 inlet;
#X obj -199 25 inlet;
#X obj -370 78 s pitch4;
#X obj -348 95 s moddepth4;
#X obj -328 114 s modspeed4;
#X obj -306 133 s modtype4;
#X obj -285 156 s decay4;
#X obj -264 176 s level4;
#X obj -242 194 s pan4;
#X obj -221 210 s lowboost4;
#X obj -199 228 s wave4;
#X obj -370 49 demultiplex 0 1 2 3 4 5 6 7 8 9;
#X connect 0 0 11 0;
#X connect 1 0 11 1;
#X connect 11 0 2 0;
#X connect 11 1 3 0;
#X connect 11 2 4 0;
#X connect 11 3 5 0;
#X connect 11 4 6 0;
#X connect 11 5 7 0;
#X connect 11 6 8 0;
#X connect 11 7 9 0;
#X connect 11 8 10 0;
#X restore 912 835 pd er1-parameter-send;
#X obj 4 794 vsl 15 50 0 127 0 0 empty empty pitch 0 -9 0 10 -262144
-1 -1 0 1;
#X obj 40 794 vsl 15 50 0 127 0 0 empty empty md_dep 0 -9 0 10 -262144
-1 -1 0 1;
#X obj 78 794 vsl 15 50 0 127 0 0 empty empty md_spd 0 -9 0 10 -262144
-1 -1 0 1;
#X obj 118 794 vsl 15 50 0 127 0 0 empty empty md_typ 0 -9 0 10 -262144
-1 -1 0 1;
#X obj 157 794 vsl 15 50 0 127 0 0 empty empty decay 0 -9 0 10 -262144
-1 -1 0 1;
#X obj 194 794 vsl 15 50 0 127 0 0 empty empty level 0 -9 0 10 -262144
-1 -1 0 1;
#X obj 234 794 vsl 15 50 0 127 0 0 empty empty pan 0 -9 0 10 -262144
-1 -1 0 1;
#X obj 273 794 vsl 15 50 0 127 0 0 empty empty boost 0 -9 0 10 -262144
-1 -1 0 1;
#X obj 314 794 vsl 15 50 0 127 0 0 empty empty wave 0 -9 0 10 -262144
-1 -1 0 1;
#X text 1108 752 off;
#X obj 1096 770 vradio 10 1 1 10 empty empty empty 0 -8 0 10 -262144
-1 -1 1;
#X text 1109 765 pitch;
#X text 1109 776 mod depth;
#X text 1109 786 mod speed;
#X text 1109 796 mod type;
#X text 1108 806 decay;
#X text 1108 817 level;
#X text 1109 826 pan;
#X text 1108 837 low boost;
#X text 1109 846 wave;
#X text 1108 856 off;
#N canvas 548 143 854 500 er1-parameter-send 0;
#X obj -370 25 inlet;
#X obj -331 25 inlet;
#X obj -293 25 inlet;
#X obj -253 25 inlet;
#X obj -215 25 inlet;
#X obj -177 25 inlet;
#X obj -139 25 inlet;
#X obj -99 25 inlet;
#X obj -60 25 inlet;
#X obj -370 78 s pitch4;
#X obj -331 96 s moddepth4;
#X obj -293 114 s modspeed4;
#X obj -253 132 s modtype4;
#X obj -215 150 s decay4;
#X obj -177 168 s level4;
#X obj -139 189 s pan4;
#X obj -99 208 s lowboost4;
#X obj -60 231 s wave4;
#X connect 0 0 9 0;
#X connect 1 0 10 0;
#X connect 2 0 11 0;
#X connect 3 0 12 0;
#X connect 4 0 13 0;
#X connect 5 0 14 0;
#X connect 6 0 15 0;
#X connect 7 0 16 0;
#X connect 8 0 17 0;
#X restore 199 847 pd er1-parameter-send;
#X msg 412 770 41 127 10;
#X obj 912 697 tabread cc7;
#X obj 912 801 tabread cc8;
#X msg 1180 786 \; cc8 const 0 \;;
#X msg 1181 680 \; cc7 const 0 \;;
#X text 1244 1150 end;
#X obj 531 210 cnv 15 40 20 empty empty 1 20 12 0 20 -233017 -66577
0;
#X obj 531 419 cnv 15 40 20 empty empty 2 20 12 0 20 -233017 -66577
0;
#X obj 531 627 cnv 15 40 20 empty empty 3 20 12 0 20 -233017 -66577
0;
#X obj 531 834 cnv 15 40 20 empty empty 4 20 12 0 20 -233017 -66577
0;
#N canvas 0 50 1178 300 (subpatch) 0;
#X array trigger 64 float 3;
#A 0 0 0 0 0 0 0 0 0 0 0 0 0 0 0 0 0 0 0 0 0 0 0 0 1.42854 7.14268
11.4283 14.2854 18.571 19.9995 21.4281 22.8566 22.8566 22.8566 22.8566
22.8566 22.8566 22.8566 22.8566 24.2851 24.2851 25.7137 28.5707 29.9993
32.8563 34.2849 35.7134 35.7134 35.7134 37.142 37.142 38.5705 39.999
42.8561 44.2846 47.1417 49.9988 54.2844 59.9985 62.8556 65.7127 68.5698
69.9983 72.8554 78.5695;
#X coords 0 100 64 0 330 70 1 0 0;
#X restore 5 885 graph;
#N canvas 0 50 450 300 (subpatch) 0;
#X array x_value 64 float 3;
#A 0 0 0 0 0 0 0 0 0 0 1.15456 1.73184 2.88641 4.04097 4.04097 4.61825
4.90689 5.19553 5.19553 5.19553 5.77282 6.92738 6.92738 8.08194 9.2365
10.3911 10.9683 12.1229 12.7002 14.432 14.432 15.5866 16.1639 17.8957
18.473 19.0503 19.0503 20.7821 22.514 23.0913 24.2458 25.4004 25.9777
28.2868 31.7505 32.3278 35.2142 36.3687 39.2551 42.1416 40.987 43.2961
43.8734 46.7598 49.069 53.1099 56.5736 58.8827 62.3464 67.542 73.3148
80.2421 87.1695 94.0969 98.1378;
#X coords 0 127 64 0 280 220 1 0 0;
#X restore 341 885 graph;
#N canvas 0 50 450 300 (subpatch) 0;
#X array y_value 64 float 3;
#A 0 0 0 0 0 0 0 0 0 0 0 0 0 0.577279 1.73184 2.8864 3.75232 5.19551
5.77279 7.50463 8.08191 9.81375 10.6797 12.7001 14.432 15.5865 16.7411
17.8957 19.0502 20.2048 20.2048 21.9366 23.0912 24.823 25.4003 27.1321
27.1321 28.5753 31.1731 31.7504 34.6368 36.9459 37.5232 38.6777 40.4096
41.5641 42.7187 43.8732 45.0278 45.6051 46.7596 47.3369 49.0687 50.8006
51.9551 53.1097 53.687 56.5734 61.7689 64.6553 76.2009 84.8601 102.178
117.765 123.538;
#X coords 0 127 64 0 280 220 1 0 0;
#X restore 626 884 graph;
#X obj 915 890 r count_x4;
#X floatatom 940 1028 5 0 0 0 - - -, f 5;
#X floatatom 948 1069 5 0 0 0 - - -, f 5;
#X obj 914 924 t b f;
#X obj 914 908 tabread trigger;
#X obj 914 1011 tabread x_value;
#X obj 914 1052 tabread y_value;
#X text 1025 908 clear trigger;
#X msg 1028 926 \; trigger const 0 \;;
#X text 1024 991 clear x_value;
#X text 1022 1054 clear y_value;
#X obj 914 993 f;
#X obj 914 941 random 100;
#X obj 914 959 expr $i1 < $i2;
#X obj 914 976 sel 1;
#X obj 993 890 mod;
#X obj 1021 890 nbx 5 14 -1e+037 1e+037 0 0 empty empty empty 0 -8
0 10 -262144 -1 -1 0 256;
#X obj 275 961 cnv 15 60 20 empty empty kp3 20 12 0 20 -233017 -66577
0;
#X msg 1027 1072 \; y_value const 0 \;;
#X msg 1027 1011 \; x_value const 0 \;;
#X text 1004 38 step length;
#X text 1004 142 step length;
#X text 1004 247 step length;
#X text 1004 351 step length;
#X text 1004 455 step length;
#X text 1004 559 step length;
#X text 1004 663 step length;
#X text 1004 767 step length;
#X text 1019 873 step length;
#X text 144 40 step length;
#X text 144 249 step length;
#X text 144 457 step length;
#X text 144 665 step length;
#X connect 1 0 3 0;
#X connect 2 0 3 1;
#X connect 3 0 4 0;
#X connect 3 1 5 0;
#X connect 6 0 1 0;
#X connect 8 0 7 0;
#X connect 9 0 28 1;
#X connect 10 0 29 1;
#X connect 11 0 30 1;
#X connect 12 0 31 1;
#X connect 13 0 32 1;
#X connect 14 0 33 1;
#X connect 15 0 34 1;
#X connect 16 0 35 1;
#X connect 17 0 36 1;
#X connect 18 0 37 1;
#X connect 19 0 38 1;
#X connect 20 0 39 1;
#X connect 21 0 40 1;
#X connect 22 0 41 1;
#X connect 23 0 42 1;
#X connect 24 0 43 1;
#X connect 25 0 47 0;
#X connect 26 0 27 0;
#X connect 27 0 28 0;
#X connect 27 1 29 0;
#X connect 27 2 30 0;
#X connect 27 3 31 0;
#X connect 27 4 32 0;
#X connect 27 5 33 0;
#X connect 27 6 34 0;
#X connect 27 7 35 0;
#X connect 27 8 36 0;
#X connect 27 9 37 0;
#X connect 27 10 38 0;
#X connect 27 11 39 0;
#X connect 27 12 40 0;
#X connect 27 13 41 0;
#X connect 27 14 42 0;
#X connect 27 15 43 0;
#X connect 28 0 45 0;
#X connect 29 0 45 0;
#X connect 30 0 45 0;
#X connect 31 0 45 0;
#X connect 32 0 45 0;
#X connect 33 0 45 0;
#X connect 34 0 45 0;
#X connect 35 0 45 0;
#X connect 36 0 45 0;
#X connect 37 0 45 0;
#X connect 38 0 45 0;
#X connect 39 0 45 0;
#X connect 40 0 45 0;
#X connect 41 0 45 0;
#X connect 42 0 45 0;
#X connect 43 0 45 0;
#X connect 45 0 58 0;
#X connect 46 0 47 1;
#X connect 47 0 26 0;
#X connect 48 0 56 0;
#X connect 49 0 50 0;
#X connect 50 0 61 0;
#X connect 55 0 56 1;
#X connect 56 0 49 0;
#X connect 57 0 61 1;
#X connect 58 0 44 0;
#X connect 59 0 58 1;
#X connect 74 0 77 0;
#X connect 75 0 78 0;
#X connect 76 0 77 1;
#X connect 77 0 79 0;
#X connect 79 0 75 0;
#X connect 80 0 101 0;
#X connect 81 0 101 1;
#X connect 82 0 101 2;
#X connect 83 0 101 3;
#X connect 84 0 101 4;
#X connect 85 0 101 5;
#X connect 86 0 101 6;
#X connect 87 0 101 7;
#X connect 88 0 101 8;
#X connect 90 0 78 1;
#X connect 102 0 121 1;
#X connect 103 0 122 1;
#X connect 104 0 123 1;
#X connect 105 0 124 1;
#X connect 106 0 125 1;
#X connect 107 0 126 1;
#X connect 108 0 127 1;
#X connect 109 0 128 1;
#X connect 110 0 129 1;
#X connect 111 0 130 1;
#X connect 112 0 131 1;
#X connect 113 0 132 1;
#X connect 114 0 133 1;
#X connect 115 0 134 1;
#X connect 116 0 135 1;
#X connect 117 0 136 1;
#X connect 118 0 139 0;
#X connect 119 0 120 0;
#X connect 120 0 121 0;
#X connect 120 1 122 0;
#X connect 120 2 123 0;
#X connect 120 3 124 0;
#X connect 120 4 125 0;
#X connect 120 5 126 0;
#X connect 120 6 127 0;
#X connect 120 7 128 0;
#X connect 120 8 129 0;
#X connect 120 9 130 0;
#X connect 120 10 131 0;
#X connect 120 11 132 0;
#X connect 120 12 133 0;
#X connect 120 13 134 0;
#X connect 120 14 135 0;
#X connect 120 15 136 0;
#X connect 121 0 189 0;
#X connect 122 0 189 0;
#X connect 123 0 189 0;
#X connect 124 0 189 0;
#X connect 125 0 189 0;
#X connect 126 0 189 0;
#X connect 127 0 189 0;
#X connect 128 0 189 0;
#X connect 129 0 189 0;
#X connect 130 0 189 0;
#X connect 131 0 189 0;
#X connect 132 0 189 0;
#X connect 133 0 189 0;
#X connect 134 0 189 0;
#X connect 135 0 189 0;
#X connect 136 0 189 0;
#X connect 138 0 139 1;
#X connect 139 0 119 0;
#X connect 140 0 145 0;
#X connect 141 0 150 0;
#X connect 144 0 145 1;
#X connect 145 0 190 0;
#X connect 146 0 150 1;
#X connect 147 0 137 0;
#X connect 148 0 147 1;
#X connect 162 0 165 0;
#X connect 163 0 166 0;
#X connect 164 0 165 1;
#X connect 165 0 191 0;
#X connect 167 0 188 0;
#X connect 168 0 188 1;
#X connect 169 0 188 2;
#X connect 170 0 188 3;
#X connect 171 0 188 4;
#X connect 172 0 188 5;
#X connect 173 0 188 6;
#X connect 174 0 188 7;
#X connect 175 0 188 8;
#X connect 177 0 166 1;
#X connect 189 0 147 0;
#X connect 190 0 141 0;
#X connect 191 0 163 0;
#X connect 194 0 213 1;
#X connect 195 0 214 1;
#X connect 196 0 215 1;
#X connect 197 0 216 1;
#X connect 198 0 217 1;
#X connect 199 0 218 1;
#X connect 200 0 219 1;
#X connect 201 0 220 1;
#X connect 202 0 221 1;
#X connect 203 0 222 1;
#X connect 204 0 223 1;
#X connect 205 0 224 1;
#X connect 206 0 225 1;
#X connect 207 0 226 1;
#X connect 208 0 227 1;
#X connect 209 0 228 1;
#X connect 210 0 231 0;
#X connect 211 0 212 0;
#X connect 212 0 213 0;
#X connect 212 1 214 0;
#X connect 212 2 215 0;
#X connect 212 3 216 0;
#X connect 212 4 217 0;
#X connect 212 5 218 0;
#X connect 212 6 219 0;
#X connect 212 7 220 0;
#X connect 212 8 221 0;
#X connect 212 9 222 0;
#X connect 212 10 223 0;
#X connect 212 11 224 0;
#X connect 212 12 225 0;
#X connect 212 13 226 0;
#X connect 212 14 227 0;
#X connect 212 15 228 0;
#X connect 213 0 285 0;
#X connect 214 0 285 0;
#X connect 215 0 285 0;
#X connect 216 0 285 0;
#X connect 217 0 285 0;
#X connect 218 0 285 0;
#X connect 219 0 285 0;
#X connect 220 0 285 0;
#X connect 221 0 285 0;
#X connect 222 0 285 0;
#X connect 223 0 285 0;
#X connect 224 0 285 0;
#X connect 225 0 285 0;
#X connect 226 0 285 0;
#X connect 227 0 285 0;
#X connect 228 0 285 0;
#X connect 230 0 231 1;
#X connect 231 0 211 0;
#X connect 232 0 237 0;
#X connect 233 0 242 0;
#X connect 236 0 237 1;
#X connect 237 0 281 0;
#X connect 238 0 242 1;
#X connect 239 0 229 0;
#X connect 240 0 239 1;
#X connect 254 0 257 0;
#X connect 255 0 258 0;
#X connect 256 0 257 1;
#X connect 257 0 283 0;
#X connect 259 0 280 0;
#X connect 260 0 280 1;
#X connect 261 0 280 2;
#X connect 262 0 280 3;
#X connect 263 0 280 4;
#X connect 264 0 280 5;
#X connect 265 0 280 6;
#X connect 266 0 280 7;
#X connect 267 0 280 8;
#X connect 269 0 258 1;
#X connect 281 0 233 0;
#X connect 283 0 255 0;
#X connect 285 0 239 0;
#X connect 287 0 306 1;
#X connect 288 0 307 1;
#X connect 289 0 308 1;
#X connect 290 0 309 1;
#X connect 291 0 310 1;
#X connect 292 0 311 1;
#X connect 293 0 312 1;
#X connect 294 0 313 1;
#X connect 295 0 314 1;
#X connect 296 0 315 1;
#X connect 297 0 316 1;
#X connect 298 0 317 1;
#X connect 299 0 318 1;
#X connect 300 0 319 1;
#X connect 301 0 320 1;
#X connect 302 0 321 1;
#X connect 303 0 324 0;
#X connect 304 0 305 0;
#X connect 305 0 306 0;
#X connect 305 1 307 0;
#X connect 305 2 308 0;
#X connect 305 3 309 0;
#X connect 305 4 310 0;
#X connect 305 5 311 0;
#X connect 305 6 312 0;
#X connect 305 7 313 0;
#X connect 305 8 314 0;
#X connect 305 9 315 0;
#X connect 305 10 316 0;
#X connect 305 11 317 0;
#X connect 305 12 318 0;
#X connect 305 13 319 0;
#X connect 305 14 320 0;
#X connect 305 15 321 0;
#X connect 306 0 374 0;
#X connect 307 0 374 0;
#X connect 308 0 374 0;
#X connect 309 0 374 0;
#X connect 310 0 374 0;
#X connect 311 0 374 0;
#X connect 312 0 374 0;
#X connect 313 0 374 0;
#X connect 314 0 374 0;
#X connect 315 0 374 0;
#X connect 316 0 374 0;
#X connect 317 0 374 0;
#X connect 318 0 374 0;
#X connect 319 0 374 0;
#X connect 320 0 374 0;
#X connect 321 0 374 0;
#X connect 323 0 324 1;
#X connect 324 0 304 0;
#X connect 325 0 330 0;
#X connect 326 0 335 0;
#X connect 329 0 330 1;
#X connect 330 0 375 0;
#X connect 331 0 335 1;
#X connect 332 0 322 0;
#X connect 333 0 332 1;
#X connect 347 0 350 0;
#X connect 348 0 351 0;
#X connect 349 0 350 1;
#X connect 350 0 376 0;
#X connect 352 0 373 0;
#X connect 353 0 373 1;
#X connect 354 0 373 2;
#X connect 355 0 373 3;
#X connect 356 0 373 4;
#X connect 357 0 373 5;
#X connect 358 0 373 6;
#X connect 359 0 373 7;
#X connect 360 0 373 8;
#X connect 362 0 351 1;
#X connect 374 0 332 0;
#X connect 375 0 326 0;
#X connect 376 0 348 0;
#X connect 387 0 402 0;
#X connect 388 0 7 1;
#X connect 389 0 7 2;
#X connect 390 0 399 0;
#X connect 390 1 400 1;
#X connect 391 0 390 0;
#X connect 392 0 388 0;
#X connect 393 0 389 0;
#X connect 398 0 392 0;
#X connect 398 0 393 0;
#X connect 399 0 400 0;
#X connect 400 0 401 0;
#X connect 400 0 8 0;
#X connect 401 0 398 0;
#X connect 402 0 398 1;
#X connect 402 0 391 0;
#X connect 403 0 402 1;
