#N canvas 1592 0 1600 817 10;
#X declare -lib mrpeach;
#X floatatom 12 195 5 0 100 0 - - -;
#X floatatom 48 195 5 0 0 0 - - -;
#X floatatom 84 195 5 0 0 0 - - -;
#X floatatom 120 195 5 0 0 0 - - -;
#X floatatom 155 195 5 0 0 0 - - -;
#X floatatom 192 195 5 0 0 0 - - -;
#X floatatom 227 195 5 0 0 0 - - -;
#X floatatom 263 195 5 0 0 0 - - -;
#X floatatom 299 195 5 0 0 0 - - -;
#X floatatom 335 195 5 0 0 0 - - -;
#X floatatom 372 195 5 0 0 0 - - -;
#X floatatom 408 195 5 0 0 0 - - -;
#X floatatom 444 195 5 0 0 0 - - -;
#X floatatom 480 195 5 0 0 0 - - -;
#X floatatom 516 195 5 0 0 0 - - -;
#X floatatom 552 195 5 0 0 0 - - -;
#X text 6 36 run/stop;
#X obj 7 53 tgl 15 0 empty empty empty 17 7 0 10 -262144 -1 -1 0 1
;
#X obj 76 53 nbx 5 14 1 1000 0 1 empty empty bpm 0 -8 0 10 -262144
-1 -1 61 256;
#N canvas 367 118 450 300 transport 0;
#X obj 111 131 float;
#X obj 161 130 + 1;
#X floatatom 111 160 5 0 0 0 - - -;
#X obj 111 189 s count;
#X obj 58 215 sel 1;
#X obj 110 215 sel 0;
#X obj 111 100 metro;
#X obj 58 44 inlet;
#X obj 138 44 inlet;
#X obj 58 242 outlet;
#X obj 110 242 outlet;
#X text 57 32 comment;
#X obj 162 189 s pulse;
#X obj 138 74 expr 15000 / $f1;
#X connect 0 0 1 0;
#X connect 0 0 2 0;
#X connect 1 0 0 1;
#X connect 2 0 3 0;
#X connect 4 0 9 0;
#X connect 5 0 10 0;
#X connect 6 0 0 0;
#X connect 6 0 12 0;
#X connect 7 0 4 0;
#X connect 7 0 5 0;
#X connect 7 0 6 0;
#X connect 8 0 13 0;
#X connect 13 0 6 1;
#X restore 7 73 pd transport;
#X obj 7 95 s start;
#X obj 76 95 s stop;
#N canvas 423 110 450 300 osc-input 0;
#X obj 24 72 unpackOSC;
#X obj 24 43 udpreceive 9001;
#X obj 145 140 routeOSC /str;
#X obj 24 138 outlet;
#X obj 23 9 import mrpeach;
#X obj 24 109 routeOSC /play /beat;
#X connect 0 0 5 0;
#X connect 1 0 0 0;
#X connect 5 0 3 0;
#X connect 5 2 2 0;
#X restore 7 15 pd osc-input;
#X obj 7 120 r count;
#X obj 7 137 mod 16;
#X obj 7 159 hradio 36 1 0 16 empty empty empty 0 -8 0 10 -262144 -1
-1 0;
#X obj 7 211 select 0 1 2 3 4 5 6 7 8 9 10 11 12 13 14 15;
#X obj 7 250 bng 15 250 50 0 empty empty empty 17 7 0 10 -262144 -1
-1;
#X obj 44 250 bng 15 250 50 0 empty empty empty 17 7 0 10 -262144 -1
-1;
#X obj 82 250 bng 15 250 50 0 empty empty empty 17 7 0 10 -262144 -1
-1;
#X obj 118 250 bng 15 250 50 0 empty empty empty 17 7 0 10 -262144
-1 -1;
#X obj 154 250 bng 15 250 50 0 empty empty empty 17 7 0 10 -262144
-1 -1;
#X obj 189 250 bng 15 250 50 0 empty empty empty 17 7 0 10 -262144
-1 -1;
#X obj 224 250 bng 15 250 50 0 empty empty empty 17 7 0 10 -262144
-1 -1;
#X obj 260 250 bng 15 250 50 0 empty empty empty 17 7 0 10 -262144
-1 -1;
#X obj 298 250 bng 15 250 50 0 empty empty empty 17 7 0 10 -262144
-1 -1;
#X obj 335 250 bng 15 250 50 0 empty empty empty 17 7 0 10 -262144
-1 -1;
#X obj 370 250 bng 15 250 50 0 empty empty empty 17 7 0 10 -262144
-1 -1;
#X obj 405 250 bng 15 250 50 0 empty empty empty 17 7 0 10 -262144
-1 -1;
#X obj 442 250 bng 15 250 50 0 empty empty empty 17 7 0 10 -262144
-1 -1;
#X obj 478 250 bng 15 250 50 0 empty empty empty 17 7 0 10 -262144
-1 -1;
#X obj 515 250 bng 15 250 50 0 empty empty empty 17 7 0 10 -262144
-1 -1;
#X obj 550 250 bng 15 250 50 0 empty empty empty 17 7 0 10 -262144
-1 -1;
#X text 591 196 trigger probability;
#X obj 522 283 noteout;
#X msg 522 265 36 127 10;
#X obj 7 228 trg;
#X obj 44 228 trg;
#X obj 82 228 trg;
#X obj 118 228 trg;
#X obj 154 228 trg;
#X obj 189 228 trg;
#X obj 224 228 trg;
#X obj 260 228 trg;
#X obj 298 228 trg;
#X obj 335 228 trg;
#X obj 370 228 trg;
#X obj 405 228 trg;
#X obj 442 228 trg;
#X obj 478 228 trg;
#X obj 515 228 trg;
#X obj 550 228 trg;
#N canvas 717 174 450 300 cc_trg 1;
#X obj 44 66 inlet;
#X obj 89 66 inlet;
#X obj 141 66 inlet;
#X obj 44 93 random 100;
#X obj 141 218 outlet;
#X obj 44 138 sel 1;
#X obj 44 115 expr $i1 < $i2;
#X floatatom 141 196 5 0 0 0 - - -;
#X obj 141 174 expr $f1 - $f2;
#X connect 0 0 3 0;
#X connect 0 0 6 1;
#X connect 1 0 8 1;
#X connect 2 0 8 0;
#X connect 3 0 6 0;
#X connect 5 0 8 0;
#X connect 6 0 5 0;
#X connect 7 0 4 0;
#X connect 8 0 7 0;
#X restore 61 369 pd cc_trg;
#X floatatom 76 297 5 0 0 0 - - -;
#X obj 61 335 f;
#X obj 61 297 bng 15 250 50 0 empty empty empty 17 7 0 10 -262144 -1
-1;
#X floatatom 112 296 5 0 0 0 - - -;
#X floatatom 148 296 5 0 0 0 - - -;
#X floatatom 61 403 5 0 0 0 - - -;
#X connect 0 0 46 1;
#X connect 1 0 47 1;
#X connect 2 0 48 1;
#X connect 3 0 49 1;
#X connect 4 0 50 1;
#X connect 5 0 51 1;
#X connect 6 0 52 1;
#X connect 7 0 53 1;
#X connect 8 0 54 1;
#X connect 9 0 55 1;
#X connect 10 0 56 1;
#X connect 11 0 57 1;
#X connect 12 0 58 1;
#X connect 13 0 59 1;
#X connect 14 0 60 1;
#X connect 15 0 61 1;
#X connect 17 0 19 0;
#X connect 18 0 19 1;
#X connect 19 0 20 0;
#X connect 19 1 21 0;
#X connect 22 0 17 0;
#X connect 23 0 24 0;
#X connect 24 0 25 0;
#X connect 25 0 26 0;
#X connect 26 0 46 0;
#X connect 26 1 47 0;
#X connect 26 2 48 0;
#X connect 26 3 49 0;
#X connect 26 4 50 0;
#X connect 26 5 51 0;
#X connect 26 6 52 0;
#X connect 26 7 53 0;
#X connect 26 8 54 0;
#X connect 26 9 55 0;
#X connect 26 10 56 0;
#X connect 26 11 57 0;
#X connect 26 12 58 0;
#X connect 26 13 59 0;
#X connect 26 14 60 0;
#X connect 26 15 61 0;
#X connect 27 0 45 0;
#X connect 28 0 45 0;
#X connect 29 0 45 0;
#X connect 30 0 45 0;
#X connect 31 0 45 0;
#X connect 32 0 45 0;
#X connect 33 0 45 0;
#X connect 34 0 45 0;
#X connect 35 0 45 0;
#X connect 36 0 45 0;
#X connect 37 0 45 0;
#X connect 38 0 45 0;
#X connect 39 0 45 0;
#X connect 40 0 45 0;
#X connect 41 0 45 0;
#X connect 42 0 45 0;
#X connect 45 0 44 0;
#X connect 46 0 27 0;
#X connect 47 0 28 0;
#X connect 48 0 29 0;
#X connect 49 0 30 0;
#X connect 50 0 31 0;
#X connect 51 0 32 0;
#X connect 52 0 33 0;
#X connect 53 0 34 0;
#X connect 54 0 35 0;
#X connect 55 0 36 0;
#X connect 56 0 37 0;
#X connect 57 0 38 0;
#X connect 58 0 39 0;
#X connect 59 0 40 0;
#X connect 60 0 41 0;
#X connect 61 0 42 0;
#X connect 62 0 68 0;
#X connect 63 0 64 1;
#X connect 64 0 62 0;
#X connect 65 0 64 0;
#X connect 66 0 62 1;
#X connect 67 0 62 2;
