#N canvas 0 0 450 300 10;
#X obj 26 62 random 100;
#X obj 26 39 inlet;
#X obj 107 39 inlet;
#X obj 26 129 outlet;
#X obj 26 107 sel 1;
#X obj 26 84 expr $i1 < $i2;
#X connect 0 0 5 0;
#X connect 1 0 0 0;
#X connect 2 0 5 1;
#X connect 4 0 3 0;
#X connect 5 0 4 0;
